{
.appVersion = "939";
classes = (
{
code = "";
name = DevaIMatras;
},
{
code = "";
name = DevaIMatras;
}
);
date = "2016-04-17 11:12:49 +0000";
familyName = Kirov;
featurePrefixes = (
{
code = "";
name = Languagesystems;
}
);
features = (
{

glyphs = (
{
color = 6;
glyphname = "an-georgian";
lastChange = "2017-03-20 11:19:28 +0000";
layers = (
{
layerId = "6A0E5D42-0D7D-4184-8BD5-EF66FF65863B";
paths = (
{
closed = 1;
nodes = (
"30 53 OFFCURVE",
"93 -10 OFFCURVE",
"170 -10 CURVE SMOOTH",
"182 -10 LINE SMOOTH",
"259 -10 OFFCURVE",
"322 53 OFFCURVE",
"322 130 CURVE SMOOTH",
"322 188 LINE SMOOTH",
"322 262 OFFCURVE",
"313 283 OFFCURVE",
"264 321 CURVE SMOOTH",
"228 349 LINE",
"205 367 OFFCURVE",
"188 376 OFFCURVE",
"188 408 CURVE",
"188 420 LINE",
"101 420 LINE",
"101 393 LINE SMOOTH",
"101 352 OFFCURVE",
"120 329 OFFCURVE",
"150 305 CURVE SMOOTH",
"200 266 LINE SMOOTH",
"225 246 OFFCURVE",
"235 226 OFFCURVE",
"235 192 CURVE SMOOTH",
"235 121 LINE SMOOTH",
"235 93 OFFCURVE",
"213 71 OFFCURVE",
"185 71 CURVE SMOOTH",
"167 71 LINE SMOOTH",
"139 71 OFFCURVE",
"117 93 OFFCURVE",
"117 121 CURVE SMOOTH",
"117 191 LINE",
"30 191 LINE",
"30 130 LINE SMOOTH"
);
}
);
width = 352;
}
);
unicode = 10D0;
},
{
color = 6;
glyphname = "ban-georgian";
lastChange = "2017-03-20 11:19:31 +0000";
layers = (
{
backgroundImage = {
crop = "{{0, 0}, {140, 160}}";
imagePath = "documents-export-2016-06-11/b.png";
transform = "{33.14, 0, 0, 33.14, 241, 1399}";
};
layerId = "6A0E5D42-0D7D-4184-8BD5-EF66FF65863B";
paths = (
{
closed = 1;
nodes = (
"30 53 OFFCURVE",
"93 -10 OFFCURVE",
"170 -10 CURVE SMOOTH",
"182 -10 LINE SMOOTH",
"259 -10 OFFCURVE",
"322 53 OFFCURVE",
"322 130 CURVE SMOOTH",
"322 290 LINE SMOOTH",
"322 352 OFFCURVE",
"281 406 OFFCURVE",
"224 424 CURVE",
"224 596 LINE",
"224 645 OFFCURVE",
"207 660 OFFCURVE",
"159 669 CURVE SMOOTH",
"131 674 OFFCURVE",
"112 678 OFFCURVE",
"112 700 CURVE",
"35 700 LINE",
"35 681 LINE SMOOTH",
"35 656 OFFCURVE",
"40 636 OFFCURVE",
"66 622 CURVE SMOOTH",
"99 604 OFFCURVE",
"146 620 OFFCURVE",
"146 575 CURVE SMOOTH",
"146 428 LINE",
"80 416 OFFCURVE",
"30 359 OFFCURVE",
"30 290 CURVE SMOOTH",
"30 130 LINE SMOOTH"
);
},
{
closed = 1;
nodes = (
"117 299 LINE SMOOTH",
"117 327 OFFCURVE",
"139 349 OFFCURVE",
"167 349 CURVE SMOOTH",
"185 349 LINE SMOOTH",
"213 349 OFFCURVE",
"235 327 OFFCURVE",
"235 299 CURVE SMOOTH",
"235 121 LINE SMOOTH",
"235 93 OFFCURVE",
"213 71 OFFCURVE",
"185 71 CURVE SMOOTH",
"167 71 LINE SMOOTH",
"139 71 OFFCURVE",
"117 93 OFFCURVE",
"117 121 CURVE SMOOTH"
);
}
);
width = 354;
}
);
unicode = 10D1;
},
{
color = 6;
glyphname = "gan-georgian";
lastChange = "2017-03-20 11:19:34 +0000";
layers = (
{
layerId = "6A0E5D42-0D7D-4184-8BD5-EF66FF65863B";
paths = (
{
closed = 1;
nodes = (
"30 -227 OFFCURVE",
"93 -290 OFFCURVE",
"170 -290 CURVE SMOOTH",
"182 -290 LINE SMOOTH",
"259 -290 OFFCURVE",
"322 -227 OFFCURVE",
"322 -150 CURVE SMOOTH",
"322 10 LINE SMOOTH",
"322 66 OFFCURVE",
"288 115 OFFCURVE",
"240 137 CURVE",
"275 192 OFFCURVE",
"292 239 OFFCURVE",
"292 290 CURVE SMOOTH",
"292 371 OFFCURVE",
"257 430 OFFCURVE",
"169 430 CURVE SMOOTH",
"81 430 OFFCURVE",
"46 371 OFFCURVE",
"46 290 CURVE SMOOTH",
"46 273 LINE",
"133 273 LINE",
"133 300 LINE SMOOTH",
"133 329 OFFCURVE",
"142 349 OFFCURVE",
"169 349 CURVE SMOOTH",
"196 349 OFFCURVE",
"205 329 OFFCURVE",
"205 298 CURVE SMOOTH",
"205 259 OFFCURVE",
"196 206 OFFCURVE",
"155 149 CURVE",
"85 142 OFFCURVE",
"30 82 OFFCURVE",
"30 10 CURVE SMOOTH",
"30 -150 LINE SMOOTH"
);
},
{
closed = 1;
nodes = (
"117 19 LINE SMOOTH",
"117 47 OFFCURVE",
"139 69 OFFCURVE",
"167 69 CURVE SMOOTH",
"185 69 LINE SMOOTH",
"213 69 OFFCURVE",
"235 47 OFFCURVE",
"235 19 CURVE SMOOTH",
"235 -159 LINE SMOOTH",
"235 -187 OFFCURVE",
"213 -209 OFFCURVE",
"185 -209 CURVE SMOOTH",
"167 -209 LINE SMOOTH",
"139 -209 OFFCURVE",
"117 -187 OFFCURVE",
"117 -159 CURVE SMOOTH"
);
}
);
width = 355;
}
);
unicode = 10D2;
},
{
color = 6;
glyphname = "don-georgian";
lastChange = "2017-03-20 11:19:36 +0000";
layers = (
{
layerId = "6A0E5D42-0D7D-4184-8BD5-EF66FF65863B";
paths = (
{
closed = 1;
nodes = (
"52 -65 OFFCURVE",
"79 -67 OFFCURVE",
"100 -76 CURVE SMOOTH",
"181 -111 OFFCURVE",
"341 -197 OFFCURVE",
"341 -290 CURVE",
"428 -290 LINE",
"428 -194 OFFCURVE",
"367 -142 OFFCURVE",
"222 -43 CURVE SMOOTH",
"174 -10 LINE SMOOTH",
"131 20 OFFCURVE",
"128 63 OFFCURVE",
"128 95 CURVE SMOOTH",
"128 313 LINE SMOOTH",
"128 333 OFFCURVE",
"144 349 OFFCURVE",
"164 349 CURVE SMOOTH",
"184 349 OFFCURVE",
"200 333 OFFCURVE",
"200 313 CURVE SMOOTH",
"200 183 LINE SMOOTH",
"200 121 OFFCURVE",
"251 72 OFFCURVE",
"319 72 CURVE SMOOTH",
"329 72 LINE SMOOTH",
"406 72 OFFCURVE",
"446 123 OFFCURVE",
"446 190 CURVE SMOOTH",
"446 312 LINE SMOOTH",
"446 379 OFFCURVE",
"405 430 OFFCURVE",
"328 430 CURVE SMOOTH",
"296 430 OFFCURVE",
"266 416 OFFCURVE",
"248 392 CURVE",
"244 386 LINE",
"226 414 OFFCURVE",
"193 430 OFFCURVE",
"159 430 CURVE SMOOTH",
"82 430 OFFCURVE",
"41 379 OFFCURVE",
"41 312 CURVE SMOOTH",
"41 78 LINE SMOOTH",
"41 60 OFFCURVE",
"44 42 OFFCURVE",
"52 24 CURVE",
"30 24 LINE",
"30 -63 LINE"
);
},
{
closed = 1;
nodes = (
"287 313 LINE SMOOTH",
"287 333 OFFCURVE",
"303 349 OFFCURVE",
"323 349 CURVE SMOOTH",
"343 349 OFFCURVE",
"359 333 OFFCURVE",
"359 313 CURVE SMOOTH",
"359 189 LINE SMOOTH",
"359 169 OFFCURVE",
"343 153 OFFCURVE",
"323 153 CURVE SMOOTH",
"303 153 OFFCURVE",
"287 169 OFFCURVE",
"287 189 CURVE SMOOTH"
);
}
);
width = 477;
}
);
unicode = 10D3;
},
{
color = 6;
glyphname = "en-georgian";
lastChange = "2017-03-20 11:19:38 +0000";
layers = (
{
backgroundImage = {
crop = "{{0, 0}, {140, 160}}";
imagePath = "documents-export-2016-06-11/e.png";
locked = "1";
transform = "{34.029, 0, 0, 34.029, -15, -27}";
};
layerId = "6A0E5D42-0D7D-4184-8BD5-EF66FF65863B";
paths = (
{
closed = 1;
nodes = (
"235 204 OFFCURVE",
"235 -23 OFFCURVE",
"235 -159 CURVE SMOOTH",
"235 -187 OFFCURVE",
"213 -209 OFFCURVE",
"185 -209 CURVE",
"167 -209 LINE",
"139 -209 OFFCURVE",
"117 -187 OFFCURVE",
"117 -159 CURVE SMOOTH",
"117 -46 LINE",
"30 -46 LINE",
"30 -70 OFFCURVE",
"30 -112 OFFCURVE",
"30 -150 CURVE SMOOTH",
"30 -227 OFFCURVE",
"93 -290 OFFCURVE",
"170 -290 CURVE",
"182 -290 LINE",
"259 -290 OFFCURVE",
"322 -227 OFFCURVE",
"322 -150 CURVE SMOOTH",
"322 290 LINE SMOOTH",
"322 367 OFFCURVE",
"259 430 OFFCURVE",
"182 430 CURVE",
"175 430 LINE",
"98 430 OFFCURVE",
"35 367 OFFCURVE",
"35 290 CURVE",
"35 250 LINE",
"122 250 LINE",
"122 299 LINE SMOOTH",
"122 327 OFFCURVE",
"144 349 OFFCURVE",
"172 349 CURVE SMOOTH",
"185 349 LINE SMOOTH",
"213 349 OFFCURVE",
"235 327 OFFCURVE",
"235 299 CURVE SMOOTH"
);
}
);
width = 356;
}
);
unicode = 10D4;
},
{
color = 6;
glyphname = "vin-georgian";
lastChange = "2017-03-20 11:19:40 +0000";
layers = (
{
backgroundImage = {
crop = "{{0, 0}, {140, 160}}";
imagePath = "documents-export-2016-06-11/documents-export-2016-06-11.png";
locked = "1";
transform = "{14.589, 0, 0, 14.589, -4, -28}";
};
layerId = "6A0E5D42-0D7D-4184-8BD5-EF66FF65863B";
paths = (
{
closed = 1;
nodes = (
"30 -227 OFFCURVE",
"93 -290 OFFCURVE",
"170 -290 CURVE SMOOTH",
"182 -290 LINE SMOOTH",
"259 -290 OFFCURVE",
"322 -230 OFFCURVE",
"322 -150 CURVE SMOOTH",
"322 29 LINE SMOOTH",
"322 64 OFFCURVE",
"305 92 OFFCURVE",
"277 110 CURVE",
"305 128 OFFCURVE",
"322 166 OFFCURVE",
"322 203 CURVE",
"322 290 LINE",
"322 367 OFFCURVE",
"259 430 OFFCURVE",
"182 430 CURVE SMOOTH",
"181 430 LINE SMOOTH",
"104 430 OFFCURVE",
"45 367 OFFCURVE",
"45 290 CURVE SMOOTH",
"45 250 LINE",
"133 250 LINE",
"133 299 LINE SMOOTH",
"133 327 OFFCURVE",
"151 349 OFFCURVE",
"179 349 CURVE SMOOTH",
"185 349 LINE SMOOTH",
"213 349 OFFCURVE",
"235 327 OFFCURVE",
"235 299 CURVE",
"235 207 LINE",
"235 179 OFFCURVE",
"213 157 OFFCURVE",
"185 157 CURVE SMOOTH",
"159 157 LINE",
"159 75 LINE",
"185 75 LINE SMOOTH",
"213 75 OFFCURVE",
"235 53 OFFCURVE",
"235 25 CURVE SMOOTH",
"235 -159 LINE SMOOTH",
"235 -187 OFFCURVE",
"213 -209 OFFCURVE",
"185 -209 CURVE SMOOTH",
"167 -209 LINE SMOOTH",
"139 -209 OFFCURVE",
"117 -187 OFFCURVE",
"117 -159 CURVE SMOOTH",
"117 -45 LINE",
"30 -45 LINE",
"30 -150 LINE SMOOTH"
);
}
);
width = 353;
}
);
unicode = 10D5;
},
{
color = 6;
glyphname = "zen-georgian";
lastChange = "2017-03-20 11:19:42 +0000";
layers = (
{
layerId = "6A0E5D42-0D7D-4184-8BD5-EF66FF65863B";
paths = (
{
closed = 1;
nodes = (
"347 -10 CURVE SMOOTH",
"424 -10 OFFCURVE",
"484 53 OFFCURVE",
"484 130 CURVE SMOOTH",
"484 280 LINE SMOOTH",
"484 357 OFFCURVE",
"430 420 OFFCURVE",
"353 420 CURVE SMOOTH",
"331 420 OFFCURVE",
"299 414 OFFCURVE",
"285 403 CURVE",
"283 403 LINE",
"288 556 LINE SMOOTH",
"288 586 LINE SMOOTH",
"288 659 OFFCURVE",
"244 710 OFFCURVE",
"171 710 CURVE SMOOTH",
"156 710 LINE SMOOTH",
"83 710 OFFCURVE",
"30 659 OFFCURVE",
"30 586 CURVE SMOOTH",
"30 526 LINE SMOOTH",
"30 452 OFFCURVE",
"92 401 OFFCURVE",
"165 401 CURVE SMOOTH",
"181 401 OFFCURVE",
"190 403 OFFCURVE",
"208 411 CURVE",
"210 411 LINE",
"205 204 LINE",
"205 130 LINE SMOOTH",
"205 54 OFFCURVE",
"258 -10 OFFCURVE"
);
},
{
closed = 1;
nodes = (
"314 71 OFFCURVE",
"292 93 OFFCURVE",
"292 121 CURVE SMOOTH",
"292 289 LINE SMOOTH",
"292 317 OFFCURVE",
"314 339 OFFCURVE",
"342 339 CURVE SMOOTH",
"347 339 LINE SMOOTH",
"375 339 OFFCURVE",
"397 317 OFFCURVE",
"397 289 CURVE SMOOTH",
"397 121 LINE SMOOTH",
"397 93 OFFCURVE",
"375 71 OFFCURVE",
"347 71 CURVE SMOOTH",
"342 71 LINE SMOOTH"
);
},
{
closed = 1;
nodes = (
"132 482 OFFCURVE",
"113 501 OFFCURVE",
"113 524 CURVE SMOOTH",
"113 587 LINE SMOOTH",
"113 610 OFFCURVE",
"132 629 OFFCURVE",
"155 629 CURVE SMOOTH",
"163 629 LINE SMOOTH",
"185 629 OFFCURVE",
"205 611 OFFCURVE",
"205 587 CURVE SMOOTH",
"205 524 LINE SMOOTH",
"205 501 OFFCURVE",
"186 482 OFFCURVE",
"163 482 CURVE SMOOTH",
"155 482 LINE SMOOTH"
);
}
);
width = 521;
}
);
unicode = 10D6;
},
{
color = 6;
glyphname = "tan-georgian";
lastChange = "2017-03-20 11:19:44 +0000";
layers = (
{
layerId = "6A0E5D42-0D7D-4184-8BD5-EF66FF65863B";
paths = (
{
closed = 1;
nodes = (
"30 53 OFFCURVE",
"90 -10 OFFCURVE",
"167 -10 CURVE SMOOTH",
"168 -10 LINE SMOOTH",
"240 -10 OFFCURVE",
"305 55 OFFCURVE",
"305 130 CURVE SMOOTH",
"305 298 LINE SMOOTH",
"305 326 OFFCURVE",
"327 348 OFFCURVE",
"355 348 CURVE SMOOTH",
"356 348 LINE SMOOTH",
"384 348 OFFCURVE",
"406 326 OFFCURVE",
"406 298 CURVE SMOOTH",
"406 0 LINE",
"493 0 LINE",
"493 290 LINE SMOOTH",
"493 367 OFFCURVE",
"430 429 OFFCURVE",
"353 429 CURVE SMOOTH",
"351 429 LINE SMOOTH",
"316 429 OFFCURVE",
"281 411 OFFCURVE",
"262 384 CURVE",
"243 411 OFFCURVE",
"207 429 OFFCURVE",
"172 429 CURVE SMOOTH",
"170 429 LINE SMOOTH",
"93 429 OFFCURVE",
"30 366 OFFCURVE",
"30 289 CURVE SMOOTH",
"30 130 LINE SMOOTH"
);
},
{
closed = 1;
nodes = (
"117 298 LINE SMOOTH",
"117 326 OFFCURVE",
"139 348 OFFCURVE",
"167 348 CURVE SMOOTH",
"168 348 LINE SMOOTH",
"196 348 OFFCURVE",
"218 326 OFFCURVE",
"218 298 CURVE SMOOTH",
"218 121 LINE SMOOTH",
"218 93 OFFCURVE",
"196 71 OFFCURVE",
"168 71 CURVE SMOOTH",
"167 71 LINE SMOOTH",
"139 71 OFFCURVE",
"117 93 OFFCURVE",
"117 121 CURVE SMOOTH"
);
}
);
width = 525;
}
);
unicode = 10D7;
},
{
color = 6;
glyphname = "in-georgian";
lastChange = "2017-03-20 11:19:46 +0000";
layers = (
{
backgroundImage = {
crop = "{{0, 0}, {140, 160}}";
imagePath = "documents-export-2016-06-11/i.png";
locked = "1";
transform = "{33.43, 0, 0, 33.43, -22, -61}";
};
layerId = "6A0E5D42-0D7D-4184-8BD5-EF66FF65863B";
paths = (
{
closed = 1;
nodes = (
"322 290 LINE SMOOTH",
"322 367 OFFCURVE",
"259 430 OFFCURVE",
"182 430 CURVE",
"170 430 LINE",
"93 430 OFFCURVE",
"30 367 OFFCURVE",
"30 290 CURVE SMOOTH",
"30 248 OFFCURVE",
"30 25 OFFCURVE",
"30 0 CURVE",
"117 0 LINE",
"117 299 LINE SMOOTH",
"117 327 OFFCURVE",
"139 349 OFFCURVE",
"167 349 CURVE",
"185 349 LINE",
"213 349 OFFCURVE",
"235 327 OFFCURVE",
"235 299 CURVE SMOOTH",
"235 0 LINE",
"322 0 LINE"
);
}
);
width = 352;
}
);
unicode = 10D8;
},
{
color = 6;
glyphname = "kan-georgian";
lastChange = "2017-03-20 11:19:49 +0000";
layers = (
{
backgroundImage = {
crop = "{{0, 0}, {140, 160}}";
imagePath = "documents-export-2016-06-11/k.png";
locked = "1";
transform = "{33.37, 0, 0, 33.37, -6, -47}";
};
layerId = "6A0E5D42-0D7D-4184-8BD5-EF66FF65863B";
paths = (
{
closed = 1;
nodes = (
"235 420 LINE",
"235 266 LINE",
"235 238 OFFCURVE",
"213 206 OFFCURVE",
"185 206 CURVE SMOOTH",
"159 206 LINE",
"159 129 LINE",
"185 129 LINE SMOOTH",
"213 129 OFFCURVE",
"235 107 OFFCURVE",
"235 79 CURVE SMOOTH",
"235 -159 LINE SMOOTH",
"235 -187 OFFCURVE",
"213 -209 OFFCURVE",
"185 -209 CURVE SMOOTH",
"167 -209 LINE SMOOTH",
"139 -209 OFFCURVE",
"117 -187 OFFCURVE",
"117 -159 CURVE SMOOTH",
"117 -30 LINE",
"30 -30 LINE",
"30 -150 LINE SMOOTH",
"30 -227 OFFCURVE",
"93 -290 OFFCURVE",
"170 -290 CURVE SMOOTH",
"182 -290 LINE SMOOTH",
"259 -290 OFFCURVE",
"322 -227 OFFCURVE",
"322 -150 CURVE SMOOTH",
"322 83 LINE SMOOTH",
"322 120 OFFCURVE",
"306 150 OFFCURVE",
"278 168 CURVE",
"306 186 OFFCURVE",
"322 225 OFFCURVE",
"322 262 CURVE",
"322 420 LINE"
);
}
);
width = 354;
}
);
unicode = 10D9;
},
{
color = 6;
glyphname = "las-georgian";
lastChange = "2017-03-20 11:19:51 +0000";
layers = (
{
backgroundImage = {
crop = "{{0, 0}, {140, 160}}";
imagePath = "documents-export-2016-06-11/l.png";
locked = "1";
transform = "{33.404, 0, 0, 33.404, -17, -59}";
};
layerId = "6A0E5D42-0D7D-4184-8BD5-EF66FF65863B";
paths = (
{
closed = 1;
nodes = (
"38 88 OFFCURVE",
"46 65 OFFCURVE",
"54 53 CURVE",
"54 51 LINE",
"30 52 LINE",
"30 -35 LINE",
"52 -37 OFFCURVE",
"74 -39 OFFCURVE",
"95 -45 CURVE SMOOTH",
"139 -58 OFFCURVE",
"192 -80 OFFCURVE",
"248 -106 CURVE SMOOTH",
"377 -165 OFFCURVE",
"453 -221 OFFCURVE",
"459 -281 CURVE",
"546 -281 LINE",
"546 -217 OFFCURVE",
"529 -163 OFFCURVE",
"342 -68 CURVE SMOOTH",
"275 -34 LINE SMOOTH",
"206 1 OFFCURVE",
"125 27 OFFCURVE",
"125 101 CURVE SMOOTH",
"125 312 LINE",
"125 333 OFFCURVE",
"141 348 OFFCURVE",
"161 348 CURVE SMOOTH",
"181 348 OFFCURVE",
"197 333 OFFCURVE",
"197 312 CURVE",
"197 159 LINE",
"284 159 LINE",
"284 312 LINE",
"284 334 OFFCURVE",
"300 348 OFFCURVE",
"320 348 CURVE SMOOTH",
"340 348 OFFCURVE",
"356 332 OFFCURVE",
"356 312 CURVE",
"356 159 LINE",
"443 159 LINE",
"443 312 LINE",
"443 334 OFFCURVE",
"459 348 OFFCURVE",
"479 348 CURVE SMOOTH",
"499 348 OFFCURVE",
"515 332 OFFCURVE",
"515 312 CURVE",
"515 95 LINE",
"602 95 LINE",
"602 316 LINE",
"602 378 OFFCURVE",
"552 429 OFFCURVE",
"489 429 CURVE SMOOTH",
"448 429 OFFCURVE",
"417 409 OFFCURVE",
"400 384 CURVE",
"383 410 OFFCURVE",
"358 429 OFFCURVE",
"324 429 CURVE SMOOTH",
"286 429 OFFCURVE",
"259 412 OFFCURVE",
"241 384 CURVE",
"234 399 OFFCURVE",
"197 429 OFFCURVE",
"162 429 CURVE SMOOTH",
"149 429 LINE SMOOTH",
"87 429 OFFCURVE",
"38 378 OFFCURVE",
"38 316 CURVE",
"38 115 LINE SMOOTH"
);
}
);
width = 634;
}
);
unicode = 10DA;
},
{
color = 6;
glyphname = "man-georgian";
lastChange = "2017-03-20 11:19:54 +0000";
layers = (
{
backgroundImage = {
crop = "{{0, 0}, {140, 160}}";
imagePath = "documents-export-2016-06-11/m.png";
locked = "1";
transform = "{34.058, 0, 0, 34.058, -11, -19}";
};
layerId = "6A0E5D42-0D7D-4184-8BD5-EF66FF65863B";
paths = (
{
closed = 1;
nodes = (
"84 430 OFFCURVE",
"30 367 OFFCURVE",
"30 290 CURVE SMOOTH",
"30 256 OFFCURVE",
"30 212 OFFCURVE",
"30 130 CURVE SMOOTH",
"30 53 OFFCURVE",
"84 -10 OFFCURVE",
"161 -10 CURVE",
"191 -10 LINE",
"268 -10 OFFCURVE",
"322 53 OFFCURVE",
"322 130 CURVE SMOOTH",
"322 570 LINE SMOOTH",
"322 647 OFFCURVE",
"268 710 OFFCURVE",
"191 710 CURVE",
"166 710 LINE",
"89 710 OFFCURVE",
"35 647 OFFCURVE",
"35 570 CURVE",
"35 539 LINE",
"122 539 LINE",
"122 579 LINE SMOOTH",
"122 607 OFFCURVE",
"144 629 OFFCURVE",
"172 629 CURVE SMOOTH",
"185 629 LINE SMOOTH",
"213 629 OFFCURVE",
"235 607 OFFCURVE",
"235 579 CURVE SMOOTH",
"235 413 LINE",
"233 413 LINE",
"222 420 OFFCURVE",
"195 430 OFFCURVE",
"167 430 CURVE",
"161 430 LINE"
);
},
{
closed = 1;
nodes = (
"117 299 LINE SMOOTH",
"117 327 OFFCURVE",
"139 349 OFFCURVE",
"167 349 CURVE",
"185 349 LINE",
"213 349 OFFCURVE",
"235 327 OFFCURVE",
"235 299 CURVE SMOOTH",
"235 121 LINE SMOOTH",
"235 93 OFFCURVE",
"213 71 OFFCURVE",
"185 71 CURVE",
"167 71 LINE",
"139 71 OFFCURVE",
"117 93 OFFCURVE",
"117 121 CURVE SMOOTH"
);
}
);
width = 355;
}
);
unicode = 10DB;
},
{
color = 6;
glyphname = "nar-georgian";
lastChange = "2017-03-20 11:19:56 +0000";
layers = (
{
backgroundImage = {
crop = "{{0, 0}, {140, 160}}";
imagePath = "documents-export-2016-06-11/n.png";
locked = "1";
transform = "{33.983, 0, 0, 33.983, -2, -33}";
};
layerId = "6A0E5D42-0D7D-4184-8BD5-EF66FF65863B";
paths = (
{
closed = 1;
nodes = (
"235 93 OFFCURVE",
"213 71 OFFCURVE",
"185 71 CURVE",
"167 71 LINE",
"139 71 OFFCURVE",
"117 93 OFFCURVE",
"117 121 CURVE SMOOTH",
"117 316 LINE SMOOTH",
"117 344 OFFCURVE",
"139 366 OFFCURVE",
"167 366 CURVE",
"185 366 LINE",
"213 366 OFFCURVE",
"235 344 OFFCURVE",
"235 316 CURVE SMOOTH",
"235 121 LINE SMOOTH"
);
},
{
closed = 1;
nodes = (
"332 710 LINE",
"170 710 LINE",
"93 710 OFFCURVE",
"30 647 OFFCURVE",
"30 570 CURVE SMOOTH",
"30 130 LINE SMOOTH",
"30 53 OFFCURVE",
"93 -10 OFFCURVE",
"170 -10 CURVE",
"182 -10 LINE",
"259 -10 OFFCURVE",
"322 53 OFFCURVE",
"322 130 CURVE SMOOTH",
"322 212 OFFCURVE",
"322 273 OFFCURVE",
"322 307 CURVE SMOOTH",
"322 384 OFFCURVE",
"259 447 OFFCURVE",
"182 447 CURVE",
"176 447 LINE",
"148 447 OFFCURVE",
"130 437 OFFCURVE",
"119 430 CURVE",
"117 430 LINE",
"117 579 LINE SMOOTH",
"117 607 OFFCURVE",
"139 629 OFFCURVE",
"167 629 CURVE SMOOTH",
"332 629 LINE"
);
}
);
width = 366;
}
);
unicode = 10DC;
},
{
color = 6;
glyphname = "on-georgian";
lastChange = "2017-03-20 11:20:00 +0000";
layers = (
{
backgroundImage = {
crop = "{{0, 0}, {140, 160}}";
imagePath = "documents-export-2016-06-11/o.png";
locked = "1";
transform = "{33.525, 0, 0, 33.525, -18, -44}";
};
layerId = "6A0E5D42-0D7D-4184-8BD5-EF66FF65863B";
paths = (
{
closed = 1;
nodes = (
"306 141 LINE",
"306 298 LINE",
"306 326 OFFCURVE",
"328 348 OFFCURVE",
"356 348 CURVE SMOOTH",
"357 348 LINE SMOOTH",
"385 348 OFFCURVE",
"407 326 OFFCURVE",
"407 298 CURVE",
"407 0 LINE",
"494 0 LINE",
"494 289 LINE",
"494 366 OFFCURVE",
"431 429 OFFCURVE",
"354 429 CURVE SMOOTH",
"352 429 LINE SMOOTH",
"317 429 OFFCURVE",
"281 410 OFFCURVE",
"262 383 CURVE",
"243 410 OFFCURVE",
"207 429 OFFCURVE",
"172 429 CURVE SMOOTH",
"170 429 LINE SMOOTH",
"93 429 OFFCURVE",
"30 366 OFFCURVE",
"30 289 CURVE",
"30 0 LINE",
"117 0 LINE",
"117 298 LINE",
"117 326 OFFCURVE",
"139 348 OFFCURVE",
"167 348 CURVE SMOOTH",
"168 348 LINE SMOOTH",
"196 348 OFFCURVE",
"218 326 OFFCURVE",
"218 298 CURVE",
"218 141 LINE"
);
}
);
width = 526;
}
);
unicode = 10DD;
},
{
color = 6;
glyphname = "par-georgian";
lastChange = "2017-03-20 11:20:02 +0000";
layers = (
{
backgroundImage = {
crop = "{{0, 0}, {140, 160}}";
imagePath = "documents-export-2016-06-11/p.png";
locked = "1";
transform = "{33.624, 0, 0, 33.624, -8, -29}";
};
layerId = "6A0E5D42-0D7D-4184-8BD5-EF66FF65863B";
paths = (
{
closed = 1;
nodes = (
"30 53 OFFCURVE",
"93 -10 OFFCURVE",
"170 -10 CURVE SMOOTH",
"182 -10 LINE SMOOTH",
"259 -10 OFFCURVE",
"322 53 OFFCURVE",
"322 130 CURVE SMOOTH",
"322 256 LINE SMOOTH",
"322 293 OFFCURVE",
"305 322 OFFCURVE",
"277 340 CURVE",
"305 358 OFFCURVE",
"322 388 OFFCURVE",
"322 425 CURVE SMOOTH",
"322 467 LINE SMOOTH",
"322 535 OFFCURVE",
"296 569 OFFCURVE",
"256 595 CURVE SMOOTH",
"192 637 LINE SMOOTH",
"174 649 OFFCURVE",
"162 664 OFFCURVE",
"162 693 CURVE",
"162 700 LINE",
"75 700 LINE",
"75 686 LINE",
"75 640 OFFCURVE",
"88 611 OFFCURVE",
"137 578 CURVE SMOOTH",
"197 538 LINE SMOOTH",
"226 518 OFFCURVE",
"235 498 OFFCURVE",
"235 464 CURVE SMOOTH",
"235 429 LINE SMOOTH",
"235 401 OFFCURVE",
"213 379 OFFCURVE",
"185 379 CURVE SMOOTH",
"159 379 LINE",
"159 302 LINE",
"185 302 LINE SMOOTH",
"213 302 OFFCURVE",
"235 280 OFFCURVE",
"235 252 CURVE SMOOTH",
"235 121 LINE SMOOTH",
"235 93 OFFCURVE",
"213 71 OFFCURVE",
"185 71 CURVE SMOOTH",
"167 71 LINE SMOOTH",
"139 71 OFFCURVE",
"117 93 OFFCURVE",
"117 121 CURVE SMOOTH",
"117 195 LINE",
"30 195 LINE",
"30 130 LINE SMOOTH"
);
}
);
width = 354;
},
{
associatedMasterId = "6A0E5D42-0D7D-4184-8BD5-EF66FF65863B";
backgroundImage = {
crop = "{{0, 0}, {140, 160}}";
imagePath = "documents-export-2016-06-11/p.png";
locked = "1";
transform = "{33.624, 0, 0, 33.624, -26, -29}";
};
layerId = "0D312560-6C71-496F-9F5C-C76217AB7F2B";
name = "Sep 2 16, 18:22";
paths = (
{
closed = 1;
nodes = (
"3 53 OFFCURVE",
"66 -10 OFFCURVE",
"143 -10 CURVE SMOOTH",
"173 -10 LINE SMOOTH",
"250 -10 OFFCURVE",
"313 53 OFFCURVE",
"313 130 CURVE SMOOTH",
"313 250 LINE SMOOTH",
"313 287 OFFCURVE",
"302 320 OFFCURVE",
"276 341 CURVE",
"302 362 OFFCURVE",
"313 395 OFFCURVE",
"313 432 CURVE SMOOTH",
"313 480 LINE SMOOTH",
"313 554 OFFCURVE",
"302 576 OFFCURVE",
"255 613 CURVE SMOOTH",
"206 652 LINE SMOOTH",
"183 670 OFFCURVE",
"153 691 OFFCURVE",
"153 700 CURVE",
"57 700 LINE",
"57 666 OFFCURVE",
"74 641 OFFCURVE",
"130 597 CURVE SMOOTH",
"182 556 LINE SMOOTH",
"207 536 OFFCURVE",
"217 516 OFFCURVE",
"217 482 CURVE SMOOTH",
"217 436 LINE SMOOTH",
"217 408 OFFCURVE",
"195 386 OFFCURVE",
"167 386 CURVE SMOOTH",
"141 386 LINE",
"141 296 LINE",
"167 296 LINE SMOOTH",
"195 296 OFFCURVE",
"217 274 OFFCURVE",
"217 246 CURVE SMOOTH",
"217 130 LINE SMOOTH",
"217 102 OFFCURVE",
"195 80 OFFCURVE",
"167 80 CURVE SMOOTH",
"149 80 LINE SMOOTH",
"121 80 OFFCURVE",
"99 102 OFFCURVE",
"99 130 CURVE SMOOTH",
"99 187 LINE",
"3 187 LINE",
"3 130 LINE SMOOTH"
);
}
);
width = 330;
}
);
unicode = 10DE;
},
{
color = 6;
glyphname = "zhar-georgian";
lastChange = "2017-03-20 11:20:04 +0000";
layers = (
{
backgroundImage = {
crop = "{{0, 0}, {140, 160}}";
imagePath = "documents-export-2016-06-11/j.png";
locked = "1";
transform = "{33.849, 0, 0, 33.849, -9, -32}";
};
layerId = "6A0E5D42-0D7D-4184-8BD5-EF66FF65863B";
paths = (
{
closed = 1;
nodes = (
"30 81 LINE",
"45 75 OFFCURVE",
"63 72 OFFCURVE",
"79 72 CURVE SMOOTH",
"154 72 OFFCURVE",
"200 125 OFFCURVE",
"200 192 CURVE SMOOTH",
"200 211 OFFCURVE",
"197 234 OFFCURVE",
"187 255 CURVE",
"198 260 LINE SMOOTH",
"211 266 OFFCURVE",
"234 280 OFFCURVE",
"246 292 CURVE",
"248 292 LINE",
"248 -147 LINE SMOOTH",
"248 -181 OFFCURVE",
"221 -208 OFFCURVE",
"187 -208 CURVE SMOOTH",
"179 -208 LINE SMOOTH",
"145 -208 OFFCURVE",
"118 -181 OFFCURVE",
"118 -147 CURVE SMOOTH",
"118 -79 LINE",
"31 -79 LINE",
"31 -142 LINE SMOOTH",
"31 -223 OFFCURVE",
"97 -289 OFFCURVE",
"178 -289 CURVE SMOOTH",
"188 -289 LINE SMOOTH",
"269 -289 OFFCURVE",
"335 -223 OFFCURVE",
"335 -142 CURVE SMOOTH",
"335 420 LINE",
"258 420 LINE",
"235 371 OFFCURVE",
"178 333 OFFCURVE",
"85 301 CURVE",
"110 261 OFFCURVE",
"121 233 OFFCURVE",
"121 204 CURVE SMOOTH",
"121 169 OFFCURVE",
"96 153 OFFCURVE",
"67 153 CURVE SMOOTH",
"51 153 OFFCURVE",
"42 154 OFFCURVE",
"30 157 CURVE"
);
}
);
width = 372;
}
);
unicode = 10DF;
},
{
color = 6;
glyphname = "rae-georgian";
lastChange = "2017-03-20 11:20:06 +0000";
layers = (
{
backgroundImage = {
crop = "{{0, 0}, {140, 160}}";
imagePath = "documents-export-2016-06-11/r.png";
locked = "1";
transform = "{33.457, 0, 0, 33.457, -42, -57}";
};
layerId = "6A0E5D42-0D7D-4184-8BD5-EF66FF65863B";
paths = (
{
closed = 1;
nodes = (
"117 1 LINE",
"117 266 LINE SMOOTH",
"117 290 OFFCURVE",
"135 306 OFFCURVE",
"157 306 CURVE SMOOTH",
"163 306 LINE SMOOTH",
"185 306 OFFCURVE",
"203 288 OFFCURVE",
"203 266 CURVE SMOOTH",
"203 120 LINE",
"290 120 LINE",
"290 266 LINE SMOOTH",
"290 290 OFFCURVE",
"308 306 OFFCURVE",
"330 306 CURVE SMOOTH",
"336 306 LINE SMOOTH",
"358 306 OFFCURVE",
"376 288 OFFCURVE",
"376 266 CURVE SMOOTH",
"376 1 LINE",
"463 1 LINE",
"463 270 LINE SMOOTH",
"463 335 OFFCURVE",
"411 387 OFFCURVE",
"346 387 CURVE SMOOTH",
"341 387 LINE SMOOTH",
"305 387 OFFCURVE",
"265 367 OFFCURVE",
"251 346 CURVE",
"237 367 OFFCURVE",
"216 381 OFFCURVE",
"189 385 CURVE",
"189 387 LINE",
"305 518 LINE SMOOTH",
"376 598 OFFCURVE",
"394 658 OFFCURVE",
"394 697 CURVE",
"307 697 LINE",
"307 649 OFFCURVE",
"263 593 OFFCURVE",
"230 556 CURVE SMOOTH",
"77 382 LINE SMOOTH",
"64 368 OFFCURVE",
"30 335 OFFCURVE",
"30 277 CURVE SMOOTH",
"30 1 LINE"
);
}
);
width = 497;
}
);
unicode = 10E0;
},
{
color = 6;
glyphname = "san-georgian";
lastChange = "2017-03-20 11:20:09 +0000";
layers = (
{
backgroundImage = {
crop = "{{0, 0}, {140, 160}}";
imagePath = "documents-export-2016-06-11/s.png";
locked = "1";
transform = "{32.944, 0, 0, 32.944, -32, -47}";
};
layerId = "6A0E5D42-0D7D-4184-8BD5-EF66FF65863B";
paths = (
{
closed = 1;
nodes = (
"30 700 LINE",
"30 130 LINE SMOOTH",
"30 53 OFFCURVE",
"93 -10 OFFCURVE",
"170 -10 CURVE SMOOTH",
"182 -10 LINE SMOOTH",
"259 -10 OFFCURVE",
"322 53 OFFCURVE",
"322 130 CURVE SMOOTH",
"322 294 LINE",
"235 294 LINE",
"235 121 LINE SMOOTH",
"235 93 OFFCURVE",
"213 71 OFFCURVE",
"185 71 CURVE SMOOTH",
"167 71 LINE SMOOTH",
"139 71 OFFCURVE",
"117 93 OFFCURVE",
"117 121 CURVE SMOOTH",
"117 700 LINE"
);
}
);
width = 355;
}
);
unicode = 10E1;
},
{
color = 6;
glyphname = "tar-georgian";
lastChange = "2017-03-20 11:20:12 +0000";
layers = (
{
backgroundImage = {
crop = "{{0, 0}, {140, 160}}";
imagePath = "documents-export-2016-06-11/tt.png";
locked = "1";
transform = "{34.028, 0, 0, 34.028, -31, -25}";
};
layerId = "6A0E5D42-0D7D-4184-8BD5-EF66FF65863B";
paths = (
{
closed = 1;
nodes = (
"30 -218 OFFCURVE",
"102 -290 OFFCURVE",
"192 -290 CURVE SMOOTH",
"203 -290 LINE SMOOTH",
"293 -290 OFFCURVE",
"365 -218 OFFCURVE",
"365 -128 CURVE SMOOTH",
"365 12 LINE SMOOTH",
"365 69 OFFCURVE",
"348 114 OFFCURVE",
"307 145 CURVE SMOOTH",
"279 166 LINE",
"315 213 OFFCURVE",
"333 251.67 OFFCURVE",
"333 296 CURVE SMOOTH",
"333 371 OFFCURVE",
"285 430 OFFCURVE",
"210 430 CURVE SMOOTH",
"137 430 OFFCURVE",
"86 371 OFFCURVE",
"86 296 CURVE SMOOTH",
"86 238 OFFCURVE",
"103 199 OFFCURVE",
"160 154 CURVE SMOOTH",
"178.905 138.876 LINE",
"163.426 112.64 OFFCURVE",
"152 78.136 OFFCURVE",
"152 42 CURVE SMOOTH",
"152 21 LINE",
"236 21 LINE",
"227 100 LINE",
"240 90 LINE SMOOTH",
"273 64 OFFCURVE",
"277 46 OFFCURVE",
"277 13 CURVE SMOOTH",
"277 -138 LINE SMOOTH",
"277 -177 OFFCURVE",
"246 -209 OFFCURVE",
"206 -209 CURVE SMOOTH",
"188 -209 LINE SMOOTH",
"148 -209 OFFCURVE",
"117 -177 OFFCURVE",
"117 -138 CURVE SMOOTH",
"117 44 LINE",
"30 44 LINE",
"30 -128 LINE SMOOTH"
);
},
{
closed = 1;
nodes = (
"167 329 OFFCURVE",
"187 349 OFFCURVE",
"210 349 CURVE SMOOTH",
"232 349 OFFCURVE",
"252 332 OFFCURVE",
"252 300 CURVE SMOOTH",
"252 276 OFFCURVE",
"244 244 OFFCURVE",
"232 225 CURVE SMOOTH",
"221.278 207.577 LINE",
"207 218 LINE SMOOTH",
"174 242 OFFCURVE",
"167 273 OFFCURVE",
"167 302 CURVE SMOOTH"
);
}
);
width = 396;
}
);
unicode = 10E2;
},
{
color = 6;
glyphname = "un-georgian";
lastChange = "2017-03-20 11:20:16 +0000";
layers = (
{
backgroundImage = {
crop = "{{0, 0}, {140, 160}}";
imagePath = "documents-export-2016-06-11/u.png";
locked = "1";
transform = "{33.828, 0, 0, 33.828, -32, -40}";
};
layerId = "6A0E5D42-0D7D-4184-8BD5-EF66FF65863B";
paths = (
{
closed = 1;
nodes = (
"67 351 LINE SMOOTH",
"94 351 OFFCURVE",
"109 336 OFFCURVE",
"109 309 CURVE SMOOTH",
"109 232 LINE",
"196 232 LINE",
"196 309 LINE SMOOTH",
"196 332 OFFCURVE",
"215 351 OFFCURVE",
"239 351 CURVE SMOOTH",
"245 351 LINE SMOOTH",
"268 351 OFFCURVE",
"287 332 OFFCURVE",
"287 309 CURVE SMOOTH",
"287 -157 LINE SMOOTH",
"287 -185 OFFCURVE",
"265 -207 OFFCURVE",
"237 -207 CURVE SMOOTH",
"219 -207 LINE SMOOTH",
"191 -207 OFFCURVE",
"169 -185 OFFCURVE",
"169 -157 CURVE SMOOTH",
"169 -46 LINE",
"82 -46 LINE",
"82 -148 LINE SMOOTH",
"82 -225 OFFCURVE",
"145 -288 OFFCURVE",
"222 -288 CURVE SMOOTH",
"234 -288 LINE SMOOTH",
"311 -288 OFFCURVE",
"374 -225 OFFCURVE",
"374 -148 CURVE SMOOTH",
"374 311 LINE SMOOTH",
"374 378 OFFCURVE",
"320 432 OFFCURVE",
"253 432 CURVE SMOOTH",
"235 432 LINE SMOOTH",
"202 432 OFFCURVE",
"170 420 OFFCURVE",
"153 390 CURVE",
"134 420 OFFCURVE",
"94 432 OFFCURVE",
"61 432 CURVE SMOOTH",
"30 432 LINE",
"30 351 LINE"
);
}
);
width = 405;
}
);
unicode = 10E3;
},
{
color = 6;
glyphname = "phar-georgian";
lastChange = "2017-03-20 11:20:21 +0000";
layers = (
{
backgroundImage = {
crop = "{{0, 0}, {140, 160}}";
imagePath = "documents-export-2016-06-11/f.png";
locked = "1";
transform = "{33.788, 0, 0, 33.788, -19, -30}";
};
layerId = "6A0E5D42-0D7D-4184-8BD5-EF66FF65863B";
paths = (
{
closed = 1;
nodes = (
"30 125 OFFCURVE",
"76 74 OFFCURVE",
"153 74 CURVE SMOOTH",
"230 74 OFFCURVE",
"276 125 OFFCURVE",
"276 192 CURVE SMOOTH",
"276 313 LINE SMOOTH",
"276 333 OFFCURVE",
"292 349 OFFCURVE",
"312 349 CURVE SMOOTH",
"332 349 OFFCURVE",
"348 333 OFFCURVE",
"348 313 CURVE SMOOTH",
"348 192 LINE SMOOTH",
"348 164 OFFCURVE",
"336 142 OFFCURVE",
"308 142 CURVE SMOOTH",
"300 142 LINE",
"300 60 LINE",
"308 60 LINE SMOOTH",
"336 60 OFFCURVE",
"348 38 OFFCURVE",
"348 10 CURVE SMOOTH",
"348 -159 LINE SMOOTH",
"348 -187 OFFCURVE",
"326 -209 OFFCURVE",
"298 -209 CURVE SMOOTH",
"265 -209 LINE SMOOTH",
"237 -209 OFFCURVE",
"215 -187 OFFCURVE",
"215 -159 CURVE SMOOTH",
"215 -92 LINE",
"128 -92 LINE",
"128 -150 LINE SMOOTH",
"128 -227 OFFCURVE",
"191 -290 OFFCURVE",
"268 -290 CURVE SMOOTH",
"295 -290 LINE SMOOTH",
"372 -290 OFFCURVE",
"435 -227 OFFCURVE",
"435 -150 CURVE SMOOTH",
"435 14 LINE SMOOTH",
"435 51 OFFCURVE",
"419 83 OFFCURVE",
"391 101 CURVE",
"419 122 OFFCURVE",
"435 151 OFFCURVE",
"435 188 CURVE SMOOTH",
"435 312 LINE SMOOTH",
"435 379 OFFCURVE",
"394 430 OFFCURVE",
"317 430 CURVE SMOOTH",
"283 430 OFFCURVE",
"250 415 OFFCURVE",
"233 387 CURVE",
"215 415 OFFCURVE",
"182 430 OFFCURVE",
"148 430 CURVE SMOOTH",
"71 430 OFFCURVE",
"30 379 OFFCURVE",
"30 312 CURVE SMOOTH",
"30 192 LINE SMOOTH"
);
},
{
closed = 1;
nodes = (
"117 313 LINE SMOOTH",
"117 333 OFFCURVE",
"133 349 OFFCURVE",
"153 349 CURVE SMOOTH",
"173 349 OFFCURVE",
"189 333 OFFCURVE",
"189 313 CURVE SMOOTH",
"189 191 LINE SMOOTH",
"189 171 OFFCURVE",
"173 155 OFFCURVE",
"153 155 CURVE SMOOTH",
"133 155 OFFCURVE",
"117 171 OFFCURVE",
"117 191 CURVE SMOOTH"
);
}
);
width = 468;
}
);
unicode = 10E4;
},
{
color = 6;
glyphname = "khar-georgian";
lastChange = "2017-03-20 11:20:23 +0000";
layers = (
{
layerId = "6A0E5D42-0D7D-4184-8BD5-EF66FF65863B";
paths = (
{
closed = 1;
nodes = (
"30 -227 OFFCURVE",
"93 -290 OFFCURVE",
"170 -290 CURVE SMOOTH",
"182 -290 LINE SMOOTH",
"259 -290 OFFCURVE",
"322 -227 OFFCURVE",
"322 -150 CURVE SMOOTH",
"322 700 LINE",
"235 700 LINE",
"235 416 LINE",
"213 419 OFFCURVE",
"196 420 OFFCURVE",
"179 420 CURVE SMOOTH",
"173 420 LINE SMOOTH",
"93 420 OFFCURVE",
"40 364 OFFCURVE",
"40 282 CURVE SMOOTH",
"40 250 LINE",
"127 250 LINE",
"127 283 LINE SMOOTH",
"127 318 OFFCURVE",
"146 339 OFFCURVE",
"182 339 CURVE SMOOTH",
"201 339 OFFCURVE",
"216 338 OFFCURVE",
"235 335 CURVE",
"235 -159 LINE SMOOTH",
"235 -187 OFFCURVE",
"213 -209 OFFCURVE",
"185 -209 CURVE SMOOTH",
"167 -209 LINE SMOOTH",
"139 -209 OFFCURVE",
"117 -187 OFFCURVE",
"117 -159 CURVE SMOOTH",
"117 -76 LINE",
"30 -76 LINE",
"30 -150 LINE SMOOTH"
);
}
);
width = 353;
}
);
unicode = 10E5;
},
{
color = 6;
glyphname = "ghan-georgian";
lastChange = "2017-03-20 11:20:27 +0000";
layers = (
{
backgroundImage = {
crop = "{{0, 0}, {140, 160}}";
imagePath = "documents-export-2016-06-11/gh.png";
locked = "1";
transform = "{33.2, 0, 0, 33.2, -10, -32}";
};
layerId = "6A0E5D42-0D7D-4184-8BD5-EF66FF65863B";
paths = (
{
closed = 1;
nodes = (
"52 -65 OFFCURVE",
"79 -67 OFFCURVE",
"100 -76 CURVE SMOOTH",
"182 -109 OFFCURVE",
"345 -198 OFFCURVE",
"345 -280 CURVE",
"432 -280 LINE",
"432 -198 OFFCURVE",
"387 -157 OFFCURVE",
"222 -43 CURVE SMOOTH",
"174 -10 LINE SMOOTH",
"131 20 OFFCURVE",
"128 63 OFFCURVE",
"128 95 CURVE SMOOTH",
"128 313 LINE SMOOTH",
"128 333 OFFCURVE",
"144 349 OFFCURVE",
"164 349 CURVE SMOOTH",
"184 349 OFFCURVE",
"200 333 OFFCURVE",
"200 313 CURVE SMOOTH",
"200 182 LINE",
"287 182 LINE",
"287 313 LINE SMOOTH",
"287 333 OFFCURVE",
"303 349 OFFCURVE",
"323 349 CURVE SMOOTH",
"343 349 OFFCURVE",
"359 333 OFFCURVE",
"359 313 CURVE SMOOTH",
"359 143 LINE",
"446 143 LINE",
"446 312 LINE SMOOTH",
"446 379 OFFCURVE",
"405 430 OFFCURVE",
"328 430 CURVE SMOOTH",
"294 430 OFFCURVE",
"261 415 OFFCURVE",
"244 387 CURVE",
"226 415 OFFCURVE",
"193 430 OFFCURVE",
"159 430 CURVE SMOOTH",
"82 430 OFFCURVE",
"41 379 OFFCURVE",
"41 312 CURVE SMOOTH",
"41 78 LINE SMOOTH",
"41 60 OFFCURVE",
"44 42 OFFCURVE",
"52 24 CURVE",
"30 24 LINE",
"30 -63 LINE"
);
}
);
width = 482;
}
);
unicode = 10E6;
},
{
color = 6;
glyphname = "qar-georgian";
lastChange = "2017-03-20 11:20:29 +0000";
layers = (
{
backgroundImage = {
crop = "{{0, 0}, {140, 160}}";
imagePath = "documents-export-2016-06-11/k copy.png";
locked = "1";
transform = "{33.605, 0, 0, 33.605, 8, -28}";
};
layerId = "6A0E5D42-0D7D-4184-8BD5-EF66FF65863B";
paths = (
{
closed = 1;
nodes = (
"241 228 LINE SMOOTH",
"241 200 OFFCURVE",
"219 178 OFFCURVE",
"191 178 CURVE",
"173 178 LINE",
"145 178 OFFCURVE",
"123 200 OFFCURVE",
"123 228 CURVE SMOOTH",
"123 420 LINE",
"36 420 LINE",
"36 368 OFFCURVE",
"36 263 OFFCURVE",
"36 237 CURVE SMOOTH",
"36 160 OFFCURVE",
"99 97 OFFCURVE",
"176 97 CURVE",
"182 97 LINE",
"210 97 OFFCURVE",
"228 107 OFFCURVE",
"239 114 CURVE",
"241 114 LINE",
"241 -159 LINE SMOOTH",
"241 -187 OFFCURVE",
"219 -209 OFFCURVE",
"191 -209 CURVE SMOOTH",
"167 -209 LINE SMOOTH",
"139 -209 OFFCURVE",
"117 -187 OFFCURVE",
"117 -159 CURVE SMOOTH",
"117 -62 LINE",
"30 -62 LINE",
"30 -150 LINE",
"30 -227 OFFCURVE",
"93 -290 OFFCURVE",
"170 -290 CURVE",
"188 -290 LINE",
"265 -290 OFFCURVE",
"328 -227 OFFCURVE",
"328 -150 CURVE SMOOTH",
"328 420 LINE",
"241 420 LINE"
);
}
);
width = 361;
}
);
unicode = 10E7;
},
{
color = 6;
glyphname = "shin-georgian";
lastChange = "2017-03-20 11:20:32 +0000";
layers = (
{
backgroundImage = {
crop = "{{0, 0}, {140, 160}}";
imagePath = "documents-export-2016-06-11/sh.png";
locked = "1";
transform = "{34.158, 0, 0, 34.158, -9, -31}";
};
layerId = "6A0E5D42-0D7D-4184-8BD5-EF66FF65863B";
paths = (
{
closed = 1;
nodes = (
"67 629 LINE SMOOTH",
"94 629 OFFCURVE",
"109 614 OFFCURVE",
"109 587 CURVE SMOOTH",
"109 510 LINE",
"196 510 LINE",
"196 587 LINE SMOOTH",
"196 610 OFFCURVE",
"215 629 OFFCURVE",
"239 629 CURVE SMOOTH",
"245 629 LINE SMOOTH",
"268 629 OFFCURVE",
"287 610 OFFCURVE",
"287 587 CURVE SMOOTH",
"287 393 LINE",
"285 393 LINE",
"274 400 OFFCURVE",
"256 410 OFFCURVE",
"228 410 CURVE SMOOTH",
"222 410 LINE SMOOTH",
"145 410 OFFCURVE",
"82 347 OFFCURVE",
"82 270 CURVE SMOOTH",
"82 130 LINE SMOOTH",
"82 53 OFFCURVE",
"145 -10 OFFCURVE",
"222 -10 CURVE SMOOTH",
"234 -10 LINE SMOOTH",
"311 -10 OFFCURVE",
"374 53 OFFCURVE",
"374 130 CURVE SMOOTH",
"374 589 LINE SMOOTH",
"374 656 OFFCURVE",
"320 710 OFFCURVE",
"253 710 CURVE SMOOTH",
"235 710 LINE SMOOTH",
"202 710 OFFCURVE",
"169 698 OFFCURVE",
"152 668 CURVE",
"133 698 OFFCURVE",
"94 710 OFFCURVE",
"61 710 CURVE SMOOTH",
"30 710 LINE",
"30 629 LINE"
);
},
{
closed = 1;
nodes = (
"169 279 LINE SMOOTH",
"169 307 OFFCURVE",
"191 329 OFFCURVE",
"219 329 CURVE SMOOTH",
"237 329 LINE SMOOTH",
"265 329 OFFCURVE",
"287 307 OFFCURVE",
"287 279 CURVE SMOOTH",
"287 121 LINE SMOOTH",
"287 93 OFFCURVE",
"265 71 OFFCURVE",
"237 71 CURVE SMOOTH",
"219 71 LINE SMOOTH",
"191 71 OFFCURVE",
"169 93 OFFCURVE",
"169 121 CURVE SMOOTH"
);
}
);
width = 409;
}
);
unicode = 10E8;
},
{
color = 6;
glyphname = "chin-georgian";
lastChange = "2017-03-20 11:20:34 +0000";
layers = (
{
backgroundImage = {
crop = "{{0, 0}, {140, 160}}";
imagePath = "documents-export-2016-06-11/ch.png";
locked = "1";
transform = "{33.752, 0, 0, 33.752, -17, -48}";
};
layerId = "6A0E5D42-0D7D-4184-8BD5-EF66FF65863B";
paths = (
{
closed = 1;
nodes = (
"117 0 LINE",
"117 187 LINE SMOOTH",
"117 215 OFFCURVE",
"139 237 OFFCURVE",
"167 237 CURVE SMOOTH",
"179 237 LINE SMOOTH",
"207 237 OFFCURVE",
"229 215 OFFCURVE",
"229 187 CURVE SMOOTH",
"229 0 LINE",
"316 0 LINE",
"316 178 LINE SMOOTH",
"316 273 OFFCURVE",
"264 318 OFFCURVE",
"187 318 CURVE SMOOTH",
"179 318 LINE SMOOTH",
"154 318 OFFCURVE",
"130 308 OFFCURVE",
"119 301 CURVE",
"117 301 LINE",
"117 348 LINE",
"234 420 OFFCURVE",
"288 500 OFFCURVE",
"288 581 CURVE SMOOTH",
"288 661 OFFCURVE",
"242 710 OFFCURVE",
"171 710 CURVE SMOOTH",
"152 710 LINE SMOOTH",
"75 710 OFFCURVE",
"30 647 OFFCURVE",
"30 570 CURVE SMOOTH",
"30 0 LINE"
);
},
{
closed = 1;
nodes = (
"117 579 LINE SMOOTH",
"117 607 OFFCURVE",
"133 629 OFFCURVE",
"161 629 CURVE SMOOTH",
"192 629 OFFCURVE",
"205 612 OFFCURVE",
"205 579 CURVE SMOOTH",
"205 518 OFFCURVE",
"149 458 OFFCURVE",
"119 444 CURVE",
"117 444 LINE"
);
}
);
width = 351;
}
);
unicode = 10E9;
},
{
color = 6;
glyphname = "can-georgian";
lastChange = "2017-03-20 11:20:36 +0000";
layers = (
{
backgroundImage = {
crop = "{{0, 0}, {140, 160}}";
imagePath = "documents-export-2016-06-11/ts.png";
locked = "1";
transform = "{33.488, 0, 0, 33.488, -13, -40}";
};
layerId = "6A0E5D42-0D7D-4184-8BD5-EF66FF65863B";
paths = (
{
closed = 1;
nodes = (
"30 -224 OFFCURVE",
"96 -290 OFFCURVE",
"177 -290 CURVE SMOOTH",
"201 -290 LINE SMOOTH",
"282 -290 OFFCURVE",
"348 -224 OFFCURVE",
"348 -143 CURVE SMOOTH",
"348 55 LINE SMOOTH",
"348 90 OFFCURVE",
"332 128 OFFCURVE",
"304 146 CURVE",
"332 164 OFFCURVE",
"348 200 OFFCURVE",
"348 237 CURVE SMOOTH",
"348 281 LINE SMOOTH",
"348 326 OFFCURVE",
"334 345 OFFCURVE",
"322 363 CURVE SMOOTH",
"314 375 LINE SMOOTH",
"300 396 OFFCURVE",
"290 411 OFFCURVE",
"290 420 CURVE",
"203 420 LINE",
"203 396 OFFCURVE",
"213 378 OFFCURVE",
"227 357 CURVE SMOOTH",
"235 345 LINE",
"243 333 OFFCURVE",
"261 314 OFFCURVE",
"261 277 CURVE SMOOTH",
"261 236 LINE SMOOTH",
"261 208 OFFCURVE",
"239 186 OFFCURVE",
"211 186 CURVE SMOOTH",
"196 186 LINE",
"196 109 LINE",
"211 109 LINE SMOOTH",
"239 109 OFFCURVE",
"261 87 OFFCURVE",
"261 59 CURVE SMOOTH",
"261 -148 LINE SMOOTH",
"261 -182 OFFCURVE",
"225 -209 OFFCURVE",
"191 -209 CURVE SMOOTH",
"178 -209 LINE SMOOTH",
"144 -209 OFFCURVE",
"117 -182 OFFCURVE",
"117 -148 CURVE SMOOTH",
"117 420 LINE",
"30 420 LINE",
"30 -143 LINE SMOOTH"
);
}
);
width = 379;
}
);
unicode = 10EA;
},
{
color = 6;
glyphname = "jil-georgian";
lastChange = "2017-03-20 11:20:39 +0000";
layers = (
{
backgroundImage = {
crop = "{{0, 0}, {140, 160}}";
imagePath = "documents-export-2016-06-11/dz.png";
locked = "1";
transform = "{33.645, 0, 0, 33.645, -10, -26}";
};
layerId = "6A0E5D42-0D7D-4184-8BD5-EF66FF65863B";
paths = (
{
closed = 1;
nodes = (
"235 700 LINE",
"235 413 LINE",
"233 413 LINE",
"222 420 OFFCURVE",
"204 430 OFFCURVE",
"176 430 CURVE",
"170 430 LINE",
"93 430 OFFCURVE",
"30 367 OFFCURVE",
"30 290 CURVE SMOOTH",
"30 256 OFFCURVE",
"30 212 OFFCURVE",
"30 130 CURVE SMOOTH",
"30 53 OFFCURVE",
"93 -10 OFFCURVE",
"170 -10 CURVE",
"182 -10 LINE",
"259 -10 OFFCURVE",
"322 53 OFFCURVE",
"322 130 CURVE SMOOTH",
"322 700 LINE"
);
},
{
closed = 1;
nodes = (
"117 299 LINE SMOOTH",
"117 327 OFFCURVE",
"139 349 OFFCURVE",
"167 349 CURVE",
"185 349 LINE",
"213 349 OFFCURVE",
"235 327 OFFCURVE",
"235 299 CURVE SMOOTH",
"235 121 LINE SMOOTH",
"235 93 OFFCURVE",
"213 71 OFFCURVE",
"185 71 CURVE",
"167 71 LINE",
"139 71 OFFCURVE",
"117 93 OFFCURVE",
"117 121 CURVE SMOOTH"
);
}
);
width = 354;
}
);
unicode = 10EB;
},
{
color = 6;
glyphname = "cil-georgian";
lastChange = "2017-03-20 11:20:43 +0000";
layers = (
{
backgroundImage = {
crop = "{{0, 0}, {140, 160}}";
imagePath = "documents-export-2016-06-11/tss.png";
locked = "1";
transform = "{34.134, 0, 0, 34.134, 5, -53}";
};
layerId = "6A0E5D42-0D7D-4184-8BD5-EF66FF65863B";
paths = (
{
closed = 1;
nodes = (
"374 710 LINE",
"343 710 LINE SMOOTH",
"310 710 OFFCURVE",
"271 698 OFFCURVE",
"252 668 CURVE",
"235 698 OFFCURVE",
"202 710 OFFCURVE",
"169 710 CURVE SMOOTH",
"151 710 LINE SMOOTH",
"84 710 OFFCURVE",
"30 656 OFFCURVE",
"30 589 CURVE SMOOTH",
"30 130 LINE SMOOTH",
"30 53 OFFCURVE",
"93 -10 OFFCURVE",
"170 -10 CURVE SMOOTH",
"182 -10 LINE SMOOTH",
"259 -10 OFFCURVE",
"322 53 OFFCURVE",
"322 130 CURVE SMOOTH",
"322 270 LINE SMOOTH",
"322 347 OFFCURVE",
"259 410 OFFCURVE",
"182 410 CURVE SMOOTH",
"176 410 LINE SMOOTH",
"148 410 OFFCURVE",
"130 400 OFFCURVE",
"119 393 CURVE",
"117 393 LINE",
"117 587 LINE SMOOTH",
"117 610 OFFCURVE",
"136 629 OFFCURVE",
"159 629 CURVE SMOOTH",
"165 629 LINE SMOOTH",
"189 629 OFFCURVE",
"208 610 OFFCURVE",
"208 587 CURVE SMOOTH",
"208 510 LINE",
"295 510 LINE",
"295 587 LINE SMOOTH",
"295 614 OFFCURVE",
"310 629 OFFCURVE",
"337 629 CURVE SMOOTH",
"374 629 LINE"
);
},
{
closed = 1;
nodes = (
"235 93 OFFCURVE",
"213 71 OFFCURVE",
"185 71 CURVE SMOOTH",
"167 71 LINE SMOOTH",
"139 71 OFFCURVE",
"117 93 OFFCURVE",
"117 121 CURVE SMOOTH",
"117 279 LINE SMOOTH",
"117 307 OFFCURVE",
"139 329 OFFCURVE",
"167 329 CURVE SMOOTH",
"185 329 LINE SMOOTH",
"213 329 OFFCURVE",
"235 307 OFFCURVE",
"235 279 CURVE SMOOTH",
"235 121 LINE SMOOTH"
);
}
);
width = 414;
},
{
associatedMasterId = "6A0E5D42-0D7D-4184-8BD5-EF66FF65863B";
backgroundImage = {
crop = "{{0, 0}, {11.88, 23.814}}";
imagePath = "documents-export-2016-06-11/tss.png";
locked = "1";
transform = "{34.134, 0, 0, 34.134, -21, -53}";
};
layerId = "188A8878-9562-4E53-A6BF-F39A710CE752";
name = "Sep 2 16, 18:40";
paths = (
{
closed = 1;
nodes = (
"5 53 OFFCURVE",
"68 -10 OFFCURVE",
"145 -10 CURVE SMOOTH",
"175 -10 LINE SMOOTH",
"252 -10 OFFCURVE",
"315 53 OFFCURVE",
"315 130 CURVE SMOOTH",
"315 254 LINE SMOOTH",
"315 331 OFFCURVE",
"252 394 OFFCURVE",
"175 394 CURVE SMOOTH",
"169 394 LINE SMOOTH",
"141 394 OFFCURVE",
"114 384 OFFCURVE",
"103 377 CURVE",
"101 377 LINE",
"101 578 LINE SMOOTH",
"101 601 OFFCURVE",
"120 620 OFFCURVE",
"143 620 CURVE SMOOTH",
"149 620 LINE SMOOTH",
"173 620 OFFCURVE",
"192 601 OFFCURVE",
"192 578 CURVE SMOOTH",
"192 510 LINE",
"288 510 LINE",
"288 578 LINE SMOOTH",
"288 601 OFFCURVE",
"307 620 OFFCURVE",
"330 620 CURVE SMOOTH",
"360 620 LINE",
"360 710 LINE",
"312 710 LINE SMOOTH",
"279 710 OFFCURVE",
"253 701 OFFCURVE",
"232 677 CURVE",
"211 701 OFFCURVE",
"182 710 OFFCURVE",
"147 710 CURVE SMOOTH",
"126 710 LINE SMOOTH",
"59 710 OFFCURVE",
"5 656 OFFCURVE",
"5 589 CURVE SMOOTH",
"5 130 LINE SMOOTH"
);
},
{
closed = 1;
nodes = (
"101 254 LINE SMOOTH",
"101 282 OFFCURVE",
"123 304 OFFCURVE",
"151 304 CURVE SMOOTH",
"169 304 LINE SMOOTH",
"197 304 OFFCURVE",
"219 282 OFFCURVE",
"219 254 CURVE SMOOTH",
"219 130 LINE SMOOTH",
"219 102 OFFCURVE",
"197 80 OFFCURVE",
"169 80 CURVE SMOOTH",
"151 80 LINE SMOOTH",
"123 80 OFFCURVE",
"101 102 OFFCURVE",
"101 130 CURVE SMOOTH"
);
}
);
width = 380;
}
);
unicode = 10EC;
},
{
color = 6;
glyphname = "char-georgian";
lastChange = "2017-03-20 11:20:46 +0000";
layers = (
{
backgroundImage = {
crop = "{{0, 0}, {140, 160}}";
imagePath = "documents-export-2016-06-11/tch.png";
locked = "1";
transform = "{33.743, 0, 0, 33.743, 14, -46}";
};
layerId = "6A0E5D42-0D7D-4184-8BD5-EF66FF65863B";
paths = (
{
closed = 1;
nodes = (
"30 -224 OFFCURVE",
"96 -290 OFFCURVE",
"177 -290 CURVE SMOOTH",
"187 -290 LINE SMOOTH",
"268 -290 OFFCURVE",
"334 -224 OFFCURVE",
"334 -143 CURVE SMOOTH",
"334 61 LINE",
"352 76 LINE",
"362 56 OFFCURVE",
"368 35 OFFCURVE",
"368 14 CURVE",
"452 14 LINE",
"452 57 OFFCURVE",
"430 101 OFFCURVE",
"399 140 CURVE",
"430 182 OFFCURVE",
"452 228 OFFCURVE",
"452 271 CURVE",
"368 271 LINE",
"368 249 OFFCURVE",
"361 224 OFFCURVE",
"349 200 CURVE",
"334 212 LINE",
"334 700 LINE",
"247 700 LINE",
"247 263 LINE",
"228 270 OFFCURVE",
"216 275 OFFCURVE",
"198 275 CURVE SMOOTH",
"194 275 OFFCURVE",
"191 276 OFFCURVE",
"187 276 CURVE SMOOTH",
"185 276 OFFCURVE",
"185 276 OFFCURVE",
"184 276 CURVE SMOOTH",
"111 276 OFFCURVE",
"52 212 OFFCURVE",
"52 139 CURVE SMOOTH",
"52 125 LINE SMOOTH",
"52 53 OFFCURVE",
"111 -11 OFFCURVE",
"184 -11 CURVE SMOOTH",
"185 -11 OFFCURVE",
"185 -11 OFFCURVE",
"186 -11 CURVE SMOOTH",
"194 -11 OFFCURVE",
"202 -10 OFFCURVE",
"210 -9 CURVE SMOOTH",
"224 -7 OFFCURVE",
"232 -3 OFFCURVE",
"247 3 CURVE",
"247 -148 LINE SMOOTH",
"247 -182 OFFCURVE",
"220 -209 OFFCURVE",
"186 -209 CURVE SMOOTH",
"178 -209 LINE SMOOTH",
"144 -209 OFFCURVE",
"117 -182 OFFCURVE",
"117 -148 CURVE SMOOTH",
"117 -116 LINE",
"30 -116 LINE",
"30 -143 LINE SMOOTH"
);
},
{
closed = 1;
nodes = (
"129 169 OFFCURVE",
"158 200 OFFCURVE",
"194 200 CURVE SMOOTH",
"211 200 OFFCURVE",
"229 195 OFFCURVE",
"247 188 CURVE",
"247 80 LINE",
"229 70 OFFCURVE",
"211 65 OFFCURVE",
"194 65 CURVE SMOOTH",
"158 65 OFFCURVE",
"129 96 OFFCURVE",
"129 133 CURVE SMOOTH"
);
}
);
width = 484;
}
);
unicode = 10ED;
},
{
color = 6;
glyphname = "xan-georgian";
lastChange = "2017-03-20 11:20:57 +0000";
layers = (
{
backgroundImage = {
crop = "{{0, 0}, {140, 160}}";
imagePath = "documents-export-2016-06-11/x";
locked = "1";
transform = "{34.069, 0, 0, 34.069, -4, -29}";
};
layerId = "6A0E5D42-0D7D-4184-8BD5-EF66FF65863B";
paths = (
{
closed = 1;
nodes = (
"30 130 LINE SMOOTH",
"30 53 OFFCURVE",
"93 -10 OFFCURVE",
"170 -10 CURVE",
"182 -10 LINE",
"259 -10 OFFCURVE",
"322 53 OFFCURVE",
"322 130 CURVE SMOOTH",
"322 212 OFFCURVE",
"322 256 OFFCURVE",
"322 290 CURVE SMOOTH",
"322 367 OFFCURVE",
"259 430 OFFCURVE",
"182 430 CURVE",
"176 430 LINE",
"148 430 OFFCURVE",
"130 420 OFFCURVE",
"119 413 CURVE",
"117 413 LINE",
"117 700 LINE",
"30 700 LINE"
);
},
{
closed = 1;
nodes = (
"235 93 OFFCURVE",
"213 71 OFFCURVE",
"185 71 CURVE",
"167 71 LINE",
"139 71 OFFCURVE",
"117 93 OFFCURVE",
"117 121 CURVE SMOOTH",
"117 299 LINE SMOOTH",
"117 327 OFFCURVE",
"139 349 OFFCURVE",
"167 349 CURVE",
"185 349 LINE",
"213 349 OFFCURVE",
"235 327 OFFCURVE",
"235 299 CURVE SMOOTH",
"235 121 LINE SMOOTH"
);
}
);
width = 356;
}
);
unicode = 10EE;
},
{
color = 6;
glyphname = "jhan-georgian";
lastChange = "2017-03-20 11:21:01 +0000";
layers = (
{
backgroundImage = {
crop = "{{0, 0}, {140, 160}}";
imagePath = "documents-export-2016-06-11/jh.png";
locked = "1";
transform = "{33.569, 0, 0, 33.569, -32, -68}";
};
guideLines = (
{
position = "{629, 710}";
}
);
layerId = "6A0E5D42-0D7D-4184-8BD5-EF66FF65863B";
paths = (
{
closed = 1;
nodes = (
"73 307 OFFCURVE",
"75 294 OFFCURVE",
"80 280 CURVE SMOOTH",
"94 242 LINE",
"168 269 LINE",
"156 303 OFFCURVE",
"153 311 OFFCURVE",
"153 317 CURVE SMOOTH",
"153 331 OFFCURVE",
"164 345 OFFCURVE",
"179 344 CURVE SMOOTH",
"190 343 OFFCURVE",
"202 337 OFFCURVE",
"206 326 CURVE SMOOTH",
"402 -218 LINE SMOOTH",
"418 -261 OFFCURVE",
"462 -287 OFFCURVE",
"504 -287 CURVE SMOOTH",
"517 -287 OFFCURVE",
"530 -286 OFFCURVE",
"544 -280 CURVE SMOOTH",
"584 -263 OFFCURVE",
"614 -233 OFFCURVE",
"614 -190 CURVE SMOOTH",
"614 -178 OFFCURVE",
"611 -158 OFFCURVE",
"606 -144 CURVE SMOOTH",
"591 -106 LINE",
"517 -134 LINE",
"531 -172 LINE",
"532 -175 OFFCURVE",
"532 -178 OFFCURVE",
"532 -182 CURVE SMOOTH",
"532 -196 OFFCURVE",
"522 -208 OFFCURVE",
"506 -208 CURVE SMOOTH",
"495 -208 OFFCURVE",
"484 -202 OFFCURVE",
"480 -190 CURVE SMOOTH",
"285 354 LINE SMOOTH",
"270 395 OFFCURVE",
"223 423 OFFCURVE",
"181 423 CURVE SMOOTH",
"168 423 OFFCURVE",
"154 421 OFFCURVE",
"142 417 CURVE SMOOTH",
"99 403 OFFCURVE",
"73 362 OFFCURVE",
"73 320 CURVE SMOOTH"
);
},
{
closed = 1;
nodes = (
"64 -265 LINE SMOOTH",
"90 -289 OFFCURVE",
"113 -290 OFFCURVE",
"136 -289 CURVE SMOOTH",
"196 -286 OFFCURVE",
"249 -236 OFFCURVE",
"246 -174 CURVE SMOOTH",
"245 -150 OFFCURVE",
"232 -128 OFFCURVE",
"217 -109 CURVE",
"551 243 LINE SMOOTH",
"572 265 OFFCURVE",
"584 287 OFFCURVE",
"581 322 CURVE SMOOTH",
"579 349 OFFCURVE",
"567 377 OFFCURVE",
"549 394 CURVE SMOOTH",
"526 415 OFFCURVE",
"498 423 OFFCURVE",
"470 422 CURVE SMOOTH",
"443 421 OFFCURVE",
"418 411 OFFCURVE",
"399 391 CURVE SMOOTH",
"371 361 LINE",
"427 306 LINE",
"448 326 OFFCURVE",
"456 338 OFFCURVE",
"474 342 CURVE SMOOTH",
"501 348 OFFCURVE",
"516 318 OFFCURVE",
"495 296 CURVE SMOOTH",
"113 -106 LINE",
"158 -153 LINE SMOOTH",
"164 -159 OFFCURVE",
"167 -167 OFFCURVE",
"168 -176 CURVE SMOOTH",
"170 -196 OFFCURVE",
"153 -214 OFFCURVE",
"133 -214 CURVE SMOOTH",
"124 -214 OFFCURVE",
"117 -213 OFFCURVE",
"108 -205 CURVE SMOOTH",
"81 -181 LINE",
"30 -234 LINE"
);
}
);
width = 647;
}
);
unicode = 10EF;
},
{
color = 6;
glyphname = "hae-georgian";
lastChange = "2017-03-20 11:21:04 +0000";
layers = (
{
backgroundImage = {
crop = "{{0, 0}, {140, 160}}";
imagePath = "documents-export-2016-06-11/h.png";
locked = "1";
transform = "{33.723, 0, 0, 33.723, 12, -33}";
};
layerId = "6A0E5D42-0D7D-4184-8BD5-EF66FF65863B";
paths = (
{
closed = 1;
nodes = (
"30 66 OFFCURVE",
"106 -10 OFFCURVE",
"200 -10 CURVE SMOOTH",
"294 -10 OFFCURVE",
"361 66 OFFCURVE",
"361 160 CURVE SMOOTH",
"361 209 OFFCURVE",
"351 256 OFFCURVE",
"306 287 CURVE",
"339 307 OFFCURVE",
"361 338 OFFCURVE",
"361 381 CURVE SMOOTH",
"361 424 OFFCURVE",
"338 454 OFFCURVE",
"304 471 CURVE",
"336 491 OFFCURVE",
"361 522 OFFCURVE",
"361 565 CURVE SMOOTH",
"361 609 OFFCURVE",
"337 631 OFFCURVE",
"302 651 CURVE SMOOTH",
"263 673 LINE SMOOTH",
"246 682 OFFCURVE",
"237 692 OFFCURVE",
"233 700 CURVE",
"146 700 LINE",
"146 670 OFFCURVE",
"155 652 OFFCURVE",
"198 629 CURVE SMOOTH",
"240 606 LINE SMOOTH",
"253 599 OFFCURVE",
"274 590 OFFCURVE",
"274 563 CURVE SMOOTH",
"274 536 OFFCURVE",
"253 519 OFFCURVE",
"226 519 CURVE SMOOTH",
"183 519 LINE",
"183 432 LINE",
"226 432 LINE SMOOTH",
"253 432 OFFCURVE",
"274 409 OFFCURVE",
"274 382 CURVE SMOOTH",
"274 355 OFFCURVE",
"253 334 OFFCURVE",
"226 334 CURVE SMOOTH",
"183 334 LINE",
"183 247 LINE",
"200 247 LINE SMOOTH",
"241 247 OFFCURVE",
"274 214 OFFCURVE",
"274 173 CURVE SMOOTH",
"274 148 LINE SMOOTH",
"274 107 OFFCURVE",
"241 71 OFFCURVE",
"200 71 CURVE SMOOTH",
"159 71 OFFCURVE",
"126 104 OFFCURVE",
"126 145 CURVE SMOOTH",
"126 174 LINE",
"30 174 LINE",
"30 160 LINE SMOOTH"
);
}
);
width = 394;
}
);
unicode = 10F0;
},
{
color = 6;
glyphname = "he-georgian";
lastChange = "2017-03-20 11:21:06 +0000";
layers = (
{
layerId = "6A0E5D42-0D7D-4184-8BD5-EF66FF65863B";
paths = (
{
closed = 1;
nodes = (
"30 -213 OFFCURVE",
"103 -289 OFFCURVE",
"197 -289 CURVE SMOOTH",
"203 -289 LINE SMOOTH",
"297 -289 OFFCURVE",
"364 -211 OFFCURVE",
"364 -117 CURVE SMOOTH",
"364 -68 OFFCURVE",
"348 -26 OFFCURVE",
"315 5 CURVE",
"346 26 OFFCURVE",
"362 56 OFFCURVE",
"362 97 CURVE SMOOTH",
"362 99 LINE SMOOTH",
"362 137 OFFCURVE",
"337 173 OFFCURVE",
"313 189 CURVE",
"337 209 OFFCURVE",
"362 240 OFFCURVE",
"362 282 CURVE SMOOTH",
"362 284 LINE SMOOTH",
"362 323 OFFCURVE",
"342 357 OFFCURVE",
"307 377 CURVE SMOOTH",
"284 390 LINE SMOOTH",
"267 400 OFFCURVE",
"255 411 OFFCURVE",
"255 421 CURVE",
"168 421 LINE",
"168 391 OFFCURVE",
"175 362 OFFCURVE",
"216 342 CURVE SMOOTH",
"263 319 LINE SMOOTH",
"277 312 OFFCURVE",
"283 301 OFFCURVE",
"283 283 CURVE SMOOTH",
"283 256 OFFCURVE",
"262 238 OFFCURVE",
"235 238 CURVE SMOOTH",
"192 238 LINE",
"192 153 LINE",
"235 153 LINE SMOOTH",
"262 153 OFFCURVE",
"283 130 OFFCURVE",
"283 103 CURVE SMOOTH",
"283 76 OFFCURVE",
"262 55 OFFCURVE",
"235 55 CURVE SMOOTH",
"192 55 LINE",
"192 -30 LINE",
"209 -30 LINE SMOOTH",
"250 -30 OFFCURVE",
"283 -63 OFFCURVE",
"283 -109 CURVE SMOOTH",
"283 -137 LINE SMOOTH",
"283 -178 OFFCURVE",
"244 -208 OFFCURVE",
"203 -208 CURVE SMOOTH",
"197 -208 LINE SMOOTH",
"156 -208 OFFCURVE",
"117 -178 OFFCURVE",
"117 -137 CURVE SMOOTH",
"117 421 LINE",
"30 421 LINE",
"30 -119 LINE SMOOTH"
);
}
);
width = 396;
}
);
unicode = 10F1;
},
{
color = 6;
glyphname = "hie-georgian";
lastChange = "2017-03-20 11:21:08 +0000";
layers = (
{
layerId = "6A0E5D42-0D7D-4184-8BD5-EF66FF65863B";
paths = (
{
closed = 1;
nodes = (
"48 0 LINE SMOOTH",
"86 0 OFFCURVE",
"139 17 OFFCURVE",
"179 53 CURVE",
"219 17 OFFCURVE",
"272 0 OFFCURVE",
"310 0 CURVE SMOOTH",
"328 0 LINE",
"328 81 LINE",
"316 81 LINE SMOOTH",
"291 81 OFFCURVE",
"267 83 OFFCURVE",
"244 89 CURVE",
"291 129 OFFCURVE",
"325 187 OFFCURVE",
"325 263 CURVE SMOOTH",
"325 290 LINE SMOOTH",
"325 375 OFFCURVE",
"262 430 OFFCURVE",
"185 430 CURVE SMOOTH",
"173 430 LINE SMOOTH",
"96 430 OFFCURVE",
"33 366 OFFCURVE",
"33 287 CURVE SMOOTH",
"33 263 LINE SMOOTH",
"33 187 OFFCURVE",
"67 129 OFFCURVE",
"114 89 CURVE",
"91 83 OFFCURVE",
"67 81 OFFCURVE",
"42 81 CURVE SMOOTH",
"30 81 LINE",
"30 0 LINE"
);
},
{
closed = 1;
nodes = (
"120 302 LINE SMOOTH",
"120 330 OFFCURVE",
"142 350 OFFCURVE",
"170 350 CURVE SMOOTH",
"188 350 LINE SMOOTH",
"216 350 OFFCURVE",
"238 330 OFFCURVE",
"238 302 CURVE SMOOTH",
"238 232 LINE SMOOTH",
"238 173 OFFCURVE",
"215 141 OFFCURVE",
"179 120 CURVE",
"143 141 OFFCURVE",
"120 174 OFFCURVE",
"120 232 CURVE SMOOTH"
);
}
);
width = 359;
}
);
unicode = 10F2;
},
{
color = 6;
glyphname = "we-georgian";
lastChange = "2017-03-20 11:21:11 +0000";
layers = (
{
layerId = "6A0E5D42-0D7D-4184-8BD5-EF66FF65863B";
paths = (
{
closed = 1;
nodes = (
"30 -227 OFFCURVE",
"93 -290 OFFCURVE",
"170 -290 CURVE SMOOTH",
"191 -290 LINE SMOOTH",
"268 -290 OFFCURVE",
"322 -227 OFFCURVE",
"322 -150 CURVE SMOOTH",
"322 12 LINE SMOOTH",
"322 49 OFFCURVE",
"306 84 OFFCURVE",
"278 102 CURVE",
"306 120 OFFCURVE",
"322 154 OFFCURVE",
"322 191 CURVE",
"322 420 LINE",
"39 420 LINE",
"39 260 LINE",
"126 260 LINE",
"126 340 LINE",
"235 340 LINE",
"235 195 LINE",
"235 167 OFFCURVE",
"213 142 OFFCURVE",
"185 142 CURVE SMOOTH",
"159 142 LINE",
"159 61 LINE",
"185 61 LINE SMOOTH",
"213 61 OFFCURVE",
"235 36 OFFCURVE",
"235 8 CURVE SMOOTH",
"235 -159 LINE SMOOTH",
"235 -187 OFFCURVE",
"213 -209 OFFCURVE",
"185 -209 CURVE SMOOTH",
"167 -209 LINE SMOOTH",
"139 -209 OFFCURVE",
"117 -187 OFFCURVE",
"117 -159 CURVE SMOOTH",
"117 -30 LINE",
"30 -30 LINE",
"30 -150 LINE SMOOTH"
);
}
);
width = 352;
}
);
unicode = 10F3;
},
{
color = 6;
glyphname = "har-georgian";
lastChange = "2017-03-20 11:21:14 +0000";
layers = (
{
layerId = "6A0E5D42-0D7D-4184-8BD5-EF66FF65863B";
paths = (
{
closed = 1;
nodes = (
"30 490 OFFCURVE",
"94 437 OFFCURVE",
"170 437 CURVE SMOOTH",
"245 437 LINE",
"245 396 LINE SMOOTH",
"245 368 OFFCURVE",
"223 334 OFFCURVE",
"195 334 CURVE SMOOTH",
"169 334 LINE",
"169 252 LINE",
"195 252 LINE SMOOTH",
"223 252 OFFCURVE",
"245 225 OFFCURVE",
"245 197 CURVE SMOOTH",
"245 121 LINE SMOOTH",
"245 93 OFFCURVE",
"223 71 OFFCURVE",
"195 71 CURVE SMOOTH",
"177 71 LINE SMOOTH",
"149 71 OFFCURVE",
"127 93 OFFCURVE",
"127 121 CURVE SMOOTH",
"127 181 LINE",
"41 181 LINE",
"41 131 LINE SMOOTH",
"41 54 OFFCURVE",
"104 -9 OFFCURVE",
"181 -9 CURVE SMOOTH",
"192 -9 LINE SMOOTH",
"269 -9 OFFCURVE",
"332 54 OFFCURVE",
"332 131 CURVE SMOOTH",
"332 201 LINE SMOOTH",
"332 238 OFFCURVE",
"317 274 OFFCURVE",
"289 292 CURVE",
"317 310 OFFCURVE",
"332 346 OFFCURVE",
"332 383 CURVE SMOOTH",
"332 524 LINE",
"161 524 LINE SMOOTH",
"133 524 OFFCURVE",
"111 545 OFFCURVE",
"111 568 CURVE SMOOTH",
"111 596 OFFCURVE",
"133 613 OFFCURVE",
"161 613 CURVE SMOOTH",
"244 613 LINE",
"244 700 LINE",
"170 700 LINE SMOOTH",
"93 700 OFFCURVE",
"30 646 OFFCURVE",
"30 568 CURVE SMOOTH"
);
}
);
width = 366;
}
);
unicode = 10F4;
},
{
color = 6;
glyphname = "hoe-georgian";
lastChange = "2017-03-20 11:21:16 +0000";
layers = (
{
layerId = "6A0E5D42-0D7D-4184-8BD5-EF66FF65863B";
paths = (
{
closed = 1;
nodes = (
"30 528 LINE SMOOTH",
"30 451 OFFCURVE",
"93 388 OFFCURVE",
"170 388 CURVE SMOOTH",
"235 388 LINE",
"235 312 LINE",
"170 312 LINE SMOOTH",
"93 312 OFFCURVE",
"30 249 OFFCURVE",
"30 172 CURVE SMOOTH",
"30 130 LINE SMOOTH",
"30 53 OFFCURVE",
"93 -10 OFFCURVE",
"170 -10 CURVE SMOOTH",
"182 -10 LINE SMOOTH",
"259 -10 OFFCURVE",
"322 53 OFFCURVE",
"322 130 CURVE SMOOTH",
"322 231 LINE",
"368 231 LINE",
"368 312 LINE",
"322 312 LINE",
"322 388 LINE",
"368 388 LINE",
"368 469 LINE",
"322 469 LINE",
"322 570 LINE SMOOTH",
"322 647 OFFCURVE",
"259 710 OFFCURVE",
"182 710 CURVE SMOOTH",
"170 710 LINE SMOOTH",
"93 710 OFFCURVE",
"30 647 OFFCURVE",
"30 570 CURVE SMOOTH"
);
},
{
closed = 1;
nodes = (
"117 607 OFFCURVE",
"139 629 OFFCURVE",
"167 629 CURVE SMOOTH",
"185 629 LINE SMOOTH",
"213 629 OFFCURVE",
"235 607 OFFCURVE",
"235 579 CURVE SMOOTH",
"235 469 LINE",
"164 469 LINE SMOOTH",
"138 469 OFFCURVE",
"117 492 OFFCURVE",
"117 519 CURVE SMOOTH",
"117 579 LINE SMOOTH"
);
},
{
closed = 1;
nodes = (
"117 208 OFFCURVE",
"138 231 OFFCURVE",
"164 231 CURVE SMOOTH",
"235 231 LINE",
"235 121 LINE SMOOTH",
"235 93 OFFCURVE",
"213 71 OFFCURVE",
"185 71 CURVE SMOOTH",
"167 71 LINE SMOOTH",
"139 71 OFFCURVE",
"117 93 OFFCURVE",
"117 121 CURVE SMOOTH",
"117 181 LINE SMOOTH"
);
}
);
width = 403;
}
);
unicode = 10F5;
},
{
color = 6;
glyphname = "fi-georgian";
lastChange = "2017-03-20 11:21:18 +0000";
layers = (
{
layerId = "6A0E5D42-0D7D-4184-8BD5-EF66FF65863B";
paths = (
{
closed = 1;
nodes = (
"30 241 OFFCURVE",
"93 178 OFFCURVE",
"170 178 CURVE SMOOTH",
"258 178 LINE",
"258 0 LINE",
"345 0 LINE",
"345 178 LINE",
"433 178 LINE SMOOTH",
"510 178 OFFCURVE",
"573 241 OFFCURVE",
"573 318 CURVE SMOOTH",
"573 382 LINE SMOOTH",
"573 459 OFFCURVE",
"510 522 OFFCURVE",
"433 522 CURVE SMOOTH",
"345 522 LINE",
"345 700 LINE",
"258 700 LINE",
"258 522 LINE",
"170 522 LINE SMOOTH",
"93 522 OFFCURVE",
"30 459 OFFCURVE",
"30 382 CURVE SMOOTH",
"30 318 LINE SMOOTH"
);
},
{
closed = 1;
nodes = (
"111 385 LINE SMOOTH",
"111 413 OFFCURVE",
"133 435 OFFCURVE",
"161 435 CURVE SMOOTH",
"258 435 LINE",
"258 264 LINE",
"161 264 LINE SMOOTH",
"133 264 OFFCURVE",
"111 286 OFFCURVE",
"111 314 CURVE SMOOTH"
);
},
{
closed = 1;
nodes = (
"345 435 LINE",
"442 435 LINE SMOOTH",
"470 435 OFFCURVE",
"492 413 OFFCURVE",
"492 385 CURVE SMOOTH",
"492 315 LINE SMOOTH",
"492 287 OFFCURVE",
"470 265 OFFCURVE",
"442 265 CURVE SMOOTH",
"345 265 LINE"
);
}
);
width = 606;
}
);
unicode = 10F6;
},
{
color = 6;
glyphname = "yn-georgian";
lastChange = "2017-03-20 11:21:21 +0000";
layers = (
{
layerId = "6A0E5D42-0D7D-4184-8BD5-EF66FF65863B";
paths = (
{
closed = 1;
nodes = (
"235 159 LINE",
"235 121 LINE SMOOTH",
"235 93 OFFCURVE",
"213 71 OFFCURVE",
"185 71 CURVE SMOOTH",
"167 71 LINE SMOOTH",
"139 71 OFFCURVE",
"117 93 OFFCURVE",
"117 121 CURVE SMOOTH",
"117 221 LINE SMOOTH",
"117 271 OFFCURVE",
"147 307 OFFCURVE",
"167 324 CURVE SMOOTH",
"279 419 OFFCURVE",
"284 460 OFFCURVE",
"284 570 CURVE SMOOTH",
"284 650 OFFCURVE",
"247 710 OFFCURVE",
"159 710 CURVE SMOOTH",
"71 710 OFFCURVE",
"34 650 OFFCURVE",
"34 570 CURVE SMOOTH",
"34 553 LINE",
"121 553 LINE",
"121 571 LINE SMOOTH",
"121 600 OFFCURVE",
"130 620 OFFCURVE",
"157 620 CURVE SMOOTH",
"161 620 LINE SMOOTH",
"188 620 OFFCURVE",
"197 600 OFFCURVE",
"197 569 CURVE SMOOTH",
"197 557 OFFCURVE",
"198 544 OFFCURVE",
"198 530 CURVE SMOOTH",
"198 496 OFFCURVE",
"192 454 OFFCURVE",
"147 416 CURVE SMOOTH",
"81 360 OFFCURVE",
"30 319 OFFCURVE",
"30 204 CURVE SMOOTH",
"30 130 LINE SMOOTH",
"30 53 OFFCURVE",
"93 -10 OFFCURVE",
"170 -10 CURVE SMOOTH",
"182 -10 LINE SMOOTH",
"259 -10 OFFCURVE",
"322 53 OFFCURVE",
"322 130 CURVE SMOOTH",
"322 159 LINE"
);
}
);
width = 352;
}
);
unicode = 10F7;
},
{
color = 6;
glyphname = "elifi-georgian";
lastChange = "2017-03-20 11:21:23 +0000";
layers = (
{
layerId = "6A0E5D42-0D7D-4184-8BD5-EF66FF65863B";
paths = (
{
closed = 1;
nodes = (
"30 700 LINE",
"30 130 LINE SMOOTH",
"30 53 OFFCURVE",
"93 -10 OFFCURVE",
"170 -10 CURVE",
"188 -10 LINE",
"265 -10 OFFCURVE",
"328 53 OFFCURVE",
"328 130 CURVE",
"328 218 LINE",
"241 218 LINE",
"241 121 LINE SMOOTH",
"241 93 OFFCURVE",
"219 71 OFFCURVE",
"191 71 CURVE SMOOTH",
"167 71 LINE SMOOTH",
"139 71 OFFCURVE",
"117 93 OFFCURVE",
"117 121 CURVE SMOOTH",
"117 394 LINE",
"119 394 LINE",
"130 387 OFFCURVE",
"148 377 OFFCURVE",
"176 377 CURVE",
"182 377 LINE",
"259 377 OFFCURVE",
"322 440 OFFCURVE",
"322 517 CURVE SMOOTH",
"322 543 OFFCURVE",
"322 648 OFFCURVE",
"322 700 CURVE",
"235 700 LINE",
"235 508 LINE SMOOTH",
"235 480 OFFCURVE",
"213 458 OFFCURVE",
"185 458 CURVE",
"167 458 LINE",
"139 458 OFFCURVE",
"117 480 OFFCURVE",
"117 508 CURVE SMOOTH",
"117 700 LINE"
);
}
);
width = 359;
}
);
unicode = 10F8;
},
{
color = 6;
glyphname = "turnedgan-georgian";
lastChange = "2017-03-20 11:21:25 +0000";
layers = (
{
layerId = "6A0E5D42-0D7D-4184-8BD5-EF66FF65863B";
paths = (
{
closed = 1;
nodes = (
"30 350.711 OFFCURVE",
"68 300 OFFCURVE",
"120 279 CURVE",
"86 226 OFFCURVE",
"67 180.049 OFFCURVE",
"67 130 CURVE SMOOTH",
"67 50 OFFCURVE",
"104 -10 OFFCURVE",
"192 -10 CURVE SMOOTH",
"280 -10 OFFCURVE",
"317 50 OFFCURVE",
"317 130 CURVE SMOOTH",
"317 147 LINE",
"230 147 LINE",
"230 120 LINE SMOOTH",
"230 91 OFFCURVE",
"221 71 OFFCURVE",
"194 71 CURVE SMOOTH",
"190 71 LINE SMOOTH",
"163 71 OFFCURVE",
"154 91 OFFCURVE",
"154 122 CURVE SMOOTH",
"154 161.122 OFFCURVE",
"163.105 215.143 OFFCURVE",
"204.662 272.014 CURVE",
"270.498 283.341 OFFCURVE",
"321 341.059 OFFCURVE",
"321 410 CURVE SMOOTH",
"321 570 LINE SMOOTH",
"321 647 OFFCURVE",
"258 710 OFFCURVE",
"181 710 CURVE SMOOTH",
"170 710 LINE SMOOTH",
"93 710 OFFCURVE",
"30 647 OFFCURVE",
"30 570 CURVE SMOOTH",
"30 410 LINE SMOOTH"
);
},
{
closed = 1;
nodes = (
"116 579 LINE SMOOTH",
"116 607 OFFCURVE",
"138 629 OFFCURVE",
"166 629 CURVE SMOOTH",
"184 629 LINE SMOOTH",
"212 629 OFFCURVE",
"234 607 OFFCURVE",
"234 579 CURVE SMOOTH",
"234 401 LINE SMOOTH",
"234 373 OFFCURVE",
"212 351 OFFCURVE",
"184 351 CURVE SMOOTH",
"166 351 LINE SMOOTH",
"138 351 OFFCURVE",
"116 373 OFFCURVE",
"116 401 CURVE SMOOTH"
);
}
);
width = 354;
}
);
unicode = 10F9;
},
{
color = 6;
glyphname = "ain-georgian";
lastChange = "2017-03-20 11:21:30 +0000";
layers = (
{
layerId = "6A0E5D42-0D7D-4184-8BD5-EF66FF65863B";
paths = (
{
closed = 1;
nodes = (
"39 77 OFFCURVE",
"51 78 OFFCURVE",
"63 78 CURVE SMOOTH",
"78 78 OFFCURVE",
"94 77 OFFCURVE",
"111 75 CURVE SMOOTH",
"144 71 OFFCURVE",
"160 66 OFFCURVE",
"177 49 CURVE SMOOTH",
"187 39 OFFCURVE",
"195 22 OFFCURVE",
"195 0 CURVE SMOOTH",
"195 -10 LINE",
"282 -10 LINE",
"282 17 LINE SMOOTH",
"282 58 OFFCURVE",
"271 94 OFFCURVE",
"189 136 CURVE SMOOTH",
"152 155 LINE SMOOTH",
"129 167 OFFCURVE",
"126 189 OFFCURVE",
"126 223 CURVE SMOOTH",
"126 569 LINE SMOOTH",
"126 597 OFFCURVE",
"148 619 OFFCURVE",
"176 619 CURVE SMOOTH",
"194 619 LINE SMOOTH",
"222 619 OFFCURVE",
"244 597 OFFCURVE",
"244 569 CURVE SMOOTH",
"244 396 LINE",
"331 396 LINE",
"331 560 LINE SMOOTH",
"331 637 OFFCURVE",
"268 700 OFFCURVE",
"191 700 CURVE SMOOTH",
"179 700 LINE SMOOTH",
"102 700 OFFCURVE",
"39 637 OFFCURVE",
"39 560 CURVE SMOOTH",
"39 248 LINE SMOOTH",
"39 217 OFFCURVE",
"41 198 OFFCURVE",
"45 183 CURVE",
"48 172 OFFCURVE",
"50 168 OFFCURVE",
"52 164 CURVE",
"52 162 LINE",
"30 164 LINE",
"30 77 LINE"
);
}
);
width = 364;
}
);
unicode = 10FA;
},
{
color = 6;
glyphname = "aen-georgian";
lastChange = "2017-03-20 11:21:32 +0000";
layers = (
{
layerId = "6A0E5D42-0D7D-4184-8BD5-EF66FF65863B";
paths = (
{
closed = 1;
nodes = (
"235 269 LINE",
"235 121 LINE SMOOTH",
"235 93 OFFCURVE",
"213 71 OFFCURVE",
"185 71 CURVE SMOOTH",
"167 71 LINE SMOOTH",
"139 71 OFFCURVE",
"117 93 OFFCURVE",
"117 121 CURVE SMOOTH",
"117 291 LINE SMOOTH",
"117 331 OFFCURVE",
"134 350 OFFCURVE",
"174 350 CURVE SMOOTH",
"240 350 OFFCURVE",
"284 380 OFFCURVE",
"284 465 CURVE SMOOTH",
"284 487 OFFCURVE",
"284 547 OFFCURVE",
"284 570 CURVE SMOOTH",
"284 650 OFFCURVE",
"247 710 OFFCURVE",
"159 710 CURVE SMOOTH",
"71 710 OFFCURVE",
"34 650 OFFCURVE",
"34 570 CURVE SMOOTH",
"34 553 LINE",
"121 553 LINE",
"121 580 LINE SMOOTH",
"121 609 OFFCURVE",
"131 629 OFFCURVE",
"158 629 CURVE SMOOTH",
"161 629 LINE SMOOTH",
"188 629 OFFCURVE",
"197 609 OFFCURVE",
"197 578 CURVE SMOOTH",
"197 563 OFFCURVE",
"197 485 OFFCURVE",
"197 463 CURVE SMOOTH",
"197 435 OFFCURVE",
"183 425 OFFCURVE",
"157 425 CURVE SMOOTH",
"86 425 OFFCURVE",
"30 375 OFFCURVE",
"30 286 CURVE SMOOTH",
"30 130 LINE SMOOTH",
"30 53 OFFCURVE",
"93 -10 OFFCURVE",
"170 -10 CURVE SMOOTH",
"182 -10 LINE SMOOTH",
"259 -10 OFFCURVE",
"322 53 OFFCURVE",
"322 130 CURVE SMOOTH",
"322 269 LINE"
);
}
);
width = 353;
}
);
unicode = 10FD;
},
{
color = 6;
glyphname = "hardsign-georgian";
lastChange = "2017-03-20 11:21:35 +0000";
layers = (
{
layerId = "6A0E5D42-0D7D-4184-8BD5-EF66FF65863B";
paths = (
{
closed = 1;
nodes = (
"30 339 LINE",
"42 339 LINE SMOOTH",
"67 339 OFFCURVE",
"91 337 OFFCURVE",
"114 331 CURVE",
"67 291 OFFCURVE",
"33 233 OFFCURVE",
"33 157 CURVE SMOOTH",
"33 133 LINE SMOOTH",
"33 54 OFFCURVE",
"96 -10 OFFCURVE",
"173 -10 CURVE SMOOTH",
"185 -10 LINE SMOOTH",
"262 -10 OFFCURVE",
"325 45 OFFCURVE",
"325 130 CURVE SMOOTH",
"325 157 LINE SMOOTH",
"325 233 OFFCURVE",
"291 291 OFFCURVE",
"244 331 CURVE",
"267 337 OFFCURVE",
"291 339 OFFCURVE",
"316 339 CURVE SMOOTH",
"328 339 LINE",
"328 420 LINE",
"310 420 LINE SMOOTH",
"272 420 OFFCURVE",
"219 403 OFFCURVE",
"179 367 CURVE",
"139 403 OFFCURVE",
"86 420 OFFCURVE",
"48 420 CURVE SMOOTH",
"30 420 LINE"
);
},
{
closed = 1;
nodes = (
"120 246 OFFCURVE",
"143 279 OFFCURVE",
"179 300 CURVE",
"215 279 OFFCURVE",
"238 247 OFFCURVE",
"238 188 CURVE SMOOTH",
"238 118 LINE SMOOTH",
"238 90 OFFCURVE",
"216 70 OFFCURVE",
"188 70 CURVE SMOOTH",
"170 70 LINE SMOOTH",
"142 70 OFFCURVE",
"120 90 OFFCURVE",
"120 118 CURVE SMOOTH",
"120 188 LINE SMOOTH"
);
}
);
width = 358;
}
);
unicode = 10FE;
},
{
color = 6;
glyphname = "labial-georgian";
lastChange = "2017-03-20 11:21:38 +0000";
layers = (
{
layerId = "6A0E5D42-0D7D-4184-8BD5-EF66FF65863B";
paths = (
{
closed = 1;
nodes = (
"30 53 OFFCURVE",
"93 -10 OFFCURVE",
"170 -10 CURVE SMOOTH",
"182 -10 LINE SMOOTH",
"259 -10 OFFCURVE",
"322 53 OFFCURVE",
"322 130 CURVE SMOOTH",
"322 288 LINE SMOOTH",
"322 365 OFFCURVE",
"259 428 OFFCURVE",
"182 428 CURVE SMOOTH",
"170 428 LINE SMOOTH",
"93 428 OFFCURVE",
"30 365 OFFCURVE",
"30 288 CURVE SMOOTH",
"30 265 OFFCURVE",
"30 238 OFFCURVE",
"30 130 CURVE SMOOTH"
);
},
{
closed = 1;
nodes = (
"117 297 LINE SMOOTH",
"117 325 OFFCURVE",
"139 347 OFFCURVE",
"167 347 CURVE SMOOTH",
"185 347 LINE SMOOTH",
"213 347 OFFCURVE",
"235 325 OFFCURVE",
"235 297 CURVE SMOOTH",
"235 121 LINE SMOOTH",
"235 93 OFFCURVE",
"213 71 OFFCURVE",
"185 71 CURVE SMOOTH",
"167 71 LINE SMOOTH",
"139 71 OFFCURVE",
"117 93 OFFCURVE",
"117 121 CURVE SMOOTH"
);
}
);
width = 352;
}
);
rightKerningGroup = "0";
unicode = 10FF;
},
{
color = 8;
glyphname = "an-georgian.case";
lastChange = "2017-03-20 12:39:30 +0000";
layers = (
{
layerId = "6A0E5D42-0D7D-4184-8BD5-EF66FF65863B";
paths = (
{
closed = 1;
nodes = (
"30 53 OFFCURVE",
"93 -10 OFFCURVE",
"170 -10 CURVE SMOOTH",
"200 -10 LINE SMOOTH",
"277 -10 OFFCURVE",
"340 53 OFFCURVE",
"340 130 CURVE SMOOTH",
"340 445 LINE SMOOTH",
"340 519 OFFCURVE",
"329 541 OFFCURVE",
"282 578 CURVE SMOOTH",
"215 631 LINE",
"192 649 OFFCURVE",
"175 658 OFFCURVE",
"175 690 CURVE",
"175 700 LINE",
"79 700 LINE",
"79 673 LINE SMOOTH",
"79 632 OFFCURVE",
"98 609 OFFCURVE",
"128 585 CURVE SMOOTH",
"209 521 LINE SMOOTH",
"234 501 OFFCURVE",
"244 481 OFFCURVE",
"244 447 CURVE SMOOTH",
"244 130 LINE SMOOTH",
"244 102 OFFCURVE",
"222 80 OFFCURVE",
"194 80 CURVE SMOOTH",
"176 80 LINE SMOOTH",
"148 80 OFFCURVE",
"126 102 OFFCURVE",
"126 130 CURVE SMOOTH",
"126 294 LINE",
"30 294 LINE",
"30 130 LINE SMOOTH"
);
}
);
width = 370;
}
);
},
{
color = 8;
glyphname = "ban-georgian.case";
lastChange = "2017-03-20 12:39:41 +0000";
layers = (
{
guideLines = (
{
angle = 90;
position = "{316, 130}";
}
);
layerId = "6A0E5D42-0D7D-4184-8BD5-EF66FF65863B";
paths = (
{
closed = 1;
nodes = (
"30 53 OFFCURVE",
"93 -10 OFFCURVE",
"170 -10 CURVE SMOOTH",
"200 -10 LINE SMOOTH",
"277 -10 OFFCURVE",
"340 53 OFFCURVE",
"340 130 CURVE SMOOTH",
"340 290 LINE SMOOTH",
"340 352 OFFCURVE",
"299 406 OFFCURVE",
"242 424 CURVE",
"242 596 LINE",
"242 645 OFFCURVE",
"225 660 OFFCURVE",
"177 669 CURVE SMOOTH",
"149 674 OFFCURVE",
"130 678 OFFCURVE",
"130 700 CURVE",
"35 700 LINE",
"35 676 LINE SMOOTH",
"35 651 OFFCURVE",
"40 631 OFFCURVE",
"66 617 CURVE SMOOTH",
"99 599 OFFCURVE",
"146 615 OFFCURVE",
"146 570 CURVE SMOOTH",
"146 428 LINE",
"80 416 OFFCURVE",
"30 359 OFFCURVE",
"30 290 CURVE SMOOTH",
"30 130 LINE SMOOTH"
);
},
{
closed = 1;
nodes = (
"126 290 LINE SMOOTH",
"126 318 OFFCURVE",
"148 340 OFFCURVE",
"176 340 CURVE SMOOTH",
"194 340 LINE SMOOTH",
"222 340 OFFCURVE",
"244 318 OFFCURVE",
"244 290 CURVE SMOOTH",
"244 130 LINE SMOOTH",
"244 102 OFFCURVE",
"222 80 OFFCURVE",
"194 80 CURVE SMOOTH",
"176 80 LINE SMOOTH",
"148 80 OFFCURVE",
"126 102 OFFCURVE",
"126 130 CURVE SMOOTH"
);
}
);
width = 370;
}
);
},
{
color = 8;
glyphname = "gan-georgian.case";
lastChange = "2017-03-20 12:39:46 +0000";
layers = (
{
background = {
paths = (
{
closed = 1;
nodes = (
"6 53 OFFCURVE",
"69 -10 OFFCURVE",
"146 -10 CURVE SMOOTH",
"168 -10 LINE SMOOTH",
"245 -10 OFFCURVE",
"308 53 OFFCURVE",
"308 130 CURVE SMOOTH",
"308 294 LINE SMOOTH",
"308 325 OFFCURVE",
"305 357 OFFCURVE",
"267 380 CURVE",
"267 382 LINE",
"292 400 OFFCURVE",
"302 432 OFFCURVE",
"302 465 CURVE SMOOTH",
"302 570 LINE SMOOTH",
"302 647 OFFCURVE",
"245 710 OFFCURVE",
"168 710 CURVE SMOOTH",
"154 710 LINE SMOOTH",
"77 710 OFFCURVE",
"20 647 OFFCURVE",
"20 570 CURVE SMOOTH",
"20 510 LINE",
"110 510 LINE",
"110 570 LINE SMOOTH",
"110 598 OFFCURVE",
"132 620 OFFCURVE",
"160 620 CURVE SMOOTH",
"162 620 LINE SMOOTH",
"190 620 OFFCURVE",
"212 598 OFFCURVE",
"212 570 CURVE SMOOTH",
"212 470 LINE SMOOTH",
"212 443 OFFCURVE",
"190 421 OFFCURVE",
"162 421 CURVE SMOOTH",
"136 421 LINE",
"136 331 LINE",
"168 331 LINE SMOOTH",
"196 331 OFFCURVE",
"212 321 OFFCURVE",
"212 293 CURVE SMOOTH",
"212 130 LINE SMOOTH",
"212 102 OFFCURVE",
"190 80 OFFCURVE",
"162 80 CURVE SMOOTH",
"152 80 LINE SMOOTH",
"124 80 OFFCURVE",
"102 102 OFFCURVE",
"102 130 CURVE SMOOTH",
"102 250 LINE",
"6 250 LINE",
"6 130 LINE SMOOTH"
);
},
{
closed = 1;
nodes = (
"720 207 LINE",
"720 130 LINE SMOOTH",
"720 102 OFFCURVE",
"698 80 OFFCURVE",
"670 80 CURVE",
"652 80 LINE",
"624 80 OFFCURVE",
"602 102 OFFCURVE",
"602 130 CURVE SMOOTH",
"602 207 LINE",
"506 207 LINE",
"506 186 OFFCURVE",
"506 160 OFFCURVE",
"506 130 CURVE SMOOTH",
"506 53 OFFCURVE",
"569 -10 OFFCURVE",
"646 -10 CURVE",
"676 -10 LINE",
"753 -10 OFFCURVE",
"816 53 OFFCURVE",
"816 130 CURVE SMOOTH",
"816 207 LINE"
);
}
);
};
layerId = "6A0E5D42-0D7D-4184-8BD5-EF66FF65863B";
paths = (
{
closed = 1;
nodes = (
"30 53 OFFCURVE",
"93 -10 OFFCURVE",
"170 -10 CURVE SMOOTH",
"200 -10 LINE SMOOTH",
"277 -10 OFFCURVE",
"340 53 OFFCURVE",
"340 130 CURVE SMOOTH",
"340 290 LINE SMOOTH",
"340 347 OFFCURVE",
"304 396 OFFCURVE",
"255 418 CURVE",
"290 473 OFFCURVE",
"302 519 OFFCURVE",
"302 570 CURVE SMOOTH",
"302 649 OFFCURVE",
"250 710 OFFCURVE",
"173 710 CURVE SMOOTH",
"164 710 LINE SMOOTH",
"87 710 OFFCURVE",
"35 649 OFFCURVE",
"35 570 CURVE SMOOTH",
"35 553 LINE",
"131 553 LINE",
"131 571 LINE SMOOTH",
"131 600 OFFCURVE",
"140 620 OFFCURVE",
"167 620 CURVE SMOOTH",
"170 620 LINE SMOOTH",
"197 620 OFFCURVE",
"206 600 OFFCURVE",
"206 569 CURVE SMOOTH",
"206 530 OFFCURVE",
"197 484 OFFCURVE",
"157 429 CURVE",
"86 423 OFFCURVE",
"30 362 OFFCURVE",
"30 290 CURVE SMOOTH",
"30 130 LINE SMOOTH"
);
},
{
closed = 1;
nodes = (
"126 290 LINE SMOOTH",
"126 318 OFFCURVE",
"148 340 OFFCURVE",
"176 340 CURVE SMOOTH",
"194 340 LINE SMOOTH",
"222 340 OFFCURVE",
"244 318 OFFCURVE",
"244 290 CURVE SMOOTH",
"244 130 LINE SMOOTH",
"244 102 OFFCURVE",
"222 80 OFFCURVE",
"194 80 CURVE SMOOTH",
"176 80 LINE SMOOTH",
"148 80 OFFCURVE",
"126 102 OFFCURVE",
"126 130 CURVE SMOOTH"
);
}
);
width = 370;
}
);
},
{
color = 8;
glyphname = "don-georgian.case";
lastChange = "2017-03-20 12:39:53 +0000";
layers = (
{
guideLines = (
{
angle = 90;
position = "{416, 168}";
}
);
layerId = "6A0E5D42-0D7D-4184-8BD5-EF66FF65863B";
paths = (
{
closed = 1;
nodes = (
"52 216 OFFCURVE",
"74 212 OFFCURVE",
"95 205 CURVE SMOOTH",
"172 179 OFFCURVE",
"372 73 OFFCURVE",
"378 0 CURVE",
"474 0 LINE",
"474 71 OFFCURVE",
"442 120 OFFCURVE",
"251 238 CURVE SMOOTH",
"183 280 LINE SMOOTH",
"139 307 OFFCURVE",
"137 353 OFFCURVE",
"137 385 CURVE SMOOTH",
"137 584 LINE SMOOTH",
"137 604 OFFCURVE",
"149 620 OFFCURVE",
"173 620 CURVE SMOOTH",
"180 620 LINE SMOOTH",
"204 620 OFFCURVE",
"216 604 OFFCURVE",
"216 584 CURVE SMOOTH",
"216 470 LINE SMOOTH",
"216 397 OFFCURVE",
"271 346 OFFCURVE",
"333 346 CURVE SMOOTH",
"369 346 LINE SMOOTH",
"431 346 OFFCURVE",
"486 397 OFFCURVE",
"486 470 CURVE SMOOTH",
"486 596 LINE SMOOTH",
"486 659 OFFCURVE",
"441 710 OFFCURVE",
"379 710 CURVE SMOOTH",
"348 710 LINE SMOOTH",
"323 710 OFFCURVE",
"282 695 OFFCURVE",
"267 670 CURVE",
"252 696 OFFCURVE",
"216 710 OFFCURVE",
"189 710 CURVE SMOOTH",
"158 710 LINE SMOOTH",
"91 710 OFFCURVE",
"41 660 OFFCURVE",
"41 591 CURVE SMOOTH",
"41 368 LINE SMOOTH",
"41 350 OFFCURVE",
"44 332 OFFCURVE",
"52 314 CURVE",
"30 314 LINE",
"30 218 LINE"
);
},
{
closed = 1;
nodes = (
"311 584 LINE SMOOTH",
"311 604 OFFCURVE",
"323 620 OFFCURVE",
"347 620 CURVE SMOOTH",
"354 620 LINE SMOOTH",
"378 620 OFFCURVE",
"390 604 OFFCURVE",
"390 584 CURVE SMOOTH",
"390 472 LINE SMOOTH",
"390 452 OFFCURVE",
"378 436 OFFCURVE",
"354 436 CURVE SMOOTH",
"347 436 LINE SMOOTH",
"323 436 OFFCURVE",
"311 452 OFFCURVE",
"311 472 CURVE SMOOTH"
);
}
);
width = 516;
}
);
},
{
color = 8;
glyphname = "en-georgian.case";
lastChange = "2017-03-20 12:39:59 +0000";
layers = (
{
layerId = "6A0E5D42-0D7D-4184-8BD5-EF66FF65863B";
paths = (
{
closed = 1;
nodes = (
"235 475 OFFCURVE",
"235 266 OFFCURVE",
"235 130 CURVE SMOOTH",
"235 102 OFFCURVE",
"213 80 OFFCURVE",
"185 80 CURVE",
"167 80 LINE",
"139 80 OFFCURVE",
"117 102 OFFCURVE",
"117 130 CURVE SMOOTH",
"117 294 LINE",
"30 294 LINE",
"30 270 OFFCURVE",
"30 168 OFFCURVE",
"30 130 CURVE SMOOTH",
"30 53 OFFCURVE",
"93 -10 OFFCURVE",
"170 -10 CURVE",
"191 -10 LINE",
"268 -10 OFFCURVE",
"331 53 OFFCURVE",
"331 130 CURVE SMOOTH",
"331 570 LINE SMOOTH",
"331 647 OFFCURVE",
"268 710 OFFCURVE",
"191 710 CURVE",
"175 710 LINE",
"98 710 OFFCURVE",
"35 647 OFFCURVE",
"35 570 CURVE",
"35 530 LINE",
"122 530 LINE",
"122 570 LINE SMOOTH",
"122 598 OFFCURVE",
"144 620 OFFCURVE",
"172 620 CURVE SMOOTH",
"185 620 LINE SMOOTH",
"213 620 OFFCURVE",
"235 598 OFFCURVE",
"235 570 CURVE SMOOTH"
);
}
);
width = 361;
}
);
},
{
color = 8;
glyphname = "vin-georgian.case";
lastChange = "2017-03-20 12:40:05 +0000";
layers = (
{
layerId = "6A0E5D42-0D7D-4184-8BD5-EF66FF65863B";
paths = (
{
closed = 1;
nodes = (
"30 53 OFFCURVE",
"93 -10 OFFCURVE",
"170 -10 CURVE SMOOTH",
"200 -10 LINE SMOOTH",
"277 -10 OFFCURVE",
"340 53 OFFCURVE",
"340 130 CURVE SMOOTH",
"340 290 LINE SMOOTH",
"340 327 OFFCURVE",
"324 363 OFFCURVE",
"296 381 CURVE",
"324 399 OFFCURVE",
"340 435 OFFCURVE",
"340 472 CURVE",
"340 570 LINE",
"340 647 OFFCURVE",
"277 710 OFFCURVE",
"200 710 CURVE SMOOTH",
"182 710 LINE SMOOTH",
"105 710 OFFCURVE",
"46 647 OFFCURVE",
"46 570 CURVE SMOOTH",
"46 530 LINE",
"142 530 LINE",
"142 570 LINE SMOOTH",
"142 598 OFFCURVE",
"160 620 OFFCURVE",
"188 620 CURVE SMOOTH",
"194 620 LINE SMOOTH",
"222 620 OFFCURVE",
"244 598 OFFCURVE",
"244 570 CURVE",
"244 476 LINE",
"244 448 OFFCURVE",
"222 426 OFFCURVE",
"194 426 CURVE SMOOTH",
"168 426 LINE",
"168 336 LINE",
"194 336 LINE SMOOTH",
"222 336 OFFCURVE",
"244 314 OFFCURVE",
"244 286 CURVE SMOOTH",
"244 130 LINE SMOOTH",
"244 102 OFFCURVE",
"222 80 OFFCURVE",
"194 80 CURVE SMOOTH",
"176 80 LINE SMOOTH",
"148 80 OFFCURVE",
"126 102 OFFCURVE",
"126 130 CURVE SMOOTH",
"126 250 LINE",
"30 250 LINE",
"30 130 LINE SMOOTH"
);
}
);
width = 370;
}
);
},
{
color = 8;
glyphname = "zen-georgian.case";
lastChange = "2017-03-20 12:40:18 +0000";
layers = (
{
layerId = "6A0E5D42-0D7D-4184-8BD5-EF66FF65863B";
paths = (
{
closed = 1;
nodes = (
"362 -10 LINE SMOOTH",
"439 -10 OFFCURVE",
"502 53 OFFCURVE",
"502 130 CURVE SMOOTH",
"502 280 LINE SMOOTH",
"502 357 OFFCURVE",
"439 420 OFFCURVE",
"362 420 CURVE SMOOTH",
"358 420 LINE SMOOTH",
"338 420 OFFCURVE",
"315 412 OFFCURVE",
"303 403 CURVE",
"301 403 LINE",
"306 556 LINE SMOOTH",
"306 586 LINE SMOOTH",
"306 659 OFFCURVE",
"253 710 OFFCURVE",
"180 710 CURVE SMOOTH",
"156 710 LINE SMOOTH",
"83 710 OFFCURVE",
"30 659 OFFCURVE",
"30 586 CURVE SMOOTH",
"30 526 LINE SMOOTH",
"30 452 OFFCURVE",
"83 401 OFFCURVE",
"156 401 CURVE SMOOTH",
"172 401 OFFCURVE",
"190 403 OFFCURVE",
"208 411 CURVE",
"210 411 LINE",
"205 204 LINE",
"205 130 LINE SMOOTH",
"205 53 OFFCURVE",
"268 -10 OFFCURVE",
"345 -10 CURVE SMOOTH"
);
},
{
closed = 1;
nodes = (
"323 80 OFFCURVE",
"301 102 OFFCURVE",
"301 130 CURVE SMOOTH",
"301 280 LINE SMOOTH",
"301 308 OFFCURVE",
"323 330 OFFCURVE",
"351 330 CURVE SMOOTH",
"356 330 LINE SMOOTH",
"384 330 OFFCURVE",
"406 308 OFFCURVE",
"406 280 CURVE SMOOTH",
"406 130 LINE SMOOTH",
"406 102 OFFCURVE",
"384 80 OFFCURVE",
"356 80 CURVE SMOOTH",
"351 80 LINE SMOOTH"
);
},
{
closed = 1;
nodes = (
"141 491 OFFCURVE",
"122 510 OFFCURVE",
"122 533 CURVE SMOOTH",
"122 578 LINE SMOOTH",
"122 601 OFFCURVE",
"141 620 OFFCURVE",
"164 620 CURVE SMOOTH",
"172 620 LINE SMOOTH",
"194 620 OFFCURVE",
"214 602 OFFCURVE",
"214 578 CURVE SMOOTH",
"214 533 LINE SMOOTH",
"214 510 OFFCURVE",
"195 491 OFFCURVE",
"172 491 CURVE SMOOTH",
"164 491 LINE SMOOTH"
);
}
);
width = 532;
}
);
},
{
color = 8;
glyphname = "tan-georgian.case";
lastChange = "2017-03-20 12:40:23 +0000";
layers = (
{
layerId = "6A0E5D42-0D7D-4184-8BD5-EF66FF65863B";
paths = (
{
closed = 1;
nodes = (
"30 53 OFFCURVE",
"93 -10 OFFCURVE",
"170 -10 CURVE SMOOTH",
"183 -10 LINE SMOOTH",
"260 -10 OFFCURVE",
"323 53 OFFCURVE",
"323 130 CURVE",
"323 570 LINE",
"323 598 OFFCURVE",
"345 620 OFFCURVE",
"373 620 CURVE SMOOTH",
"374 620 LINE SMOOTH",
"402 620 OFFCURVE",
"424 598 OFFCURVE",
"424 570 CURVE",
"424 0 LINE",
"520 0 LINE",
"520 570 LINE",
"520 647 OFFCURVE",
"457 710 OFFCURVE",
"380 710 CURVE SMOOTH",
"369 710 LINE SMOOTH",
"334 710 OFFCURVE",
"294 692 OFFCURVE",
"275 665 CURVE",
"256 692 OFFCURVE",
"216 710 OFFCURVE",
"181 710 CURVE SMOOTH",
"170 710 LINE SMOOTH",
"93 710 OFFCURVE",
"30 647 OFFCURVE",
"30 570 CURVE",
"30 130 LINE"
);
},
{
closed = 1;
nodes = (
"126 570 LINE",
"126 598 OFFCURVE",
"148 620 OFFCURVE",
"176 620 CURVE SMOOTH",
"177 620 LINE SMOOTH",
"205 620 OFFCURVE",
"227 598 OFFCURVE",
"227 570 CURVE",
"227 130 LINE",
"227 102 OFFCURVE",
"205 80 OFFCURVE",
"177 80 CURVE SMOOTH",
"176 80 LINE SMOOTH",
"148 80 OFFCURVE",
"126 102 OFFCURVE",
"126 130 CURVE"
);
}
);
width = 550;
}
);
},
{
color = 8;
glyphname = "in-georgian.case";
lastChange = "2017-03-20 12:40:28 +0000";
layers = (
{
layerId = "6A0E5D42-0D7D-4184-8BD5-EF66FF65863B";
paths = (
{
closed = 1;
nodes = (
"340 570 LINE SMOOTH",
"340 647 OFFCURVE",
"277 710 OFFCURVE",
"200 710 CURVE",
"170 710 LINE",
"93 710 OFFCURVE",
"30 647 OFFCURVE",
"30 570 CURVE SMOOTH",
"30 528 OFFCURVE",
"30 25 OFFCURVE",
"30 0 CURVE",
"126 0 LINE",
"126 570 LINE SMOOTH",
"126 598 OFFCURVE",
"148 620 OFFCURVE",
"176 620 CURVE",
"194 620 LINE",
"222 620 OFFCURVE",
"244 598 OFFCURVE",
"244 570 CURVE SMOOTH",
"244 0 LINE",
"340 0 LINE"
);
}
);
width = 370;
}
);
},
{
color = 8;
glyphname = "kan-georgian.case";
lastChange = "2017-03-20 12:40:32 +0000";
layers = (
{
layerId = "6A0E5D42-0D7D-4184-8BD5-EF66FF65863B";
paths = (
{
closed = 1;
nodes = (
"244 700 LINE",
"244 552 LINE",
"244 524 OFFCURVE",
"222 492 OFFCURVE",
"194 492 CURVE SMOOTH",
"168 492 LINE",
"168 402 LINE",
"194 402 LINE SMOOTH",
"222 402 OFFCURVE",
"244 380 OFFCURVE",
"244 352 CURVE SMOOTH",
"244 130 LINE SMOOTH",
"244 102 OFFCURVE",
"222 80 OFFCURVE",
"194 80 CURVE SMOOTH",
"176 80 LINE SMOOTH",
"148 80 OFFCURVE",
"126 102 OFFCURVE",
"126 130 CURVE SMOOTH",
"126 250 LINE",
"30 250 LINE",
"30 130 LINE SMOOTH",
"30 53 OFFCURVE",
"93 -10 OFFCURVE",
"170 -10 CURVE SMOOTH",
"200 -10 LINE SMOOTH",
"277 -10 OFFCURVE",
"340 53 OFFCURVE",
"340 130 CURVE SMOOTH",
"340 356 LINE SMOOTH",
"340 393 OFFCURVE",
"324 429 OFFCURVE",
"296 447 CURVE",
"324 465 OFFCURVE",
"340 511 OFFCURVE",
"340 548 CURVE",
"340 700 LINE"
);
}
);
width = 370;
}
);
},
{
color = 8;
glyphname = "las-georgian.case";
lastChange = "2017-03-20 12:40:37 +0000";
layers = (
{
layerId = "6A0E5D42-0D7D-4184-8BD5-EF66FF65863B";
paths = (
{
closed = 1;
nodes = (
"38 369 OFFCURVE",
"46 346 OFFCURVE",
"54 334 CURVE",
"54 332 LINE",
"30 333 LINE",
"30 237 LINE",
"52 235 OFFCURVE",
"74 233 OFFCURVE",
"95 227 CURVE SMOOTH",
"139 214 OFFCURVE",
"199 192 OFFCURVE",
"258 167 CURVE SMOOTH",
"329 137 OFFCURVE",
"493 60 OFFCURVE",
"499 0 CURVE",
"595 0 LINE",
"595 71 OFFCURVE",
"550 127 OFFCURVE",
"359 217 CURVE SMOOTH",
"291 249 LINE SMOOTH",
"223 281 OFFCURVE",
"134 308 OFFCURVE",
"134 382 CURVE SMOOTH",
"134 581 LINE",
"134 603 OFFCURVE",
"150 620 OFFCURVE",
"173 620 CURVE SMOOTH",
"178 620 LINE",
"199 620 OFFCURVE",
"216 603 OFFCURVE",
"216 581 CURVE",
"216 440 LINE",
"307 440 LINE",
"307 581 LINE",
"307 603 OFFCURVE",
"323 620 OFFCURVE",
"346 620 CURVE SMOOTH",
"351 620 LINE SMOOTH",
"372 620 OFFCURVE",
"389 603 OFFCURVE",
"389 581 CURVE",
"389 440 LINE",
"480 440 LINE",
"480 581 LINE",
"480 603 OFFCURVE",
"495 620 OFFCURVE",
"519 620 CURVE SMOOTH",
"524 620 LINE SMOOTH",
"545 620 OFFCURVE",
"562 603 OFFCURVE",
"562 581 CURVE",
"562 376 LINE",
"658 376 LINE",
"658 597 LINE",
"658 659 OFFCURVE",
"608 710 OFFCURVE",
"545 710 CURVE SMOOTH",
"522 710 LINE SMOOTH",
"488 710 OFFCURVE",
"454 691 OFFCURVE",
"436 665 CURVE",
"419 691 OFFCURVE",
"385 710 OFFCURVE",
"351 710 CURVE SMOOTH",
"347 710 LINE SMOOTH",
"312 710 OFFCURVE",
"278 691 OFFCURVE",
"261 665 CURVE",
"243 691 OFFCURVE",
"209 710 OFFCURVE",
"174 710 CURVE SMOOTH",
"151 710 LINE SMOOTH",
"89 710 OFFCURVE",
"38 659 OFFCURVE",
"38 597 CURVE",
"38 396 LINE SMOOTH"
);
}
);
width = 688;
}
);
},
{
color = 8;
glyphname = "man-georgian.case";
lastChange = "2017-03-20 12:40:42 +0000";
layers = (
{
layerId = "6A0E5D42-0D7D-4184-8BD5-EF66FF65863B";
paths = (
{
closed = 1;
nodes = (
"93 430 OFFCURVE",
"30 367 OFFCURVE",
"30 290 CURVE SMOOTH",
"30 256 OFFCURVE",
"30 212 OFFCURVE",
"30 130 CURVE SMOOTH",
"30 53 OFFCURVE",
"93 -10 OFFCURVE",
"170 -10 CURVE",
"200 -10 LINE",
"277 -10 OFFCURVE",
"340 53 OFFCURVE",
"340 130 CURVE SMOOTH",
"340 570 LINE SMOOTH",
"340 647 OFFCURVE",
"277 710 OFFCURVE",
"200 710 CURVE",
"175 710 LINE",
"98 710 OFFCURVE",
"35 647 OFFCURVE",
"35 570 CURVE",
"35 539 LINE",
"131 539 LINE",
"131 570 LINE SMOOTH",
"131 598 OFFCURVE",
"153 620 OFFCURVE",
"181 620 CURVE SMOOTH",
"194 620 LINE SMOOTH",
"222 620 OFFCURVE",
"244 598 OFFCURVE",
"244 570 CURVE SMOOTH",
"244 413 LINE",
"242 413 LINE",
"231 420 OFFCURVE",
"204 430 OFFCURVE",
"176 430 CURVE",
"170 430 LINE"
);
},
{
closed = 1;
nodes = (
"126 290 LINE SMOOTH",
"126 318 OFFCURVE",
"148 340 OFFCURVE",
"176 340 CURVE",
"194 340 LINE",
"222 340 OFFCURVE",
"244 318 OFFCURVE",
"244 290 CURVE SMOOTH",
"244 130 LINE SMOOTH",
"244 102 OFFCURVE",
"222 80 OFFCURVE",
"194 80 CURVE",
"176 80 LINE",
"148 80 OFFCURVE",
"126 102 OFFCURVE",
"126 130 CURVE SMOOTH"
);
}
);
width = 370;
},
{
anchors = (
{
name = "new anchor";
position = "{236, 678}";
}
);
associatedMasterId = "6A0E5D42-0D7D-4184-8BD5-EF66FF65863B";
backgroundImage = {
crop = "{{0, 0}, {11.106, 22.14}}";
imagePath = "untitled folder/m.png";
locked = "1";
transform = "{34.27, 0, 0, 34.27, -27, -16}";
};
layerId = "211A094A-DD76-4D01-9765-A2594B95A16B";
name = "Regular May 29 16, 17:32";
paths = (
{
closed = 1;
nodes = (
"72 440 OFFCURVE",
"6 374 OFFCURVE",
"6 292 CURVE SMOOTH",
"6 258 OFFCURVE",
"6 225 OFFCURVE",
"6 143 CURVE SMOOTH",
"6 58 OFFCURVE",
"78 -10 OFFCURVE",
"163 -10 CURVE SMOOTH",
"248 -10 OFFCURVE",
"316 58 OFFCURVE",
"316 143 CURVE SMOOTH",
"316 569 LINE SMOOTH",
"316 652 OFFCURVE",
"248 720 OFFCURVE",
"165 720 CURVE SMOOTH",
"82 720 OFFCURVE",
"14 652 OFFCURVE",
"14 569 CURVE",
"14 542 LINE",
"110 542 LINE",
"110 580 LINE SMOOTH",
"110 608 OFFCURVE",
"132 630 OFFCURVE",
"160 630 CURVE SMOOTH",
"170 630 LINE SMOOTH",
"198 630 OFFCURVE",
"220 608 OFFCURVE",
"220 580 CURVE SMOOTH",
"220 425 LINE",
"218 425 LINE",
"206 433 OFFCURVE",
"181 440 OFFCURVE",
"155 440 CURVE SMOOTH"
);
},
{
closed = 1;
nodes = (
"102 300 LINE SMOOTH",
"102 328 OFFCURVE",
"124 350 OFFCURVE",
"152 350 CURVE",
"170 350 LINE",
"198 350 OFFCURVE",
"220 328 OFFCURVE",
"220 300 CURVE SMOOTH",
"220 132 LINE SMOOTH",
"220 102 OFFCURVE",
"198 80 OFFCURVE",
"170 80 CURVE",
"152 80 LINE",
"124 80 OFFCURVE",
"102 102 OFFCURVE",
"102 130 CURVE SMOOTH"
);
}
);
width = 337;
}
);
},
{
color = 8;
glyphname = "nar-georgian.case";
lastChange = "2017-03-20 12:40:48 +0000";
layers = (
{
layerId = "6A0E5D42-0D7D-4184-8BD5-EF66FF65863B";
paths = (
{
closed = 1;
nodes = (
"244 102 OFFCURVE",
"222 80 OFFCURVE",
"194 80 CURVE",
"176 80 LINE",
"148 80 OFFCURVE",
"126 102 OFFCURVE",
"126 130 CURVE SMOOTH",
"126 307 LINE SMOOTH",
"126 335 OFFCURVE",
"148 357 OFFCURVE",
"176 357 CURVE",
"194 357 LINE",
"222 357 OFFCURVE",
"244 335 OFFCURVE",
"244 307 CURVE SMOOTH",
"244 130 LINE SMOOTH"
);
},
{
closed = 1;
nodes = (
"350 710 LINE",
"170 710 LINE",
"93 710 OFFCURVE",
"30 647 OFFCURVE",
"30 570 CURVE SMOOTH",
"30 130 LINE SMOOTH",
"30 53 OFFCURVE",
"93 -10 OFFCURVE",
"170 -10 CURVE",
"200 -10 LINE",
"277 -10 OFFCURVE",
"340 53 OFFCURVE",
"340 130 CURVE SMOOTH",
"340 212 OFFCURVE",
"340 273 OFFCURVE",
"340 307 CURVE SMOOTH",
"340 384 OFFCURVE",
"277 447 OFFCURVE",
"200 447 CURVE",
"194 447 LINE",
"166 447 OFFCURVE",
"139 437 OFFCURVE",
"128 430 CURVE",
"126 430 LINE",
"126 570 LINE SMOOTH",
"126 598 OFFCURVE",
"148 620 OFFCURVE",
"176 620 CURVE SMOOTH",
"350 620 LINE"
);
}
);
width = 380;
}
);
},
{
color = 8;
glyphname = "on-georgian.case";
lastChange = "2017-03-20 12:40:52 +0000";
layers = (
{
layerId = "6A0E5D42-0D7D-4184-8BD5-EF66FF65863B";
paths = (
{
closed = 1;
nodes = (
"323 294 LINE",
"323 570 LINE",
"323 598 OFFCURVE",
"345 620 OFFCURVE",
"373 620 CURVE SMOOTH",
"374 620 LINE SMOOTH",
"402 620 OFFCURVE",
"424 598 OFFCURVE",
"424 570 CURVE",
"424 0 LINE",
"520 0 LINE",
"520 570 LINE",
"520 647 OFFCURVE",
"457 710 OFFCURVE",
"380 710 CURVE SMOOTH",
"369 710 LINE SMOOTH",
"334 710 OFFCURVE",
"294 691 OFFCURVE",
"275 664 CURVE",
"256 691 OFFCURVE",
"216 710 OFFCURVE",
"181 710 CURVE SMOOTH",
"170 710 LINE SMOOTH",
"93 710 OFFCURVE",
"30 647 OFFCURVE",
"30 570 CURVE",
"30 0 LINE",
"126 0 LINE",
"126 570 LINE",
"126 598 OFFCURVE",
"148 620 OFFCURVE",
"176 620 CURVE SMOOTH",
"177 620 LINE SMOOTH",
"205 620 OFFCURVE",
"227 598 OFFCURVE",
"227 570 CURVE",
"227 294 LINE"
);
}
);
width = 550;
}
);
},
{
color = 8;
glyphname = "par-georgian.case";
lastChange = "2017-03-20 12:40:58 +0000";
layers = (
{
layerId = "6A0E5D42-0D7D-4184-8BD5-EF66FF65863B";
paths = (
{
closed = 1;
nodes = (
"30 53 OFFCURVE",
"93 -10 OFFCURVE",
"170 -10 CURVE SMOOTH",
"200 -10 LINE SMOOTH",
"277 -10 OFFCURVE",
"340 53 OFFCURVE",
"340 130 CURVE SMOOTH",
"340 250 LINE SMOOTH",
"340 287 OFFCURVE",
"323 324 OFFCURVE",
"295 342 CURVE",
"323 360 OFFCURVE",
"340 395 OFFCURVE",
"340 432 CURVE SMOOTH",
"340 480 LINE SMOOTH",
"340 554 OFFCURVE",
"328 585 OFFCURVE",
"275 616 CURVE SMOOTH",
"209 655 LINE SMOOTH",
"190 666 OFFCURVE",
"180 678 OFFCURVE",
"180 693 CURVE",
"180 700 LINE",
"84 700 LINE",
"84 686 LINE",
"84 659 OFFCURVE",
"94 623 OFFCURVE",
"147 592 CURVE SMOOTH",
"209 555 LINE SMOOTH",
"237 538 OFFCURVE",
"244 516 OFFCURVE",
"244 482 CURVE SMOOTH",
"244 436 LINE SMOOTH",
"244 408 OFFCURVE",
"222 386 OFFCURVE",
"194 386 CURVE SMOOTH",
"168 386 LINE",
"168 296 LINE",
"194 296 LINE SMOOTH",
"222 296 OFFCURVE",
"244 274 OFFCURVE",
"244 246 CURVE SMOOTH",
"244 130 LINE SMOOTH",
"244 102 OFFCURVE",
"222 80 OFFCURVE",
"194 80 CURVE SMOOTH",
"176 80 LINE SMOOTH",
"148 80 OFFCURVE",
"126 102 OFFCURVE",
"126 130 CURVE SMOOTH",
"126 195 LINE",
"30 195 LINE",
"30 130 LINE SMOOTH"
);
}
);
width = 370;
}
);
},
{
color = 8;
glyphname = "zhar-georgian.case";
lastChange = "2017-03-20 12:41:03 +0000";
layers = (
{
layerId = "6A0E5D42-0D7D-4184-8BD5-EF66FF65863B";
paths = (
{
closed = 1;
nodes = (
"38 352 LINE",
"53 346 OFFCURVE",
"69 343 OFFCURVE",
"85 343 CURVE SMOOTH",
"160 343 OFFCURVE",
"211 394 OFFCURVE",
"211 467 CURVE SMOOTH",
"211 479 OFFCURVE",
"208 505 OFFCURVE",
"197 524 CURVE",
"209 530 LINE SMOOTH",
"226 539 OFFCURVE",
"240 548 OFFCURVE",
"254 561 CURVE",
"256 561 LINE",
"256 141 LINE SMOOTH",
"256 107 OFFCURVE",
"229 80 OFFCURVE",
"195 80 CURVE SMOOTH",
"187 80 LINE SMOOTH",
"153 80 OFFCURVE",
"126 107 OFFCURVE",
"126 141 CURVE SMOOTH",
"126 200 LINE",
"30 200 LINE",
"30 137 LINE SMOOTH",
"30 56 OFFCURVE",
"96 -10 OFFCURVE",
"177 -10 CURVE SMOOTH",
"205 -10 LINE SMOOTH",
"286 -10 OFFCURVE",
"352 56 OFFCURVE",
"352 137 CURVE SMOOTH",
"352 700 LINE",
"266 700 LINE",
"240 651 OFFCURVE",
"186 616 OFFCURVE",
"93 580 CURVE",
"118 540 OFFCURVE",
"129 512 OFFCURVE",
"129 483 CURVE SMOOTH",
"129 448 OFFCURVE",
"104 432 OFFCURVE",
"75 432 CURVE SMOOTH",
"59 432 OFFCURVE",
"50 433 OFFCURVE",
"38 436 CURVE"
);
}
);
width = 382;
}
);
},
{
color = 8;
glyphname = "rae-georgian.case";
lastChange = "2017-03-20 12:41:08 +0000";
layers = (
{
guideLines = (
{
position = "{14, 420}";
}
);
layerId = "6A0E5D42-0D7D-4184-8BD5-EF66FF65863B";
paths = (
{
closed = 1;
nodes = (
"126 1 LINE",
"126 257 LINE SMOOTH",
"126 281 OFFCURVE",
"144 297 OFFCURVE",
"166 297 CURVE SMOOTH",
"172 297 LINE SMOOTH",
"194 297 OFFCURVE",
"212 279 OFFCURVE",
"212 257 CURVE SMOOTH",
"212 120 LINE",
"303 120 LINE",
"303 257 LINE SMOOTH",
"303 281 OFFCURVE",
"321 297 OFFCURVE",
"343 297 CURVE SMOOTH",
"349 297 LINE SMOOTH",
"371 297 OFFCURVE",
"389 279 OFFCURVE",
"389 257 CURVE SMOOTH",
"389 1 LINE",
"485 1 LINE",
"485 270 LINE SMOOTH",
"485 335 OFFCURVE",
"433 387 OFFCURVE",
"368 387 CURVE SMOOTH",
"354 387 LINE SMOOTH",
"318 387 OFFCURVE",
"282 367 OFFCURVE",
"268 346 CURVE",
"254 367 OFFCURVE",
"235 382 OFFCURVE",
"204 386 CURVE",
"204 388 LINE",
"325 518 LINE SMOOTH",
"387 584 OFFCURVE",
"414 628 OFFCURVE",
"414 697 CURVE",
"318 697 LINE",
"318 647 OFFCURVE",
"288 607 OFFCURVE",
"253 570 CURVE SMOOTH",
"77 382 LINE SMOOTH",
"64 368 OFFCURVE",
"30 335 OFFCURVE",
"30 277 CURVE SMOOTH",
"30 1 LINE"
);
}
);
width = 515;
}
);
},
{
color = 8;
glyphname = "san-georgian.case";
lastChange = "2017-03-20 12:41:18 +0000";
layers = (
{
layerId = "6A0E5D42-0D7D-4184-8BD5-EF66FF65863B";
paths = (
{
closed = 1;
nodes = (
"30 700 LINE",
"30 130 LINE SMOOTH",
"30 53 OFFCURVE",
"93 -10 OFFCURVE",
"170 -10 CURVE SMOOTH",
"200 -10 LINE SMOOTH",
"277 -10 OFFCURVE",
"340 53 OFFCURVE",
"340 130 CURVE SMOOTH",
"340 340 LINE",
"244 340 LINE",
"244 130 LINE SMOOTH",
"244 102 OFFCURVE",
"222 80 OFFCURVE",
"194 80 CURVE SMOOTH",
"176 80 LINE SMOOTH",
"148 80 OFFCURVE",
"126 102 OFFCURVE",
"126 130 CURVE SMOOTH",
"126 700 LINE"
);
}
);
width = 370;
}
);
},
{
color = 8;
glyphname = "tar-georgian.case";
lastChange = "2017-03-20 12:41:23 +0000";
layers = (
{
layerId = "6A0E5D42-0D7D-4184-8BD5-EF66FF65863B";
paths = (
{
closed = 1;
nodes = (
"30 62 OFFCURVE",
"102 -10 OFFCURVE",
"192 -10 CURVE SMOOTH",
"220 -10 LINE SMOOTH",
"310 -10 OFFCURVE",
"382 62 OFFCURVE",
"382 152 CURVE SMOOTH",
"382 292 LINE SMOOTH",
"382 349 OFFCURVE",
"357 394 OFFCURVE",
"316 425 CURVE SMOOTH",
"293.738 441.696 LINE",
"332.216 490.538 OFFCURVE",
"351 530.451 OFFCURVE",
"351 576 CURVE SMOOTH",
"351 651 OFFCURVE",
"294 710 OFFCURVE",
"219 710 CURVE SMOOTH",
"146 710 OFFCURVE",
"86 651 OFFCURVE",
"86 576 CURVE SMOOTH",
"86 518 OFFCURVE",
"103 479 OFFCURVE",
"160 434 CURVE SMOOTH",
"180.951 417.239 LINE",
"165.959 391.214 OFFCURVE",
"155 357.39 OFFCURVE",
"155 322 CURVE SMOOTH",
"155 301 LINE",
"245 301 LINE",
"245 365.995 LINE",
"274.32 342.082 OFFCURVE",
"286 324.279 OFFCURVE",
"286 293 CURVE SMOOTH",
"286 151 LINE SMOOTH",
"286 112 OFFCURVE",
"255 80 OFFCURVE",
"215 80 CURVE SMOOTH",
"197 80 LINE SMOOTH",
"157 80 OFFCURVE",
"126 112 OFFCURVE",
"126 151 CURVE SMOOTH",
"126 324 LINE",
"30 324 LINE",
"30 152 LINE SMOOTH"
);
},
{
closed = 1;
nodes = (
"176 600 OFFCURVE",
"196 620 OFFCURVE",
"219 620 CURVE SMOOTH",
"241 620 OFFCURVE",
"261 603 OFFCURVE",
"261 571 CURVE SMOOTH",
"261 547 OFFCURVE",
"254 526 OFFCURVE",
"241 507 CURVE SMOOTH",
"229.461 489.905 LINE",
"216 500 LINE SMOOTH",
"184 524 OFFCURVE",
"176 544 OFFCURVE",
"176 573 CURVE SMOOTH"
);
}
);
width = 412;
}
);
},
{
color = 8;
glyphname = "un-georgian.case";
lastChange = "2017-03-20 12:41:27 +0000";
layers = (
{
layerId = "6A0E5D42-0D7D-4184-8BD5-EF66FF65863B";
paths = (
{
closed = 1;
nodes = (
"30 620 LINE",
"80 620 LINE SMOOTH",
"100 620 OFFCURVE",
"116 603 OFFCURVE",
"116 584 CURVE SMOOTH",
"116 461 LINE",
"137 461 OFFCURVE",
"189 461 OFFCURVE",
"212 461 CURVE",
"212 584 LINE SMOOTH",
"212 603 OFFCURVE",
"228 620 OFFCURVE",
"248 620 CURVE SMOOTH",
"256 620 LINE SMOOTH",
"273 620 OFFCURVE",
"290 603 OFFCURVE",
"290 584 CURVE SMOOTH",
"290 130 LINE SMOOTH",
"290 102 OFFCURVE",
"268 80 OFFCURVE",
"240 80 CURVE SMOOTH",
"222 80 LINE SMOOTH",
"194 80 OFFCURVE",
"172 102 OFFCURVE",
"172 130 CURVE SMOOTH",
"172 252 LINE",
"76 252 LINE",
"76 130 LINE SMOOTH",
"76 54 OFFCURVE",
"139 -10 OFFCURVE",
"216 -10 CURVE SMOOTH",
"246 -10 LINE SMOOTH",
"323 -10 OFFCURVE",
"386 53 OFFCURVE",
"386 130 CURVE SMOOTH",
"386 589 LINE SMOOTH",
"386 656 OFFCURVE",
"332 710 OFFCURVE",
"265 710 CURVE SMOOTH",
"251 710 LINE SMOOTH",
"218 710 OFFCURVE",
"180 698 OFFCURVE",
"163 668 CURVE",
"144 698 OFFCURVE",
"110 710 OFFCURVE",
"77 710 CURVE SMOOTH",
"30 710 LINE"
);
}
);
width = 416;
}
);
},
{
color = 8;
glyphname = "phar-georgian.case";
lastChange = "2017-03-20 12:41:32 +0000";
layers = (
{
layerId = "6A0E5D42-0D7D-4184-8BD5-EF66FF65863B";
paths = (
{
closed = 1;
nodes = (
"30 404 OFFCURVE",
"80 354 OFFCURVE",
"147 354 CURVE SMOOTH",
"173 354 LINE SMOOTH",
"240 354 OFFCURVE",
"290 404 OFFCURVE",
"290 473 CURVE SMOOTH",
"290 584 LINE SMOOTH",
"290 604 OFFCURVE",
"302 620 OFFCURVE",
"326 620 CURVE SMOOTH",
"333 620 LINE SMOOTH",
"357 620 OFFCURVE",
"369 604 OFFCURVE",
"369 584 CURVE SMOOTH",
"369 476 LINE SMOOTH",
"369 448 OFFCURVE",
"357 426 OFFCURVE",
"329 426 CURVE SMOOTH",
"317 426 LINE",
"317 336 LINE",
"329 336 LINE SMOOTH",
"357 336 OFFCURVE",
"369 314 OFFCURVE",
"369 286 CURVE SMOOTH",
"369 130 LINE SMOOTH",
"369 102 OFFCURVE",
"347 80 OFFCURVE",
"319 80 CURVE SMOOTH",
"267 80 LINE SMOOTH",
"239 80 OFFCURVE",
"217 102 OFFCURVE",
"217 130 CURVE SMOOTH",
"217 188 LINE",
"121 188 LINE",
"121 130 LINE SMOOTH",
"121 53 OFFCURVE",
"184 -10 OFFCURVE",
"261 -10 CURVE SMOOTH",
"325 -10 LINE SMOOTH",
"402 -10 OFFCURVE",
"465 53 OFFCURVE",
"465 130 CURVE SMOOTH",
"465 290 LINE SMOOTH",
"465 327 OFFCURVE",
"449 363 OFFCURVE",
"421 381 CURVE",
"449 399 OFFCURVE",
"465 435 OFFCURVE",
"465 472 CURVE SMOOTH",
"465 596 LINE SMOOTH",
"465 659 OFFCURVE",
"420 710 OFFCURVE",
"358 710 CURVE SMOOTH",
"329 710 LINE SMOOTH",
"304 710 OFFCURVE",
"265 699 OFFCURVE",
"248 669 CURVE",
"231 699 OFFCURVE",
"197 710 OFFCURVE",
"170 710 CURVE SMOOTH",
"147 710 LINE SMOOTH",
"80 710 OFFCURVE",
"30 660 OFFCURVE",
"30 591 CURVE SMOOTH",
"30 473 LINE SMOOTH"
);
},
{
closed = 1;
nodes = (
"126 584 LINE SMOOTH",
"126 604 OFFCURVE",
"138 620 OFFCURVE",
"162 620 CURVE SMOOTH",
"163 620 LINE SMOOTH",
"187 620 OFFCURVE",
"199 604 OFFCURVE",
"199 584 CURVE SMOOTH",
"199 480 LINE SMOOTH",
"199 460 OFFCURVE",
"188 444 OFFCURVE",
"164 444 CURVE SMOOTH",
"161 444 LINE SMOOTH",
"137 444 OFFCURVE",
"126 460 OFFCURVE",
"126 480 CURVE SMOOTH"
);
}
);
width = 495;
}
);
},
{
color = 8;
glyphname = "khar-georgian.case";
lastChange = "2017-03-20 12:41:36 +0000";
layers = (
{
background = {
paths = (
{
closed = 1;
nodes = (
"6 53 OFFCURVE",
"69 -10 OFFCURVE",
"146 -10 CURVE SMOOTH",
"176 -10 LINE SMOOTH",
"253 -10 OFFCURVE",
"316 53 OFFCURVE",
"316 130 CURVE SMOOTH",
"316 570 LINE SMOOTH",
"316 647 OFFCURVE",
"253 710 OFFCURVE",
"176 710 CURVE SMOOTH",
"154 710 LINE SMOOTH",
"77 710 OFFCURVE",
"14 647 OFFCURVE",
"14 570 CURVE SMOOTH",
"14 530 LINE",
"110 530 LINE",
"110 570 LINE SMOOTH",
"110 598 OFFCURVE",
"132 620 OFFCURVE",
"160 620 CURVE SMOOTH",
"170 620 LINE SMOOTH",
"198 620 OFFCURVE",
"220 598 OFFCURVE",
"220 570 CURVE SMOOTH",
"220 130 LINE SMOOTH",
"220 102 OFFCURVE",
"198 80 OFFCURVE",
"170 80 CURVE SMOOTH",
"152 80 LINE SMOOTH",
"124 80 OFFCURVE",
"102 102 OFFCURVE",
"102 130 CURVE SMOOTH",
"102 300 LINE",
"6 300 LINE",
"6 130 LINE SMOOTH"
);
}
);
};
layerId = "6A0E5D42-0D7D-4184-8BD5-EF66FF65863B";
paths = (
{
closed = 1;
nodes = (
"30 53 OFFCURVE",
"93 -10 OFFCURVE",
"170 -10 CURVE SMOOTH",
"200 -10 LINE SMOOTH",
"277 -10 OFFCURVE",
"340 53 OFFCURVE",
"340 130 CURVE SMOOTH",
"340 700 LINE",
"244 700 LINE",
"244 532 LINE",
"242 532 LINE",
"222 537 OFFCURVE",
"195 539 OFFCURVE",
"183 539 CURVE SMOOTH",
"175 539 LINE SMOOTH",
"95 539 OFFCURVE",
"38 483 OFFCURVE",
"38 401 CURVE SMOOTH",
"38 383 LINE",
"134 383 LINE",
"134 401 LINE SMOOTH",
"134 433 OFFCURVE",
"155 449 OFFCURVE",
"188 449 CURVE SMOOTH",
"195 449 LINE SMOOTH",
"210 449 OFFCURVE",
"233 446 OFFCURVE",
"244 442 CURVE",
"244 130 LINE SMOOTH",
"244 102 OFFCURVE",
"222 80 OFFCURVE",
"194 80 CURVE SMOOTH",
"176 80 LINE SMOOTH",
"148 80 OFFCURVE",
"126 102 OFFCURVE",
"126 130 CURVE SMOOTH",
"126 204 LINE",
"30 204 LINE",
"30 130 LINE SMOOTH"
);
}
);
width = 370;
}
);
},
{
color = 8;
glyphname = "ghan-georgian.case";
lastChange = "2017-03-20 12:41:41 +0000";
layers = (
{
guideLines = (
{
angle = 90;
position = "{-311, 583}";
}
);
layerId = "6A0E5D42-0D7D-4184-8BD5-EF66FF65863B";
paths = (
{
closed = 1;
nodes = (
"52 216 OFFCURVE",
"74 212 OFFCURVE",
"95 205 CURVE SMOOTH",
"172 179 OFFCURVE",
"372 73 OFFCURVE",
"378 0 CURVE",
"474 0 LINE",
"474 71 OFFCURVE",
"442 120 OFFCURVE",
"251 238 CURVE SMOOTH",
"183 280 LINE SMOOTH",
"139 307 OFFCURVE",
"137 353 OFFCURVE",
"137 385 CURVE",
"137 584 LINE",
"137 604 OFFCURVE",
"149 620 OFFCURVE",
"173 620 CURVE SMOOTH",
"180 620 LINE SMOOTH",
"204 620 OFFCURVE",
"216 604 OFFCURVE",
"216 584 CURVE SMOOTH",
"216 431 LINE",
"311 431 LINE",
"311 584 LINE SMOOTH",
"311 604 OFFCURVE",
"323 620 OFFCURVE",
"347 620 CURVE SMOOTH",
"354 620 LINE SMOOTH",
"378 620 OFFCURVE",
"390 604 OFFCURVE",
"390 584 CURVE SMOOTH",
"390 367 LINE",
"486 367 LINE",
"486 596 LINE SMOOTH",
"486 659 OFFCURVE",
"441 710 OFFCURVE",
"379 710 CURVE SMOOTH",
"348 710 LINE SMOOTH",
"323 710 OFFCURVE",
"282 694 OFFCURVE",
"267 669 CURVE",
"252 695 OFFCURVE",
"216 710 OFFCURVE",
"189 710 CURVE SMOOTH",
"158 710 LINE SMOOTH",
"91 710 OFFCURVE",
"41 660 OFFCURVE",
"41 591 CURVE",
"41 368 LINE",
"41 350 OFFCURVE",
"44 332 OFFCURVE",
"52 314 CURVE",
"30 314 LINE",
"30 218 LINE"
);
}
);
width = 516;
}
);
},
{
color = 8;
glyphname = "qar-georgian.case";
lastChange = "2017-03-20 12:41:47 +0000";
layers = (
{
guideLines = (
{
angle = 90;
position = "{316, 700}";
}
);
layerId = "6A0E5D42-0D7D-4184-8BD5-EF66FF65863B";
paths = (
{
closed = 1;
nodes = (
"250 517 LINE SMOOTH",
"250 489 OFFCURVE",
"228 467 OFFCURVE",
"200 467 CURVE",
"182 467 LINE",
"154 467 OFFCURVE",
"132 489 OFFCURVE",
"132 517 CURVE SMOOTH",
"132 700 LINE",
"36 700 LINE",
"36 648 OFFCURVE",
"36 543 OFFCURVE",
"36 517 CURVE SMOOTH",
"36 440 OFFCURVE",
"99 377 OFFCURVE",
"176 377 CURVE",
"182 377 LINE",
"210 377 OFFCURVE",
"237 387 OFFCURVE",
"248 394 CURVE",
"250 394 LINE",
"250 130 LINE SMOOTH",
"250 102 OFFCURVE",
"228 80 OFFCURVE",
"200 80 CURVE SMOOTH",
"176 80 LINE SMOOTH",
"148 80 OFFCURVE",
"126 102 OFFCURVE",
"126 130 CURVE SMOOTH",
"126 218 LINE",
"30 218 LINE",
"30 130 LINE",
"30 53 OFFCURVE",
"93 -10 OFFCURVE",
"170 -10 CURVE",
"206 -10 LINE",
"283 -10 OFFCURVE",
"346 53 OFFCURVE",
"346 130 CURVE SMOOTH",
"346 700 LINE",
"250 700 LINE"
);
}
);
width = 376;
}
);
},
{
color = 8;
glyphname = "shin-georgian.case";
lastChange = "2017-03-20 12:41:50 +0000";
layers = (
{
layerId = "6A0E5D42-0D7D-4184-8BD5-EF66FF65863B";
paths = (
{
closed = 1;
nodes = (
"58 620 LINE SMOOTH",
"81 620 OFFCURVE",
"100 601 OFFCURVE",
"100 578 CURVE SMOOTH",
"100 510 LINE",
"196 510 LINE",
"196 578 LINE SMOOTH",
"196 601 OFFCURVE",
"215 620 OFFCURVE",
"239 620 CURVE SMOOTH",
"245 620 LINE SMOOTH",
"268 620 OFFCURVE",
"287 601 OFFCURVE",
"287 578 CURVE SMOOTH",
"287 393 LINE",
"285 393 LINE",
"274 400 OFFCURVE",
"247 410 OFFCURVE",
"219 410 CURVE SMOOTH",
"213 410 LINE SMOOTH",
"136 410 OFFCURVE",
"73 347 OFFCURVE",
"73 270 CURVE SMOOTH",
"73 130 LINE SMOOTH",
"73 53 OFFCURVE",
"136 -10 OFFCURVE",
"213 -10 CURVE SMOOTH",
"243 -10 LINE SMOOTH",
"320 -10 OFFCURVE",
"383 53 OFFCURVE",
"383 130 CURVE SMOOTH",
"383 589 LINE SMOOTH",
"383 656 OFFCURVE",
"329 710 OFFCURVE",
"262 710 CURVE SMOOTH",
"235 710 LINE SMOOTH",
"202 710 OFFCURVE",
"165 699 OFFCURVE",
"148 669 CURVE",
"129 699 OFFCURVE",
"94 710 OFFCURVE",
"61 710 CURVE SMOOTH",
"30 710 LINE",
"30 620 LINE"
);
},
{
closed = 1;
nodes = (
"169 270 LINE SMOOTH",
"169 298 OFFCURVE",
"191 320 OFFCURVE",
"219 320 CURVE SMOOTH",
"237 320 LINE SMOOTH",
"265 320 OFFCURVE",
"287 298 OFFCURVE",
"287 270 CURVE SMOOTH",
"287 130 LINE SMOOTH",
"287 102 OFFCURVE",
"265 80 OFFCURVE",
"237 80 CURVE SMOOTH",
"219 80 LINE SMOOTH",
"191 80 OFFCURVE",
"169 102 OFFCURVE",
"169 130 CURVE SMOOTH"
);
}
);
width = 418;
}
);
},
{
color = 8;
glyphname = "chin-georgian.case";
lastChange = "2017-03-20 12:41:52 +0000";
layers = (
{
layerId = "6A0E5D42-0D7D-4184-8BD5-EF66FF65863B";
paths = (
{
closed = 1;
nodes = (
"126 0 LINE",
"126 178 LINE SMOOTH",
"126 206 OFFCURVE",
"148 228 OFFCURVE",
"176 228 CURVE SMOOTH",
"188 228 LINE SMOOTH",
"216 228 OFFCURVE",
"238 206 OFFCURVE",
"238 178 CURVE SMOOTH",
"238 0 LINE",
"334 0 LINE",
"334 178 LINE SMOOTH",
"334 273 OFFCURVE",
"273 318 OFFCURVE",
"196 318 CURVE SMOOTH",
"188 318 LINE SMOOTH",
"163 318 OFFCURVE",
"139 308 OFFCURVE",
"128 301 CURVE",
"126 301 LINE",
"126 348 LINE",
"226 397 OFFCURVE",
"306 477 OFFCURVE",
"306 570 CURVE SMOOTH",
"306 649 OFFCURVE",
"257 710 OFFCURVE",
"180 710 CURVE SMOOTH",
"161 710 LINE SMOOTH",
"84 710 OFFCURVE",
"30 647 OFFCURVE",
"30 570 CURVE SMOOTH",
"30 0 LINE"
);
},
{
closed = 1;
nodes = (
"126 570 LINE SMOOTH",
"126 598 OFFCURVE",
"142 620 OFFCURVE",
"170 620 CURVE SMOOTH",
"201 620 OFFCURVE",
"214 603 OFFCURVE",
"214 570 CURVE SMOOTH",
"214 509 OFFCURVE",
"158 463 OFFCURVE",
"128 449 CURVE",
"126 449 LINE"
);
}
);
width = 372;
}
);
},
{
color = 8;
glyphname = "can-georgian.case";
lastChange = "2017-03-20 12:41:56 +0000";
layers = (
{
layerId = "6A0E5D42-0D7D-4184-8BD5-EF66FF65863B";
paths = (
{
closed = 1;
nodes = (
"30 56 OFFCURVE",
"96 -10 OFFCURVE",
"177 -10 CURVE SMOOTH",
"210 -10 LINE SMOOTH",
"291 -10 OFFCURVE",
"357 56 OFFCURVE",
"357 137 CURVE SMOOTH",
"357 335 LINE SMOOTH",
"357 370 OFFCURVE",
"342 409 OFFCURVE",
"314 427 CURVE",
"342 445 OFFCURVE",
"357 480 OFFCURVE",
"357 517 CURVE SMOOTH",
"357 561 LINE SMOOTH",
"357 606 OFFCURVE",
"343 625 OFFCURVE",
"331 643 CURVE SMOOTH",
"323 655 LINE SMOOTH",
"309 676 OFFCURVE",
"299 691 OFFCURVE",
"299 700 CURVE",
"203 700 LINE",
"203 676 OFFCURVE",
"213 658 OFFCURVE",
"227 637 CURVE SMOOTH",
"235 625 LINE",
"243 613 OFFCURVE",
"261 594 OFFCURVE",
"261 557 CURVE SMOOTH",
"261 521 LINE SMOOTH",
"261 493 OFFCURVE",
"239 471 OFFCURVE",
"211 471 CURVE SMOOTH",
"196 471 LINE",
"196 381 LINE",
"211 381 LINE SMOOTH",
"239 381 OFFCURVE",
"261 359 OFFCURVE",
"261 331 CURVE SMOOTH",
"261 141 LINE SMOOTH",
"261 107 OFFCURVE",
"234 80 OFFCURVE",
"200 80 CURVE SMOOTH",
"187 80 LINE SMOOTH",
"153 80 OFFCURVE",
"126 107 OFFCURVE",
"126 141 CURVE SMOOTH",
"126 700 LINE",
"30 700 LINE",
"30 137 LINE SMOOTH"
);
}
);
width = 391;
}
);
},
{
color = 8;
glyphname = "jil-georgian.case";
lastChange = "2017-03-20 12:41:59 +0000";
layers = (
{
layerId = "6A0E5D42-0D7D-4184-8BD5-EF66FF65863B";
paths = (
{
closed = 1;
nodes = (
"244 700 LINE",
"244 413 LINE",
"242 413 LINE",
"231 420 OFFCURVE",
"204 430 OFFCURVE",
"176 430 CURVE",
"170 430 LINE",
"93 430 OFFCURVE",
"30 367 OFFCURVE",
"30 290 CURVE SMOOTH",
"30 256 OFFCURVE",
"30 212 OFFCURVE",
"30 130 CURVE SMOOTH",
"30 53 OFFCURVE",
"93 -10 OFFCURVE",
"170 -10 CURVE",
"200 -10 LINE",
"277 -10 OFFCURVE",
"340 53 OFFCURVE",
"340 130 CURVE SMOOTH",
"340 700 LINE"
);
},
{
closed = 1;
nodes = (
"126 290 LINE SMOOTH",
"126 318 OFFCURVE",
"148 340 OFFCURVE",
"176 340 CURVE",
"194 340 LINE",
"222 340 OFFCURVE",
"244 318 OFFCURVE",
"244 290 CURVE SMOOTH",
"244 130 LINE SMOOTH",
"244 102 OFFCURVE",
"222 80 OFFCURVE",
"194 80 CURVE",
"176 80 LINE",
"148 80 OFFCURVE",
"126 102 OFFCURVE",
"126 130 CURVE SMOOTH"
);
}
);
width = 376;
}
);
},
{
color = 8;
glyphname = "cil-georgian.case";
lastChange = "2017-03-20 12:42:01 +0000";
layers = (
{
layerId = "6A0E5D42-0D7D-4184-8BD5-EF66FF65863B";
paths = (
{
closed = 1;
nodes = (
"383 710 LINE",
"352 710 LINE SMOOTH",
"319 710 OFFCURVE",
"284 698 OFFCURVE",
"265 668 CURVE",
"248 698 OFFCURVE",
"211 710 OFFCURVE",
"178 710 CURVE SMOOTH",
"151 710 LINE SMOOTH",
"84 710 OFFCURVE",
"30 656 OFFCURVE",
"30 589 CURVE SMOOTH",
"30 130 LINE SMOOTH",
"30 53 OFFCURVE",
"93 -10 OFFCURVE",
"170 -10 CURVE SMOOTH",
"200 -10 LINE SMOOTH",
"277 -10 OFFCURVE",
"340 53 OFFCURVE",
"340 130 CURVE SMOOTH",
"340 270 LINE SMOOTH",
"340 347 OFFCURVE",
"277 410 OFFCURVE",
"200 410 CURVE SMOOTH",
"194 410 LINE SMOOTH",
"166 410 OFFCURVE",
"139 400 OFFCURVE",
"128 393 CURVE",
"126 393 LINE",
"126 578 LINE SMOOTH",
"126 601 OFFCURVE",
"145 620 OFFCURVE",
"168 620 CURVE SMOOTH",
"174 620 LINE SMOOTH",
"198 620 OFFCURVE",
"217 601 OFFCURVE",
"217 578 CURVE SMOOTH",
"217 510 LINE",
"313 510 LINE",
"313 578 LINE SMOOTH",
"313 601 OFFCURVE",
"332 620 OFFCURVE",
"355 620 CURVE SMOOTH",
"383 620 LINE"
);
},
{
closed = 1;
nodes = (
"244 102 OFFCURVE",
"222 80 OFFCURVE",
"194 80 CURVE SMOOTH",
"176 80 LINE SMOOTH",
"148 80 OFFCURVE",
"126 102 OFFCURVE",
"126 130 CURVE SMOOTH",
"126 270 LINE SMOOTH",
"126 298 OFFCURVE",
"148 320 OFFCURVE",
"176 320 CURVE SMOOTH",
"194 320 LINE SMOOTH",
"222 320 OFFCURVE",
"244 298 OFFCURVE",
"244 270 CURVE SMOOTH",
"244 130 LINE SMOOTH"
);
}
);
width = 419;
}
);
},
{
color = 8;
glyphname = "char-georgian.case";
lastChange = "2017-03-20 12:42:04 +0000";
layers = (
{
layerId = "6A0E5D42-0D7D-4184-8BD5-EF66FF65863B";
paths = (
{
closed = 1;
nodes = (
"30 56 OFFCURVE",
"96 -10 OFFCURVE",
"177 -10 CURVE SMOOTH",
"205 -10 LINE SMOOTH",
"286 -10 OFFCURVE",
"352 56 OFFCURVE",
"352 137 CURVE SMOOTH",
"352 371 LINE",
"372 352 OFFCURVE",
"386 333 OFFCURVE",
"386 294 CURVE",
"476 294 LINE",
"476 337 OFFCURVE",
"456 381 OFFCURVE",
"415 420 CURVE",
"456 462 OFFCURVE",
"476 508 OFFCURVE",
"476 551 CURVE",
"386 551 LINE",
"386 514 OFFCURVE",
"373 494 OFFCURVE",
"352 472 CURVE",
"352 700 LINE",
"256 700 LINE",
"256 543 LINE",
"237 550 OFFCURVE",
"219 555 OFFCURVE",
"201 555 CURVE SMOOTH",
"197 555 OFFCURVE",
"194 556 OFFCURVE",
"190 556 CURVE SMOOTH",
"188 556 OFFCURVE",
"188 556 OFFCURVE",
"187 556 CURVE SMOOTH",
"114 556 OFFCURVE",
"55 492 OFFCURVE",
"55 419 CURVE SMOOTH",
"55 405 LINE SMOOTH",
"55 333 OFFCURVE",
"114 269 OFFCURVE",
"187 269 CURVE SMOOTH",
"188 269 OFFCURVE",
"188 269 OFFCURVE",
"189 269 CURVE SMOOTH",
"197 269 OFFCURVE",
"205 270 OFFCURVE",
"213 271 CURVE SMOOTH",
"227 273 OFFCURVE",
"241 277 OFFCURVE",
"256 283 CURVE",
"256 141 LINE SMOOTH",
"256 107 OFFCURVE",
"229 80 OFFCURVE",
"195 80 CURVE SMOOTH",
"187 80 LINE SMOOTH",
"153 80 OFFCURVE",
"126 107 OFFCURVE",
"126 141 CURVE SMOOTH",
"126 164 LINE",
"30 164 LINE",
"30 137 LINE SMOOTH"
);
},
{
closed = 1;
nodes = (
"138 449 OFFCURVE",
"167 478 OFFCURVE",
"203 478 CURVE SMOOTH",
"220 478 OFFCURVE",
"238 473 OFFCURVE",
"256 466 CURVE",
"256 362 LINE",
"238 352 OFFCURVE",
"220 347 OFFCURVE",
"203 347 CURVE SMOOTH",
"167 347 OFFCURVE",
"138 376 OFFCURVE",
"138 413 CURVE SMOOTH"
);
}
);
width = 514;
}
);
},
{
color = 8;
glyphname = "xan-georgian.case";
lastChange = "2017-03-20 12:42:07 +0000";
layers = (
{
layerId = "6A0E5D42-0D7D-4184-8BD5-EF66FF65863B";
paths = (
{
closed = 1;
nodes = (
"30 130 LINE SMOOTH",
"30 53 OFFCURVE",
"93 -10 OFFCURVE",
"170 -10 CURVE",
"200 -10 LINE",
"277 -10 OFFCURVE",
"340 53 OFFCURVE",
"340 130 CURVE SMOOTH",
"340 212 OFFCURVE",
"340 256 OFFCURVE",
"340 290 CURVE SMOOTH",
"340 367 OFFCURVE",
"277 430 OFFCURVE",
"200 430 CURVE",
"194 430 LINE",
"166 430 OFFCURVE",
"139 420 OFFCURVE",
"128 413 CURVE",
"126 413 LINE",
"126 700 LINE",
"30 700 LINE"
);
},
{
closed = 1;
nodes = (
"244 102 OFFCURVE",
"222 80 OFFCURVE",
"194 80 CURVE",
"176 80 LINE",
"148 80 OFFCURVE",
"126 102 OFFCURVE",
"126 130 CURVE SMOOTH",
"126 290 LINE SMOOTH",
"126 318 OFFCURVE",
"148 340 OFFCURVE",
"176 340 CURVE",
"194 340 LINE",
"222 340 OFFCURVE",
"244 318 OFFCURVE",
"244 290 CURVE SMOOTH",
"244 130 LINE SMOOTH"
);
}
);
width = 377;
}
);
},
{
color = 8;
glyphname = "jhan-georgian.case";
lastChange = "2017-03-20 12:42:09 +0000";
layers = (
{
layerId = "6A0E5D42-0D7D-4184-8BD5-EF66FF65863B";
paths = (
{
closed = 1;
nodes = (
"65 28 LINE SMOOTH",
"91 2 OFFCURVE",
"115 0 OFFCURVE",
"139 0 CURVE SMOOTH",
"202 0 OFFCURVE",
"259 50 OFFCURVE",
"259 115 CURVE SMOOTH",
"259 141 OFFCURVE",
"246 165 OFFCURVE",
"232 185 CURVE",
"346 295 LINE",
"433 70 LINE SMOOTH",
"450 26 OFFCURVE",
"498 0 OFFCURVE",
"542 0 CURVE SMOOTH",
"556 0 OFFCURVE",
"570 2 OFFCURVE",
"584 8 CURVE SMOOTH",
"626 26 OFFCURVE",
"656 59 OFFCURVE",
"656 104 CURVE SMOOTH",
"656 117 OFFCURVE",
"652 138 OFFCURVE",
"646 152 CURVE SMOOTH",
"630 192 LINE",
"553 161 LINE",
"568 122 LINE",
"569 119 OFFCURVE",
"570 115 OFFCURVE",
"570 111 CURVE SMOOTH",
"570 97 OFFCURVE",
"559 83 OFFCURVE",
"542 83 CURVE SMOOTH",
"531 83 OFFCURVE",
"520 89 OFFCURVE",
"515 101 CURVE SMOOTH",
"415 361 LINE",
"580 519 LINE SMOOTH",
"603 541 OFFCURVE",
"615 571 OFFCURVE",
"615 601 CURVE SMOOTH",
"615 629 OFFCURVE",
"603 658 OFFCURVE",
"584 677 CURVE SMOOTH",
"561 700 OFFCURVE",
"533 710 OFFCURVE",
"504 710 CURVE SMOOTH",
"475 710 OFFCURVE",
"448 700 OFFCURVE",
"427 680 CURVE SMOOTH",
"396 650 LINE",
"453 590 LINE",
"483 618 LINE",
"488 622 OFFCURVE",
"492 626 OFFCURVE",
"504 626 CURVE SMOOTH",
"518 626 OFFCURVE",
"532 617 OFFCURVE",
"532 599 CURVE SMOOTH",
"532 591 OFFCURVE",
"529 583 OFFCURVE",
"523 577 CURVE SMOOTH",
"383 443 LINE",
"308 639 LINE SMOOTH",
"291 683 OFFCURVE",
"242 710 OFFCURVE",
"198 710 CURVE SMOOTH",
"184 710 OFFCURVE",
"170 707 OFFCURVE",
"157 702 CURVE SMOOTH",
"113 685 OFFCURVE",
"87 643 OFFCURVE",
"87 599 CURVE SMOOTH",
"87 585 OFFCURVE",
"90 571 OFFCURVE",
"95 558 CURVE SMOOTH",
"111 518 LINE",
"188 548 LINE",
"173 587 LINE",
"172 590 OFFCURVE",
"171 594 OFFCURVE",
"171 598 CURVE SMOOTH",
"171 612 OFFCURVE",
"182 627 OFFCURVE",
"198 627 CURVE SMOOTH",
"210 627 OFFCURVE",
"221 620 OFFCURVE",
"226 608 CURVE SMOOTH",
"315 378 LINE",
"122 193 LINE",
"168 142 LINE SMOOTH",
"174 135 OFFCURVE",
"177 126 OFFCURVE",
"177 117 CURVE SMOOTH",
"177 96 OFFCURVE",
"160 79 OFFCURVE",
"139 79 CURVE SMOOTH",
"130 79 OFFCURVE",
"122 80 OFFCURVE",
"113 89 CURVE SMOOTH",
"86 115 LINE",
"30 62 LINE"
);
}
);
width = 693;
}
);
},
{
color = 8;
glyphname = "hae-georgian.case";
lastChange = "2017-03-20 12:42:12 +0000";
layers = (
{
layerId = "6A0E5D42-0D7D-4184-8BD5-EF66FF65863B";
paths = (
{
closed = 1;
nodes = (
"30 66 OFFCURVE",
"106 -10 OFFCURVE",
"200 -10 CURVE SMOOTH",
"294 -10 OFFCURVE",
"370 66 OFFCURVE",
"370 160 CURVE SMOOTH",
"370 209 OFFCURVE",
"349 253 OFFCURVE",
"316 284 CURVE",
"347 305 OFFCURVE",
"370 340 OFFCURVE",
"370 381 CURVE SMOOTH",
"370 383 LINE SMOOTH",
"370 421 OFFCURVE",
"346 455 OFFCURVE",
"314 471 CURVE",
"346 491 OFFCURVE",
"370 527 OFFCURVE",
"370 569 CURVE SMOOTH",
"370 571 LINE SMOOTH",
"370 610 OFFCURVE",
"347 639 OFFCURVE",
"313 658 CURVE SMOOTH",
"274 680 LINE SMOOTH",
"257 690 OFFCURVE",
"246 694 OFFCURVE",
"242 700 CURVE",
"146 700 LINE",
"146 670 OFFCURVE",
"159 650 OFFCURVE",
"198 629 CURVE SMOOTH",
"254 598 LINE SMOOTH",
"267 591 OFFCURVE",
"274 580 OFFCURVE",
"274 562 CURVE SMOOTH",
"274 535 OFFCURVE",
"253 522 OFFCURVE",
"226 522 CURVE SMOOTH",
"183 522 LINE",
"183 432 LINE",
"226 432 LINE SMOOTH",
"253 432 OFFCURVE",
"274 409 OFFCURVE",
"274 382 CURVE SMOOTH",
"274 355 OFFCURVE",
"253 334 OFFCURVE",
"226 334 CURVE SMOOTH",
"183 334 LINE",
"183 244 LINE",
"200 244 LINE SMOOTH",
"241 244 OFFCURVE",
"274 211 OFFCURVE",
"274 170 CURVE SMOOTH",
"274 154 LINE SMOOTH",
"274 113 OFFCURVE",
"241 80 OFFCURVE",
"200 80 CURVE SMOOTH",
"159 80 OFFCURVE",
"126 113 OFFCURVE",
"126 154 CURVE SMOOTH",
"126 174 LINE",
"30 174 LINE",
"30 160 LINE SMOOTH"
);
}
);
width = 404;
}
);
},
{
color = 8;
glyphname = "he-georgian.case";
lastChange = "2017-03-20 12:42:14 +0000";
layers = (
{
layerId = "6A0E5D42-0D7D-4184-8BD5-EF66FF65863B";
paths = (
{
closed = 1;
nodes = (
"30 66 OFFCURVE",
"103 -10 OFFCURVE",
"197 -10 CURVE SMOOTH",
"203 -10 LINE SMOOTH",
"297 -10 OFFCURVE",
"370 66 OFFCURVE",
"370 160 CURVE SMOOTH",
"370 209 OFFCURVE",
"350 253 OFFCURVE",
"317 284 CURVE",
"348 305 OFFCURVE",
"370 340 OFFCURVE",
"370 381 CURVE SMOOTH",
"370 383 LINE SMOOTH",
"370 421 OFFCURVE",
"347 455 OFFCURVE",
"315 471 CURVE",
"347 491 OFFCURVE",
"370 527 OFFCURVE",
"370 569 CURVE SMOOTH",
"370 571 LINE SMOOTH",
"370 610 OFFCURVE",
"348 638 OFFCURVE",
"313 658 CURVE SMOOTH",
"290 671 LINE SMOOTH",
"273 681 OFFCURVE",
"255 690 OFFCURVE",
"255 700 CURVE",
"159 700 LINE",
"159 670 OFFCURVE",
"175 641 OFFCURVE",
"214 620 CURVE SMOOTH",
"254 598 LINE SMOOTH",
"267 591 OFFCURVE",
"274 580 OFFCURVE",
"274 562 CURVE SMOOTH",
"274 535 OFFCURVE",
"253 522 OFFCURVE",
"226 522 CURVE SMOOTH",
"183 522 LINE",
"183 432 LINE",
"226 432 LINE SMOOTH",
"253 432 OFFCURVE",
"274 409 OFFCURVE",
"274 382 CURVE SMOOTH",
"274 355 OFFCURVE",
"253 334 OFFCURVE",
"226 334 CURVE SMOOTH",
"183 334 LINE",
"183 244 LINE",
"200 244 LINE SMOOTH",
"241 244 OFFCURVE",
"274 211 OFFCURVE",
"274 170 CURVE SMOOTH",
"274 154 LINE SMOOTH",
"274 113 OFFCURVE",
"244 80 OFFCURVE",
"203 80 CURVE SMOOTH",
"197 80 LINE SMOOTH",
"156 80 OFFCURVE",
"126 113 OFFCURVE",
"126 154 CURVE SMOOTH",
"126 700 LINE",
"30 700 LINE",
"30 160 LINE SMOOTH"
);
}
);
width = 400;
}
);
},
{
color = 8;
glyphname = "hie-georgian.case";
lastChange = "2017-03-20 12:42:19 +0000";
layers = (
{
layerId = "6A0E5D42-0D7D-4184-8BD5-EF66FF65863B";
paths = (
{
closed = 1;
nodes = (
"48 -1 LINE SMOOTH",
"86 -1 OFFCURVE",
"148 17 OFFCURVE",
"188 53 CURVE",
"228 17 OFFCURVE",
"290 -1 OFFCURVE",
"328 -1 CURVE SMOOTH",
"346 -1 LINE",
"346 89 LINE",
"334 89 LINE SMOOTH",
"309 89 OFFCURVE",
"285 91 OFFCURVE",
"262 97 CURVE",
"309 137 OFFCURVE",
"343 195 OFFCURVE",
"343 271 CURVE SMOOTH",
"343 569 LINE SMOOTH",
"343 646 OFFCURVE",
"280 709 OFFCURVE",
"203 709 CURVE SMOOTH",
"173 709 LINE SMOOTH",
"96 709 OFFCURVE",
"33 646 OFFCURVE",
"33 569 CURVE SMOOTH",
"33 271 LINE SMOOTH",
"33 195 OFFCURVE",
"67 137 OFFCURVE",
"114 97 CURVE",
"91 91 OFFCURVE",
"67 89 OFFCURVE",
"42 89 CURVE SMOOTH",
"30 89 LINE",
"30 -1 LINE"
);
},
{
closed = 1;
nodes = (
"129 569 LINE SMOOTH",
"129 597 OFFCURVE",
"151 619 OFFCURVE",
"179 619 CURVE SMOOTH",
"197 619 LINE SMOOTH",
"225 619 OFFCURVE",
"247 597 OFFCURVE",
"247 569 CURVE SMOOTH",
"247 247 LINE SMOOTH",
"247 189 OFFCURVE",
"224 151 OFFCURVE",
"188 130 CURVE",
"152 151 OFFCURVE",
"129 189 OFFCURVE",
"129 247 CURVE SMOOTH"
);
}
);
width = 376;
}
);
},
{
color = 8;
glyphname = "we-georgian.case";
lastChange = "2017-03-20 12:42:21 +0000";
layers = (
{
layerId = "6A0E5D42-0D7D-4184-8BD5-EF66FF65863B";
paths = (
{
closed = 1;
nodes = (
"30 53 OFFCURVE",
"93 -10 OFFCURVE",
"170 -10 CURVE SMOOTH",
"200 -10 LINE SMOOTH",
"277 -10 OFFCURVE",
"340 53 OFFCURVE",
"340 130 CURVE SMOOTH",
"340 290 LINE SMOOTH",
"340 327 OFFCURVE",
"328 363 OFFCURVE",
"300 381 CURVE",
"328 399 OFFCURVE",
"340 435 OFFCURVE",
"340 472 CURVE",
"340 700 LINE",
"39 700 LINE",
"39 530 LINE",
"135 530 LINE",
"135 610 LINE",
"244 610 LINE",
"244 476 LINE",
"244 448 OFFCURVE",
"222 426 OFFCURVE",
"194 426 CURVE SMOOTH",
"168 426 LINE",
"168 336 LINE",
"194 336 LINE SMOOTH",
"222 336 OFFCURVE",
"244 314 OFFCURVE",
"244 286 CURVE SMOOTH",
"244 130 LINE SMOOTH",
"244 102 OFFCURVE",
"222 80 OFFCURVE",
"194 80 CURVE SMOOTH",
"176 80 LINE SMOOTH",
"148 80 OFFCURVE",
"126 102 OFFCURVE",
"126 130 CURVE SMOOTH",
"126 250 LINE",
"30 250 LINE",
"30 130 LINE SMOOTH"
);
}
);
width = 370;
}
);
},
{
color = 8;
glyphname = "har-georgian.case";
lastChange = "2017-03-20 12:42:23 +0000";
layers = (
{
layerId = "6A0E5D42-0D7D-4184-8BD5-EF66FF65863B";
paths = (
{
closed = 1;
nodes = (
"30 481 OFFCURVE",
"94 419 OFFCURVE",
"170 419 CURVE SMOOTH",
"245 419 LINE",
"245 386 LINE SMOOTH",
"245 358 OFFCURVE",
"223 336 OFFCURVE",
"195 336 CURVE SMOOTH",
"169 336 LINE",
"169 246 LINE",
"195 246 LINE SMOOTH",
"223 246 OFFCURVE",
"245 224 OFFCURVE",
"245 196 CURVE SMOOTH",
"245 130 LINE SMOOTH",
"245 102 OFFCURVE",
"223 80 OFFCURVE",
"195 80 CURVE SMOOTH",
"177 80 LINE SMOOTH",
"149 80 OFFCURVE",
"127 102 OFFCURVE",
"127 130 CURVE SMOOTH",
"127 180 LINE",
"31 180 LINE",
"31 130 LINE SMOOTH",
"31 53 OFFCURVE",
"94 -10 OFFCURVE",
"171 -10 CURVE SMOOTH",
"201 -10 LINE SMOOTH",
"278 -10 OFFCURVE",
"341 53 OFFCURVE",
"341 130 CURVE SMOOTH",
"341 200 LINE SMOOTH",
"341 237 OFFCURVE",
"330 273 OFFCURVE",
"302 291 CURVE",
"330 309 OFFCURVE",
"341 345 OFFCURVE",
"341 382 CURVE SMOOTH",
"341 515 LINE",
"170 515 LINE SMOOTH",
"142 515 OFFCURVE",
"120 536 OFFCURVE",
"120 559 CURVE SMOOTH",
"120 587 OFFCURVE",
"142 604 OFFCURVE",
"170 604 CURVE SMOOTH",
"244 604 LINE",
"244 700 LINE",
"170 700 LINE SMOOTH",
"93 700 OFFCURVE",
"30 637 OFFCURVE",
"30 559 CURVE SMOOTH"
);
}
);
width = 371;
}
);
},
{
color = 8;
glyphname = "hoe-georgian.case";
lastChange = "2017-03-20 12:42:27 +0000";
layers = (
{
layerId = "6A0E5D42-0D7D-4184-8BD5-EF66FF65863B";
paths = (
{
closed = 1;
nodes = (
"30 53 OFFCURVE",
"93 -10 OFFCURVE",
"170 -10 CURVE SMOOTH",
"200 -10 LINE SMOOTH",
"277 -10 OFFCURVE",
"340 53 OFFCURVE",
"340 130 CURVE SMOOTH",
"340 231 LINE",
"386 231 LINE",
"386 321 LINE",
"340 321 LINE",
"340 379 LINE",
"386 379 LINE",
"386 469 LINE",
"340 469 LINE",
"340 570 LINE SMOOTH",
"340 647 OFFCURVE",
"277 710 OFFCURVE",
"200 710 CURVE SMOOTH",
"170 710 LINE SMOOTH",
"93 710 OFFCURVE",
"30 647 OFFCURVE",
"30 570 CURVE SMOOTH",
"30 519 LINE SMOOTH",
"30 442 OFFCURVE",
"93 379 OFFCURVE",
"170 379 CURVE SMOOTH",
"244 379 LINE",
"244 321 LINE",
"170 321 LINE SMOOTH",
"93 321 OFFCURVE",
"30 258 OFFCURVE",
"30 181 CURVE SMOOTH",
"30 130 LINE SMOOTH"
);
},
{
closed = 1;
nodes = (
"126 181 LINE SMOOTH",
"126 208 OFFCURVE",
"147 231 OFFCURVE",
"173 231 CURVE SMOOTH",
"244 231 LINE",
"244 130 LINE SMOOTH",
"244 102 OFFCURVE",
"222 80 OFFCURVE",
"194 80 CURVE SMOOTH",
"176 80 LINE SMOOTH",
"148 80 OFFCURVE",
"126 102 OFFCURVE",
"126 130 CURVE SMOOTH"
);
},
{
closed = 1;
nodes = (
"126 570 LINE SMOOTH",
"126 598 OFFCURVE",
"148 620 OFFCURVE",
"176 620 CURVE SMOOTH",
"194 620 LINE SMOOTH",
"222 620 OFFCURVE",
"244 598 OFFCURVE",
"244 570 CURVE SMOOTH",
"244 469 LINE",
"173 469 LINE SMOOTH",
"147 469 OFFCURVE",
"126 492 OFFCURVE",
"126 519 CURVE SMOOTH"
);
}
);
width = 416;
}
);
},
{
color = 8;
glyphname = "fi-georgian.case";
lastChange = "2017-03-20 12:42:29 +0000";
layers = (
{
layerId = "6A0E5D42-0D7D-4184-8BD5-EF66FF65863B";
paths = (
{
closed = 1;
nodes = (
"30 241 OFFCURVE",
"93 178 OFFCURVE",
"170 178 CURVE SMOOTH",
"267 178 LINE",
"267 0 LINE",
"363 0 LINE",
"363 178 LINE",
"460 178 LINE SMOOTH",
"537 178 OFFCURVE",
"600 241 OFFCURVE",
"600 318 CURVE SMOOTH",
"600 382 LINE SMOOTH",
"600 459 OFFCURVE",
"537 522 OFFCURVE",
"460 522 CURVE SMOOTH",
"363 522 LINE",
"363 700 LINE",
"267 700 LINE",
"267 522 LINE",
"170 522 LINE SMOOTH",
"93 522 OFFCURVE",
"30 459 OFFCURVE",
"30 382 CURVE SMOOTH",
"30 318 LINE SMOOTH"
);
},
{
closed = 1;
nodes = (
"120 376 LINE SMOOTH",
"120 404 OFFCURVE",
"142 426 OFFCURVE",
"170 426 CURVE SMOOTH",
"267 426 LINE",
"267 274 LINE",
"170 274 LINE SMOOTH",
"142 274 OFFCURVE",
"120 296 OFFCURVE",
"120 324 CURVE SMOOTH"
);
},
{
closed = 1;
nodes = (
"363 426 LINE",
"460 426 LINE SMOOTH",
"488 426 OFFCURVE",
"510 404 OFFCURVE",
"510 376 CURVE SMOOTH",
"510 324 LINE SMOOTH",
"510 296 OFFCURVE",
"488 274 OFFCURVE",
"460 274 CURVE SMOOTH",
"363 274 LINE"
);
}
);
width = 630;
}
);
},
{
color = 8;
glyphname = "yn-georgian.case";
lastChange = "2017-03-20 12:42:31 +0000";
layers = (
{
layerId = "6A0E5D42-0D7D-4184-8BD5-EF66FF65863B";
paths = (
{
closed = 1;
nodes = (
"244 269 LINE",
"244 130 LINE SMOOTH",
"244 102 OFFCURVE",
"222 80 OFFCURVE",
"194 80 CURVE SMOOTH",
"176 80 LINE SMOOTH",
"148 80 OFFCURVE",
"126 102 OFFCURVE",
"126 130 CURVE SMOOTH",
"126 290 LINE SMOOTH",
"126 318 OFFCURVE",
"148 340 OFFCURVE",
"176 340 CURVE SMOOTH",
"260 340 OFFCURVE",
"302 387 OFFCURVE",
"302 482 CURVE SMOOTH",
"302 504 OFFCURVE",
"302 547 OFFCURVE",
"302 570 CURVE SMOOTH",
"302 649 OFFCURVE",
"250 710 OFFCURVE",
"173 710 CURVE SMOOTH",
"164 710 LINE SMOOTH",
"87 710 OFFCURVE",
"35 649 OFFCURVE",
"35 570 CURVE SMOOTH",
"35 553 LINE",
"131 553 LINE",
"131 571 LINE SMOOTH",
"131 600 OFFCURVE",
"140 620 OFFCURVE",
"167 620 CURVE SMOOTH",
"170 620 LINE SMOOTH",
"197 620 OFFCURVE",
"206 600 OFFCURVE",
"206 569 CURVE SMOOTH",
"206 554 OFFCURVE",
"206 504 OFFCURVE",
"206 482 CURVE SMOOTH",
"206 443 OFFCURVE",
"194 429 OFFCURVE",
"157 429 CURVE SMOOTH",
"86 429 OFFCURVE",
"30 362 OFFCURVE",
"30 290 CURVE SMOOTH",
"30 130 LINE SMOOTH",
"30 53 OFFCURVE",
"93 -10 OFFCURVE",
"170 -10 CURVE SMOOTH",
"200 -10 LINE SMOOTH",
"277 -10 OFFCURVE",
"340 53 OFFCURVE",
"340 130 CURVE SMOOTH",
"340 269 LINE"
);
}
);
width = 370;
}
);
},
{
color = 8;
glyphname = "elifi-georgian.case";
lastChange = "2017-03-20 12:42:35 +0000";
layers = (
{
layerId = "6A0E5D42-0D7D-4184-8BD5-EF66FF65863B";
paths = (
{
closed = 1;
nodes = (
"30 700 LINE",
"30 130 LINE SMOOTH",
"30 53 OFFCURVE",
"93 -10 OFFCURVE",
"170 -10 CURVE",
"206 -10 LINE",
"283 -10 OFFCURVE",
"346 53 OFFCURVE",
"346 130 CURVE",
"346 218 LINE",
"250 218 LINE",
"250 130 LINE SMOOTH",
"250 102 OFFCURVE",
"228 80 OFFCURVE",
"200 80 CURVE SMOOTH",
"176 80 LINE SMOOTH",
"148 80 OFFCURVE",
"126 102 OFFCURVE",
"126 130 CURVE SMOOTH",
"126 394 LINE",
"128 394 LINE",
"139 387 OFFCURVE",
"166 377 OFFCURVE",
"194 377 CURVE",
"200 377 LINE",
"277 377 OFFCURVE",
"340 440 OFFCURVE",
"340 517 CURVE SMOOTH",
"340 543 OFFCURVE",
"340 648 OFFCURVE",
"340 700 CURVE",
"244 700 LINE",
"244 517 LINE SMOOTH",
"244 489 OFFCURVE",
"222 467 OFFCURVE",
"194 467 CURVE",
"176 467 LINE",
"148 467 OFFCURVE",
"126 489 OFFCURVE",
"126 517 CURVE SMOOTH",
"126 700 LINE"
);
}
);
width = 376;
}
);
},
{
color = 8;
glyphname = "turnedgan-georgian.case";
lastChange = "2017-03-20 12:42:38 +0000";
layers = (
{
layerId = "6A0E5D42-0D7D-4184-8BD5-EF66FF65863B";
paths = (
{
closed = 1;
nodes = (
"30 353 OFFCURVE",
"66 304 OFFCURVE",
"115 282 CURVE",
"80 227 OFFCURVE",
"68 181 OFFCURVE",
"68 130 CURVE SMOOTH",
"68 51 OFFCURVE",
"120 -10 OFFCURVE",
"197 -10 CURVE SMOOTH",
"206 -10 LINE SMOOTH",
"283 -10 OFFCURVE",
"335 51 OFFCURVE",
"335 130 CURVE SMOOTH",
"335 147 LINE",
"239 147 LINE",
"239 129 LINE SMOOTH",
"239 100 OFFCURVE",
"230 80 OFFCURVE",
"203 80 CURVE SMOOTH",
"200 80 LINE SMOOTH",
"173 80 OFFCURVE",
"164 100 OFFCURVE",
"164 131 CURVE SMOOTH",
"164 170 OFFCURVE",
"173 216 OFFCURVE",
"213 271 CURVE",
"284 277 OFFCURVE",
"340 338 OFFCURVE",
"340 410 CURVE SMOOTH",
"340 570 LINE SMOOTH",
"340 647 OFFCURVE",
"277 710 OFFCURVE",
"200 710 CURVE SMOOTH",
"170 710 LINE SMOOTH",
"93 710 OFFCURVE",
"30 647 OFFCURVE",
"30 570 CURVE SMOOTH",
"30 410 LINE SMOOTH"
);
},
{
closed = 1;
nodes = (
"126 570 LINE SMOOTH",
"126 598 OFFCURVE",
"148 620 OFFCURVE",
"176 620 CURVE SMOOTH",
"194 620 LINE SMOOTH",
"222 620 OFFCURVE",
"244 598 OFFCURVE",
"244 570 CURVE SMOOTH",
"244 410 LINE SMOOTH",
"244 382 OFFCURVE",
"222 360 OFFCURVE",
"194 360 CURVE SMOOTH",
"176 360 LINE SMOOTH",
"148 360 OFFCURVE",
"126 382 OFFCURVE",
"126 410 CURVE SMOOTH"
);
}
);
width = 370;
}
);
},
{
color = 8;
glyphname = "ain-georgian.case";
lastChange = "2017-03-20 12:42:41 +0000";
layers = (
{
layerId = "6A0E5D42-0D7D-4184-8BD5-EF66FF65863B";
paths = (
{
closed = 1;
nodes = (
"51 71 OFFCURVE",
"81 72 OFFCURVE",
"111 68 CURVE SMOOTH",
"144 64 OFFCURVE",
"168 55 OFFCURVE",
"185 41 CURVE SMOOTH",
"196 32 OFFCURVE",
"204 15 OFFCURVE",
"204 0 CURVE SMOOTH",
"204 -10 LINE",
"300 -10 LINE",
"300 17 LINE SMOOTH",
"300 58 OFFCURVE",
"279 110 OFFCURVE",
"198 143 CURVE SMOOTH",
"161 158 LINE SMOOTH",
"138 167 OFFCURVE",
"135 189 OFFCURVE",
"135 223 CURVE SMOOTH",
"135 560 LINE SMOOTH",
"135 588 OFFCURVE",
"157 610 OFFCURVE",
"185 610 CURVE SMOOTH",
"203 610 LINE SMOOTH",
"231 610 OFFCURVE",
"253 588 OFFCURVE",
"253 560 CURVE SMOOTH",
"253 396 LINE",
"349 396 LINE",
"349 560 LINE SMOOTH",
"349 637 OFFCURVE",
"286 700 OFFCURVE",
"209 700 CURVE SMOOTH",
"179 700 LINE SMOOTH",
"102 700 OFFCURVE",
"39 637 OFFCURVE",
"39 560 CURVE SMOOTH",
"39 248 LINE SMOOTH",
"39 217 OFFCURVE",
"41 198 OFFCURVE",
"45 183 CURVE",
"48 172 OFFCURVE",
"50 168 OFFCURVE",
"52 164 CURVE",
"52 162 LINE",
"30 164 LINE",
"30 70 LINE"
);
}
);
width = 379;
}
);
},
{
color = 8;
glyphname = "aen-georgian.case";
lastChange = "2017-03-20 12:42:43 +0000";
layers = (
{
layerId = "6A0E5D42-0D7D-4184-8BD5-EF66FF65863B";
paths = (
{
closed = 1;
nodes = (
"244 159 LINE",
"244 130 LINE SMOOTH",
"244 102 OFFCURVE",
"222 80 OFFCURVE",
"194 80 CURVE SMOOTH",
"176 80 LINE SMOOTH",
"148 80 OFFCURVE",
"126 102 OFFCURVE",
"126 130 CURVE SMOOTH",
"126 221 LINE SMOOTH",
"126 271 OFFCURVE",
"156 303 OFFCURVE",
"176 320 CURVE SMOOTH",
"288 415 OFFCURVE",
"302 460 OFFCURVE",
"302 570 CURVE SMOOTH",
"302 649 OFFCURVE",
"250 710 OFFCURVE",
"173 710 CURVE SMOOTH",
"164 710 LINE SMOOTH",
"87 710 OFFCURVE",
"35 649 OFFCURVE",
"35 570 CURVE SMOOTH",
"35 553 LINE",
"131 553 LINE",
"131 571 LINE SMOOTH",
"131 600 OFFCURVE",
"140 620 OFFCURVE",
"167 620 CURVE SMOOTH",
"170 620 LINE SMOOTH",
"197 620 OFFCURVE",
"206 600 OFFCURVE",
"206 569 CURVE SMOOTH",
"206 557 OFFCURVE",
"207 544 OFFCURVE",
"207 530 CURVE SMOOTH",
"207 496 OFFCURVE",
"201 458 OFFCURVE",
"156 420 CURVE SMOOTH",
"90 364 OFFCURVE",
"30 319 OFFCURVE",
"30 204 CURVE SMOOTH",
"30 130 LINE SMOOTH",
"30 53 OFFCURVE",
"93 -10 OFFCURVE",
"170 -10 CURVE SMOOTH",
"200 -10 LINE SMOOTH",
"277 -10 OFFCURVE",
"340 53 OFFCURVE",
"340 130 CURVE SMOOTH",
"340 159 LINE"
);
}
);
width = 370;
}
);
},
{
color = 8;
glyphname = "hardsign-georgian.case";
lastChange = "2017-03-20 12:42:46 +0000";
layers = (
{
layerId = "6A0E5D42-0D7D-4184-8BD5-EF66FF65863B";
paths = (
{
closed = 1;
nodes = (
"30 619 LINE",
"42 619 LINE SMOOTH",
"67 619 OFFCURVE",
"91 617 OFFCURVE",
"114 611 CURVE",
"67 571 OFFCURVE",
"33 513 OFFCURVE",
"33 437 CURVE SMOOTH",
"33 139 LINE SMOOTH",
"33 62 OFFCURVE",
"96 -1 OFFCURVE",
"173 -1 CURVE SMOOTH",
"203 -1 LINE SMOOTH",
"280 -1 OFFCURVE",
"343 62 OFFCURVE",
"343 139 CURVE SMOOTH",
"343 437 LINE SMOOTH",
"343 513 OFFCURVE",
"309 571 OFFCURVE",
"262 611 CURVE",
"285 617 OFFCURVE",
"309 619 OFFCURVE",
"334 619 CURVE SMOOTH",
"346 619 LINE",
"346 709 LINE",
"328 709 LINE SMOOTH",
"290 709 OFFCURVE",
"228 691 OFFCURVE",
"188 655 CURVE",
"148 691 OFFCURVE",
"86 709 OFFCURVE",
"48 709 CURVE SMOOTH",
"30 709 LINE"
);
},
{
closed = 1;
nodes = (
"129 519 OFFCURVE",
"152 557 OFFCURVE",
"188 578 CURVE",
"224 557 OFFCURVE",
"247 519 OFFCURVE",
"247 461 CURVE SMOOTH",
"247 139 LINE SMOOTH",
"247 111 OFFCURVE",
"225 89 OFFCURVE",
"197 89 CURVE SMOOTH",
"179 89 LINE SMOOTH",
"151 89 OFFCURVE",
"129 111 OFFCURVE",
"129 139 CURVE SMOOTH",
"129 461 LINE SMOOTH"
);
}
);
width = 376;
}
);
},
{
color = 8;
glyphname = "labial-georgian.case";
lastChange = "2017-03-20 12:42:49 +0000";
layers = (
{
layerId = "6A0E5D42-0D7D-4184-8BD5-EF66FF65863B";
paths = (
{
closed = 1;
nodes = (
"30 53 OFFCURVE",
"93 -10 OFFCURVE",
"170 -10 CURVE SMOOTH",
"182 -10 LINE SMOOTH",
"259 -10 OFFCURVE",
"322 53 OFFCURVE",
"322 130 CURVE SMOOTH",
"322 570 LINE SMOOTH",
"322 647 OFFCURVE",
"259 710 OFFCURVE",
"182 710 CURVE SMOOTH",
"170 710 LINE SMOOTH",
"93 710 OFFCURVE",
"30 647 OFFCURVE",
"30 570 CURVE SMOOTH",
"30 542 OFFCURVE",
"30 517 OFFCURVE",
"30 496 CURVE SMOOTH",
"30 130 LINE SMOOTH"
);
},
{
closed = 1;
nodes = (
"117 579 LINE SMOOTH",
"117 607 OFFCURVE",
"139 629 OFFCURVE",
"167 629 CURVE SMOOTH",
"185 629 LINE SMOOTH",
"213 629 OFFCURVE",
"235 607 OFFCURVE",
"235 579 CURVE SMOOTH",
"235 121 LINE SMOOTH",
"235 93 OFFCURVE",
"213 71 OFFCURVE",
"185 71 CURVE SMOOTH",
"167 71 LINE SMOOTH",
"139 71 OFFCURVE",
"117 93 OFFCURVE",
"117 121 CURVE SMOOTH"
);
}
);
width = 352;
}
);
},
{
color = 6;
glyphname = "narMod-georgian";
lastChange = "2017-03-19 20:29:08 +0000";
layers = (
{
layerId = "6A0E5D42-0D7D-4184-8BD5-EF66FF65863B";
paths = (
{
closed = 1;
nodes = (
"114 464 OFFCURVE",
"105 455 OFFCURVE",
"94 455 CURVE",
"87 455 LINE",
"76 455 OFFCURVE",
"67 464 OFFCURVE",
"67 475 CURVE SMOOTH",
"67 544 LINE SMOOTH",
"67 555 OFFCURVE",
"76 563 OFFCURVE",
"87 563 CURVE",
"94 563 LINE",
"105 563 OFFCURVE",
"114 555 OFFCURVE",
"114 544 CURVE SMOOTH",
"114 475 LINE SMOOTH"
);
},
{
closed = 1;
nodes = (
"155 701 LINE",
"85 701 LINE",
"55 701 OFFCURVE",
"30 676 OFFCURVE",
"30 646 CURVE SMOOTH",
"30 475 LINE SMOOTH",
"30 445 OFFCURVE",
"55 420 OFFCURVE",
"85 420 CURVE",
"96 420 LINE",
"126 420 OFFCURVE",
"151 445 OFFCURVE",
"151 475 CURVE SMOOTH",
"151 507 OFFCURVE",
"151 530 OFFCURVE",
"151 544 CURVE SMOOTH",
"151 574 OFFCURVE",
"126 598 OFFCURVE",
"96 598 CURVE",
"94 598 LINE",
"83 598 OFFCURVE",
"73 594 OFFCURVE",
"68 592 CURVE",
"67 592 LINE",
"67 646 LINE SMOOTH",
"67 657 OFFCURVE",
"76 666 OFFCURVE",
"87 666 CURVE SMOOTH",
"155 666 LINE"
);
}
);
width = 185;
}
);
unicode = 10FC;
},
{
color = 9;
glyphname = zero;
lastChange = "2017-03-20 12:48:41 +0000";
layers = (
{
backgroundImage = {
crop = "{{0, 0}, {140, 160}}";
imagePath = "documents-export-2016-06-11/0";
locked = "1";
transform = "{29.033, 0, 0, 29.033, 10, -26}";
};
layerId = "6A0E5D42-0D7D-4184-8BD5-EF66FF65863B";
paths = (
{
closed = 1;
nodes = (
"30 53 OFFCURVE",
"93 -10 OFFCURVE",
"170 -10 CURVE SMOOTH",
"182 -10 LINE SMOOTH",
"259 -10 OFFCURVE",
"322 53 OFFCURVE",
"322 130 CURVE SMOOTH",
"322 570 LINE SMOOTH",
"322 647 OFFCURVE",
"259 710 OFFCURVE",
"182 710 CURVE SMOOTH",
"170 710 LINE SMOOTH",
"93 710 OFFCURVE",
"30 647 OFFCURVE",
"30 570 CURVE SMOOTH",
"30 542 OFFCURVE",
"30 517 OFFCURVE",
"30 496 CURVE SMOOTH",
"30 130 LINE SMOOTH"
);
},
{
closed = 1;
nodes = (
"117 579 LINE SMOOTH",
"117 607 OFFCURVE",
"139 629 OFFCURVE",
"167 629 CURVE SMOOTH",
"185 629 LINE SMOOTH",
"213 629 OFFCURVE",
"235 607 OFFCURVE",
"235 579 CURVE SMOOTH",
"235 121 LINE SMOOTH",
"235 93 OFFCURVE",
"213 71 OFFCURVE",
"185 71 CURVE SMOOTH",
"167 71 LINE SMOOTH",
"139 71 OFFCURVE",
"117 93 OFFCURVE",
"117 121 CURVE SMOOTH"
);
}
);
width = 353;
}
);
unicode = 0030;
},
{
color = 9;
glyphname = one;
lastChange = "2017-03-20 12:48:43 +0000";
layers = (
{
backgroundImage = {
crop = "{{0, 0}, {140, 160}}";
imagePath = "documents-export-2016-06-11/1.png";
locked = "1";
transform = "{42.118, 0, 0, 42.118, 28, -22}";
};
layerId = "6A0E5D42-0D7D-4184-8BD5-EF66FF65863B";
paths = (
{
closed = 1;
nodes = (
"30 501 LINE",
"50 508 OFFCURVE",
"93 533 OFFCURVE",
"106 556 CURVE",
"108 556 LINE",
"108 0 LINE",
"195 0 LINE",
"195 700 LINE",
"113 700 LINE",
"108 658 OFFCURVE",
"72 617 OFFCURVE",
"30 593 CURVE"
);
}
);
width = 228;
}
);
unicode = 0031;
},
{
color = 9;
glyphname = two;
lastChange = "2017-03-20 12:48:46 +0000";
layers = (
{
backgroundImage = {
crop = "{{0, 0}, {140, 160}}";
imagePath = "documents-export-2016-06-11/2.png";
locked = "1";
transform = "{29.386, 0, 0, 29.386, 10, -56}";
};
layerId = "6A0E5D42-0D7D-4184-8BD5-EF66FF65863B";
paths = (
{
closed = 1;
nodes = (
"300 0 LINE",
"300 87 LINE",
"137 87 LINE",
"187 191 OFFCURVE",
"317 246 OFFCURVE",
"317 428 CURVE SMOOTH",
"317 570 LINE SMOOTH",
"317 647 OFFCURVE",
"254 710 OFFCURVE",
"177 710 CURVE SMOOTH",
"170 710 LINE SMOOTH",
"93 710 OFFCURVE",
"30 647 OFFCURVE",
"30 570 CURVE SMOOTH",
"30 420 LINE",
"117 420 LINE",
"117 579 LINE SMOOTH",
"117 607 OFFCURVE",
"139 629 OFFCURVE",
"167 629 CURVE SMOOTH",
"180 629 LINE SMOOTH",
"208 629 OFFCURVE",
"230 607 OFFCURVE",
"230 579 CURVE SMOOTH",
"230 428 LINE SMOOTH",
"230 230 OFFCURVE",
"30 209 OFFCURVE",
"30 0 CURVE"
);
}
);
width = 348;
}
);
unicode = 0032;
},
{
color = 9;
glyphname = three;
lastChange = "2017-03-20 12:48:49 +0000";
layers = (
{
backgroundImage = {
crop = "{{0, 0}, {140, 160}}";
imagePath = "documents-export-2016-06-11/3.png";
locked = "1";
transform = "{29.179, 0, 0, 29.179, 9, -31}";
};
layerId = "6A0E5D42-0D7D-4184-8BD5-EF66FF65863B";
paths = (
{
closed = 1;
nodes = (
"30 53 OFFCURVE",
"93 -10 OFFCURVE",
"170 -10 CURVE SMOOTH",
"182 -10 LINE SMOOTH",
"259 -10 OFFCURVE",
"322 53 OFFCURVE",
"322 130 CURVE SMOOTH",
"322 279 LINE SMOOTH",
"322 318 OFFCURVE",
"306 353 OFFCURVE",
"280 379 CURVE",
"306 404 OFFCURVE",
"322 439 OFFCURVE",
"322 478 CURVE SMOOTH",
"322 570 LINE SMOOTH",
"322 647 OFFCURVE",
"259 710 OFFCURVE",
"182 710 CURVE SMOOTH",
"181 710 LINE SMOOTH",
"104 710 OFFCURVE",
"41 647 OFFCURVE",
"41 570 CURVE SMOOTH",
"41 530 LINE",
"128 530 LINE",
"128 579 LINE SMOOTH",
"128 607 OFFCURVE",
"150 629 OFFCURVE",
"178 629 CURVE SMOOTH",
"185 629 LINE SMOOTH",
"213 629 OFFCURVE",
"235 607 OFFCURVE",
"235 579 CURVE SMOOTH",
"235 469 LINE SMOOTH",
"235 441 OFFCURVE",
"213 419 OFFCURVE",
"185 419 CURVE SMOOTH",
"159 419 LINE",
"159 338 LINE",
"185 338 LINE SMOOTH",
"213 338 OFFCURVE",
"235 316 OFFCURVE",
"235 288 CURVE SMOOTH",
"235 121 LINE SMOOTH",
"235 93 OFFCURVE",
"213 71 OFFCURVE",
"185 71 CURVE SMOOTH",
"167 71 LINE SMOOTH",
"139 71 OFFCURVE",
"117 93 OFFCURVE",
"117 121 CURVE SMOOTH",
"117 250 LINE",
"30 250 LINE",
"30 130 LINE SMOOTH"
);
}
);
width = 357;
}
);
unicode = 0033;
},
{
color = 9;
glyphname = four;
lastChange = "2017-03-20 12:48:51 +0000";
layers = (
{
backgroundImage = {
crop = "{{0, 0}, {140, 160}}";
imagePath = "documents-export-2016-06-11/4.png";
locked = "1";
transform = "{31.984, 0, 0, 31.984, 13, -15}";
};
layerId = "6A0E5D42-0D7D-4184-8BD5-EF66FF65863B";
paths = (
{
closed = 1;
nodes = (
"169 154 LINE",
"169 0 LINE",
"256 0 LINE",
"256 154 LINE",
"332 154 LINE",
"332 235 LINE",
"256 235 LINE",
"256 700 LINE",
"155 700 LINE",
"115 512 OFFCURVE",
"72 353 OFFCURVE",
"30 235 CURVE",
"30 154 LINE"
);
},
{
closed = 1;
nodes = (
"124 319 OFFCURVE",
"148 410 OFFCURVE",
"167 498 CURVE",
"169 498 LINE",
"169 235 LINE",
"96 235 LINE"
);
}
);
width = 364;
}
);
unicode = 0034;
},
{
color = 9;
glyphname = five;
lastChange = "2017-03-20 12:48:53 +0000";
layers = (
{
backgroundImage = {
crop = "{{0, 0}, {140, 160}}";
imagePath = "documents-export-2016-06-11/5.png";
locked = "1";
transform = "{28.976, 0, 0, 28.976, 22, -24}";
};
guideLines = (
{
angle = 90;
position = "{328, 378}";
}
);
layerId = "6A0E5D42-0D7D-4184-8BD5-EF66FF65863B";
paths = (
{
closed = 1;
nodes = (
"30 53 OFFCURVE",
"93 -10 OFFCURVE",
"170 -10 CURVE SMOOTH",
"182 -10 LINE SMOOTH",
"259 -10 OFFCURVE",
"322 53 OFFCURVE",
"322 130 CURVE SMOOTH",
"322 338 LINE SMOOTH",
"322 415 OFFCURVE",
"281 478 OFFCURVE",
"204 478 CURVE SMOOTH",
"179 478 OFFCURVE",
"155 472 OFFCURVE",
"141 461 CURVE",
"139 461 LINE",
"142 619 LINE",
"313 619 LINE",
"313 700 LINE",
"57 700 LINE",
"52 376 LINE",
"141 376 LINE",
"149 389 OFFCURVE",
"162 397 OFFCURVE",
"179 397 CURVE SMOOTH",
"190 397 LINE SMOOTH",
"218 397 OFFCURVE",
"235 375 OFFCURVE",
"235 347 CURVE SMOOTH",
"235 121 LINE SMOOTH",
"235 93 OFFCURVE",
"213 71 OFFCURVE",
"185 71 CURVE SMOOTH",
"167 71 LINE SMOOTH",
"139 71 OFFCURVE",
"117 93 OFFCURVE",
"117 121 CURVE SMOOTH",
"117 250 LINE",
"30 250 LINE",
"30 130 LINE SMOOTH"
);
}
);
width = 354;
}
);
unicode = 0035;
},
{
color = 9;
glyphname = six;
lastChange = "2017-03-20 12:48:56 +0000";
layers = (
{
backgroundImage = {
crop = "{{0, 0}, {140, 160}}";
imagePath = "documents-export-2016-06-11/6.png";
locked = "1";
transform = "{29.125, 0, 0, 29.125, 15, -33}";
};
layerId = "6A0E5D42-0D7D-4184-8BD5-EF66FF65863B";
paths = (
{
closed = 1;
nodes = (
"179 430 LINE",
"156 430 OFFCURVE",
"132 423 OFFCURVE",
"119 413 CURVE",
"117 413 LINE",
"117 579 LINE SMOOTH",
"117 607 OFFCURVE",
"139 629 OFFCURVE",
"167 629 CURVE SMOOTH",
"180 629 LINE SMOOTH",
"208 629 OFFCURVE",
"230 607 OFFCURVE",
"230 579 CURVE SMOOTH",
"230 561 LINE",
"317 561 LINE",
"317 570 LINE",
"317 647 OFFCURVE",
"254 710 OFFCURVE",
"177 710 CURVE",
"170 710 LINE",
"93 710 OFFCURVE",
"30 647 OFFCURVE",
"30 570 CURVE SMOOTH",
"30 130 LINE SMOOTH",
"30 53 OFFCURVE",
"93 -10 OFFCURVE",
"170 -10 CURVE",
"182 -10 LINE",
"259 -10 OFFCURVE",
"322 53 OFFCURVE",
"322 130 CURVE SMOOTH",
"322 212 OFFCURVE",
"322 256 OFFCURVE",
"322 290 CURVE SMOOTH",
"322 367 OFFCURVE",
"259 430 OFFCURVE",
"182 430 CURVE"
);
},
{
closed = 1;
nodes = (
"235 93 OFFCURVE",
"213 71 OFFCURVE",
"185 71 CURVE",
"167 71 LINE",
"139 71 OFFCURVE",
"117 93 OFFCURVE",
"117 121 CURVE SMOOTH",
"117 299 LINE SMOOTH",
"117 327 OFFCURVE",
"139 349 OFFCURVE",
"167 349 CURVE",
"185 349 LINE",
"213 349 OFFCURVE",
"235 327 OFFCURVE",
"235 299 CURVE SMOOTH",
"235 121 LINE SMOOTH"
);
}
);
width = 355;
}
);
unicode = 0036;
},
{
color = 9;
glyphname = seven;
lastChange = "2017-03-20 12:48:58 +0000";
layers = (
{
backgroundImage = {
crop = "{{0, 0}, {140, 160}}";
imagePath = "documents-export-2016-06-11/7.png";
locked = "1";
transform = "{28.406, 0, 0, 28.406, -8, -14}";
};
layerId = "6A0E5D42-0D7D-4184-8BD5-EF66FF65863B";
paths = (
{
closed = 1;
nodes = (
"221 619 LINE",
"221 370 OFFCURVE",
"83 295 OFFCURVE",
"83 27 CURVE SMOOTH",
"83 0 LINE",
"170 0 LINE",
"170 27 LINE SMOOTH",
"170 327 OFFCURVE",
"302 330 OFFCURVE",
"302 640 CURVE SMOOTH",
"302 700 LINE",
"30 700 LINE",
"30 619 LINE"
);
}
);
width = 334;
}
);
unicode = 0037;
},
{
color = 9;
glyphname = eight;
lastChange = "2017-03-20 12:49:00 +0000";
layers = (
{
backgroundImage = {
crop = "{{0, 0}, {140, 160}}";
imagePath = "documents-export-2016-06-11/8.png";
locked = "1";
transform = "{29.506, 0, 0, 29.506, 9, -36}";
};
guideLines = (
{
angle = 90;
position = "{128, 299}";
},
{
angle = 90;
position = "{224, 299}";
},
{
position = "{321, 629}";
}
);
layerId = "6A0E5D42-0D7D-4184-8BD5-EF66FF65863B";
paths = (
{
closed = 1;
nodes = (
"30 53 OFFCURVE",
"93 -10 OFFCURVE",
"170 -10 CURVE SMOOTH",
"182 -10 LINE SMOOTH",
"259 -10 OFFCURVE",
"322 53 OFFCURVE",
"322 130 CURVE SMOOTH",
"322 290 LINE SMOOTH",
"322 330 OFFCURVE",
"305 366 OFFCURVE",
"279 391 CURVE",
"298 413 OFFCURVE",
"310 442 OFFCURVE",
"310 474 CURVE SMOOTH",
"310 586 LINE SMOOTH",
"310 654 OFFCURVE",
"254 710 OFFCURVE",
"186 710 CURVE SMOOTH",
"166 710 LINE SMOOTH",
"97 710 OFFCURVE",
"41 654 OFFCURVE",
"41 586 CURVE SMOOTH",
"41 474 LINE SMOOTH",
"41 442 OFFCURVE",
"53 413 OFFCURVE",
"73 391 CURVE",
"46 365 OFFCURVE",
"30 329 OFFCURVE",
"30 290 CURVE SMOOTH",
"30 130 LINE SMOOTH"
);
},
{
closed = 1;
nodes = (
"117 299 LINE SMOOTH",
"117 327 OFFCURVE",
"139 349 OFFCURVE",
"167 349 CURVE SMOOTH",
"185 349 LINE SMOOTH",
"213 349 OFFCURVE",
"235 327 OFFCURVE",
"235 299 CURVE SMOOTH",
"235 121 LINE SMOOTH",
"235 93 OFFCURVE",
"213 71 OFFCURVE",
"185 71 CURVE SMOOTH",
"167 71 LINE SMOOTH",
"139 71 OFFCURVE",
"117 93 OFFCURVE",
"117 121 CURVE SMOOTH"
);
},
{
closed = 1;
nodes = (
"128 585 LINE SMOOTH",
"128 609 OFFCURVE",
"148 629 OFFCURVE",
"172 629 CURVE SMOOTH",
"180 629 LINE SMOOTH",
"204 629 OFFCURVE",
"224 609 OFFCURVE",
"224 585 CURVE SMOOTH",
"224 474 LINE SMOOTH",
"224 450 OFFCURVE",
"204 430 OFFCURVE",
"180 430 CURVE SMOOTH",
"172 430 LINE SMOOTH",
"148 430 OFFCURVE",
"128 450 OFFCURVE",
"128 474 CURVE SMOOTH"
);
}
);
width = 356;
}
);
unicode = 0038;
},
{
color = 9;
glyphname = nine;
lastChange = "2017-03-20 12:49:04 +0000";
layers = (
{
backgroundImage = {
crop = "{{0, 0}, {140, 160}}";
imagePath = "documents-export-2016-06-11/9.png";
locked = "1";
transform = "{29.079, 0, 0, 29.079, 17, -31}";
};
layerId = "6A0E5D42-0D7D-4184-8BD5-EF66FF65863B";
paths = (
{
closed = 1;
nodes = (
"173 258 LINE",
"196 258 OFFCURVE",
"220 265 OFFCURVE",
"233 275 CURVE",
"235 275 LINE",
"235 121 LINE SMOOTH",
"235 93 OFFCURVE",
"213 71 OFFCURVE",
"185 71 CURVE SMOOTH",
"172 71 LINE SMOOTH",
"144 71 OFFCURVE",
"122 93 OFFCURVE",
"122 121 CURVE SMOOTH",
"122 139 LINE",
"35 139 LINE",
"35 130 LINE",
"35 53 OFFCURVE",
"98 -10 OFFCURVE",
"175 -10 CURVE",
"182 -10 LINE",
"259 -10 OFFCURVE",
"322 53 OFFCURVE",
"322 130 CURVE SMOOTH",
"322 570 LINE SMOOTH",
"322 647 OFFCURVE",
"259 710 OFFCURVE",
"182 710 CURVE",
"170 710 LINE",
"93 710 OFFCURVE",
"30 647 OFFCURVE",
"30 570 CURVE SMOOTH",
"30 488 OFFCURVE",
"30 432 OFFCURVE",
"30 398 CURVE SMOOTH",
"30 321 OFFCURVE",
"93 258 OFFCURVE",
"170 258 CURVE"
);
},
{
closed = 1;
nodes = (
"117 607 OFFCURVE",
"139 629 OFFCURVE",
"167 629 CURVE",
"185 629 LINE",
"213 629 OFFCURVE",
"235 607 OFFCURVE",
"235 579 CURVE SMOOTH",
"235 389 LINE SMOOTH",
"235 361 OFFCURVE",
"213 339 OFFCURVE",
"185 339 CURVE",
"167 339 LINE",
"139 339 OFFCURVE",
"117 361 OFFCURVE",
"117 389 CURVE SMOOTH",
"117 579 LINE SMOOTH"
);
}
);
width = 353;
}
);
unicode = 0039;
},
{
color = 6;
glyphname = asterisk;
lastChange = "2017-03-20 12:11:32 +0000";
layers = (
{
backgroundImage = {
crop = "{{0, 0}, {140, 160}}";
imagePath = "../sasveni nishnebi.png";
locked = "1";
transform = "{29.211, 0, 0, 29.211, -1393, -63}";
};
guideLines = (
{
position = "{199, 567}";
},
{
angle = 90;
position = "{163, 507}";
}
);
layerId = "6A0E5D42-0D7D-4184-8BD5-EF66FF65863B";
paths = (
{
closed = 1;
nodes = (
"101 440 OFFCURVE",
"127 444 OFFCURVE",
"142 463 CURVE SMOOTH",
"147 469 OFFCURVE",
"148 478 OFFCURVE",
"149 486 CURVE",
"153 531 OFFCURVE",
"155 538 OFFCURVE",
"147 543 CURVE SMOOTH",
"140 547 OFFCURVE",
"138 548 OFFCURVE",
"92 527 CURVE",
"84 525 OFFCURVE",
"78 520 OFFCURVE",
"73 513 CURVE SMOOTH",
"59 494 OFFCURVE",
"63 468 OFFCURVE",
"82 454 CURVE SMOOTH"
);
},
{
closed = 1;
nodes = (
"67 551 OFFCURVE",
"75 553 OFFCURVE",
"83 554 CURVE",
"127 564 OFFCURVE",
"135 564 OFFCURVE",
"137 574 CURVE SMOOTH",
"139 582 OFFCURVE",
"139 584 OFFCURVE",
"105 621 CURVE",
"100 628 OFFCURVE",
"94 632 OFFCURVE",
"86 635 CURVE SMOOTH",
"63 644 OFFCURVE",
"40 630 OFFCURVE",
"32 608 CURVE SMOOTH",
"24 586 OFFCURVE",
"37 562 OFFCURVE",
"59 554 CURVE SMOOTH"
);
},
{
closed = 1;
nodes = (
"263 468 OFFCURVE",
"267 494 OFFCURVE",
"254 513 CURVE SMOOTH",
"249 520 OFFCURVE",
"241 524 OFFCURVE",
"234 527 CURVE",
"192 545 OFFCURVE",
"186 549 OFFCURVE",
"179 543 CURVE SMOOTH",
"173 538 OFFCURVE",
"172 536 OFFCURVE",
"177 486 CURVE",
"177 478 OFFCURVE",
"180 470 OFFCURVE",
"185 463 CURVE SMOOTH",
"199 444 OFFCURVE",
"225 440 OFFCURVE",
"244 454 CURVE SMOOTH"
);
},
{
closed = 1;
nodes = (
"172 592 OFFCURVE",
"173 594 OFFCURVE",
"198 638 CURVE",
"202 644 OFFCURVE",
"205 652 OFFCURVE",
"205 661 CURVE SMOOTH",
"205 684 OFFCURVE",
"186 703 OFFCURVE",
"163 703 CURVE SMOOTH",
"140 703 OFFCURVE",
"121 684 OFFCURVE",
"121 661 CURVE SMOOTH",
"121 652 OFFCURVE",
"124 644 OFFCURVE",
"128 638 CURVE",
"151 598 OFFCURVE",
"154 592 OFFCURVE",
"163 592 CURVE SMOOTH"
);
},
{
closed = 1;
nodes = (
"250 552 OFFCURVE",
"259 552 OFFCURVE",
"267 555 CURVE SMOOTH",
"289 563 OFFCURVE",
"301 586 OFFCURVE",
"294 608 CURVE SMOOTH",
"287 630 OFFCURVE",
"263 643 OFFCURVE",
"241 635 CURVE SMOOTH",
"233 632 OFFCURVE",
"226 627 OFFCURVE",
"221 621 CURVE",
"191 587 OFFCURVE",
"186 582 OFFCURVE",
"189 574 CURVE SMOOTH",
"192 565 OFFCURVE",
"194 565 OFFCURVE",
"243 554 CURVE"
);
}
);
width = 326;
}
);
unicode = 002A;
},
{
color = 6;
glyphname = periodcentered;
lastChange = "2017-03-20 12:12:27 +0000";
layers = (
{
layerId = "6A0E5D42-0D7D-4184-8BD5-EF66FF65863B";
paths = (
{
closed = 1;
nodes = (
"82 -9 LINE",
"106 -9 OFFCURVE",
"125 10 OFFCURVE",
"125 34 CURVE",
"125 45 LINE",
"125 69 OFFCURVE",
"106 88 OFFCURVE",
"82 88 CURVE",
"73 88 LINE",
"49 88 OFFCURVE",
"30 69 OFFCURVE",
"30 45 CURVE",
"30 34 LINE",
"30 10 OFFCURVE",
"49 -9 OFFCURVE",
"73 -9 CURVE"
);
}
);
width = 155;
}
);
unicode = 00B7;
},
{
color = 6;
glyphname = colon;
lastChange = "2017-03-20 12:13:25 +0000";
layers = (
{
layerId = "6A0E5D42-0D7D-4184-8BD5-EF66FF65863B";
paths = (
{
closed = 1;
nodes = (
"30 9 OFFCURVE",
"49 -10 OFFCURVE",
"73 -10 CURVE",
"82 -10 LINE",
"106 -10 OFFCURVE",
"125 9 OFFCURVE",
"125 33 CURVE",
"125 44 LINE",
"125 68 OFFCURVE",
"106 87 OFFCURVE",
"82 87 CURVE",
"73 87 LINE",
"49 87 OFFCURVE",
"30 68 OFFCURVE",
"30 44 CURVE",
"30 33 LINE"
);
},
{
closed = 1;
nodes = (
"30 280 OFFCURVE",
"49 261 OFFCURVE",
"73 261 CURVE",
"82 261 LINE",
"106 261 OFFCURVE",
"125 280 OFFCURVE",
"125 304 CURVE",
"125 315 LINE",
"125 339 OFFCURVE",
"106 358 OFFCURVE",
"82 358 CURVE",
"73 358 LINE",
"49 358 OFFCURVE",
"30 339 OFFCURVE",
"30 315 CURVE",
"30 304 LINE"
);
}
);
width = 155;
}
);
unicode = 003A;
},
{
color = 6;
glyphname = comma;
lastChange = "2017-03-20 12:14:14 +0000";
layers = (
{
layerId = "6A0E5D42-0D7D-4184-8BD5-EF66FF65863B";
paths = (
{
closed = 1;
nodes = (
"30 9 OFFCURVE",
"49 -10 OFFCURVE",
"73 -10 CURVE SMOOTH",
"79 -10 LINE",
"77 -39 OFFCURVE",
"68 -49 OFFCURVE",
"46 -57 CURVE",
"46 -94 LINE",
"101 -85 OFFCURVE",
"125 -29 OFFCURVE",
"125 44 CURVE SMOOTH",
"125 68 OFFCURVE",
"106 87 OFFCURVE",
"82 87 CURVE SMOOTH",
"73 87 LINE SMOOTH",
"49 87 OFFCURVE",
"30 68 OFFCURVE",
"30 44 CURVE SMOOTH",
"30 33 LINE SMOOTH"
);
}
);
width = 155;
}
);
unicode = 002C;
},
{
color = 6;
glyphname = exclam;
lastChange = "2017-03-20 12:15:06 +0000";
layers = (
{
backgroundImage = {
crop = "{{0, 0}, {140, 160}}";
imagePath = "../eliso kirovi/Letters/dzaxili";
locked = "1";
transform = "{28.801, 0, 0, 28.801, -4, -68}";
};
layerId = "6A0E5D42-0D7D-4184-8BD5-EF66FF65863B";
paths = (
{
closed = 1;
nodes = (
"32 9 OFFCURVE",
"51 -10 OFFCURVE",
"75 -10 CURVE",
"84 -10 LINE",
"108 -10 OFFCURVE",
"127 9 OFFCURVE",
"127 33 CURVE",
"127 44 LINE",
"127 68 OFFCURVE",
"108 87 OFFCURVE",
"84 87 CURVE",
"75 87 LINE",
"51 87 OFFCURVE",
"32 68 OFFCURVE",
"32 44 CURVE",
"32 33 LINE"
);
},
{
closed = 1;
nodes = (
"63 123 LINE",
"96 123 LINE",
"129 666 LINE SMOOTH",
"130 690 OFFCURVE",
"109 710 OFFCURVE",
"85 710 CURVE SMOOTH",
"74 710 LINE SMOOTH",
"50 710 OFFCURVE",
"30 690 OFFCURVE",
"30 666 CURVE"
);
}
);
width = 159;
}
);
unicode = 0021;
},
{
color = 6;
glyphname = period;
lastChange = "2017-03-20 12:16:13 +0000";
layers = (
{
backgroundImage = {
crop = "{{0, 0}, {140, 160}}";
imagePath = "../eliso kirovi/Letters/wertili";
locked = "1";
transform = "{30.835, 0, 0, 30.835, -7, -71}";
};
layerId = "6A0E5D42-0D7D-4184-8BD5-EF66FF65863B";
paths = (
{
closed = 1;
nodes = (
"30 19 OFFCURVE",
"49 0 OFFCURVE",
"73 0 CURVE",
"82 0 LINE",
"106 0 OFFCURVE",
"125 19 OFFCURVE",
"125 43 CURVE",
"125 54 LINE",
"125 78 OFFCURVE",
"106 97 OFFCURVE",
"82 97 CURVE",
"73 97 LINE",
"49 97 OFFCURVE",
"30 78 OFFCURVE",
"30 54 CURVE",
"30 43 LINE"
);
}
);
width = 155;
}
);
unicode = 002E;
},
{
color = 6;
glyphname = question;
lastChange = "2017-03-20 12:17:15 +0000";
layers = (
{
backgroundImage = {
crop = "{{0, 0}, {140, 160}}";
imagePath = "../eliso kirovi/Letters/kitxvis";
locked = "1";
transform = "{28.678, 0, 0, 28.678, 18, -120}";
};
layerId = "6A0E5D42-0D7D-4184-8BD5-EF66FF65863B";
paths = (
{
closed = 0;
nodes = (
"169 610 LINE SMOOTH"
);
},
{
closed = 1;
nodes = (
"114 488 LINE",
"114 579 LINE SMOOTH",
"114 607 OFFCURVE",
"136 629 OFFCURVE",
"164 629 CURVE SMOOTH",
"171 629 LINE SMOOTH",
"199 629 OFFCURVE",
"221 607 OFFCURVE",
"221 579 CURVE SMOOTH",
"221 385 LINE SMOOTH",
"221 357 OFFCURVE",
"204 335 OFFCURVE",
"176 335 CURVE SMOOTH",
"161 335 LINE SMOOTH",
"154 335 OFFCURVE",
"144 337 OFFCURVE",
"138 337 CURVE SMOOTH",
"137 337 OFFCURVE",
"130 331 OFFCURVE",
"126 329 CURVE",
"126 127 LINE",
"213 127 LINE",
"213 256 LINE",
"275 267 OFFCURVE",
"308 325 OFFCURVE",
"308 394 CURVE SMOOTH",
"308 570 LINE SMOOTH",
"308 647 OFFCURVE",
"245 710 OFFCURVE",
"167 710 CURVE SMOOTH",
"90 710 OFFCURVE",
"30 646 OFFCURVE",
"30 569 CURVE SMOOTH",
"30 488 LINE"
);
},
{
closed = 1;
nodes = (
"121 9 OFFCURVE",
"140 -10 OFFCURVE",
"164 -10 CURVE",
"173 -10 LINE",
"197 -10 OFFCURVE",
"216 9 OFFCURVE",
"216 33 CURVE",
"216 44 LINE",
"216 68 OFFCURVE",
"197 87 OFFCURVE",
"173 87 CURVE",
"164 87 LINE",
"140 87 OFFCURVE",
"121 68 OFFCURVE",
"121 44 CURVE",
"121 33 LINE"
);
}
);
width = 338;
}
);
unicode = 003F;
},
{
color = 6;
glyphname = semicolon;
lastChange = "2017-03-20 12:18:17 +0000";
layers = (
{
layerId = "6A0E5D42-0D7D-4184-8BD5-EF66FF65863B";
paths = (
{
closed = 1;
nodes = (
"82 261 LINE",
"106 261 OFFCURVE",
"125 280 OFFCURVE",
"125 304 CURVE",
"125 315 LINE",
"125 339 OFFCURVE",
"106 358 OFFCURVE",
"82 358 CURVE",
"73 358 LINE",
"49 358 OFFCURVE",
"30 339 OFFCURVE",
"30 315 CURVE",
"30 304 LINE",
"30 280 OFFCURVE",
"49 261 OFFCURVE",
"73 261 CURVE"
);
},
{
closed = 1;
nodes = (
"30 9 OFFCURVE",
"49 -10 OFFCURVE",
"73 -10 CURVE SMOOTH",
"79 -10 LINE",
"77 -39 OFFCURVE",
"68 -49 OFFCURVE",
"46 -57 CURVE",
"46 -94 LINE",
"101 -85 OFFCURVE",
"125 -29 OFFCURVE",
"125 44 CURVE SMOOTH",
"125 68 OFFCURVE",
"106 87 OFFCURVE",
"82 87 CURVE SMOOTH",
"73 87 LINE SMOOTH",
"49 87 OFFCURVE",
"30 68 OFFCURVE",
"30 44 CURVE SMOOTH",
"30 33 LINE SMOOTH"
);
}
);
width = 155;
}
);
unicode = 003B;
},
{
color = 6;
glyphname = slash;
lastChange = "2017-03-20 12:19:18 +0000";
layers = (
{
layerId = "6A0E5D42-0D7D-4184-8BD5-EF66FF65863B";
paths = (
{
closed = 1;
nodes = (
"30 0 LINE",
"117 0 LINE",
"317 700 LINE",
"230 700 LINE"
);
}
);
width = 347;
}
);
unicode = 002F;
},
{
color = 7;
glyphname = plus;
lastChange = "2017-03-20 12:49:45 +0000";
layers = (
{
layerId = "6A0E5D42-0D7D-4184-8BD5-EF66FF65863B";
paths = (
{
closed = 1;
nodes = (
"135 236 LINE",
"135 131 LINE",
"216 131 LINE",
"216 236 LINE",
"320 236 LINE",
"320 317 LINE",
"216 317 LINE",
"216 421 LINE",
"135 421 LINE",
"135 317 LINE",
"30 317 LINE",
"30 236 LINE"
);
}
);
width = 350;
}
);
unicode = 002B;
},
{
color = 7;
glyphname = minus;
lastChange = "2017-03-20 12:50:07 +0000";
layers = (
{
layerId = "6A0E5D42-0D7D-4184-8BD5-EF66FF65863B";
paths = (
{
closed = 1;
nodes = (
"30 245 LINE",
"320 245 LINE",
"320 326 LINE",
"30 326 LINE"
);
}
);
width = 350;
}
);
unicode = 2212;
},
{
color = 7;
glyphname = multiply;
lastChange = "2017-03-20 12:50:21 +0000";
layers = (
{
layerId = "6A0E5D42-0D7D-4184-8BD5-EF66FF65863B";
paths = (
{
closed = 1;
nodes = (
"87 157 LINE",
"162 232 LINE",
"235 158 LINE",
"293 215 LINE",
"219 289 LINE",
"293 363 LINE",
"235 420 LINE",
"162 347 LINE",
"87 421 LINE",
"30 363 LINE",
"104 289 LINE",
"30 215 LINE"
);
}
);
width = 323;
}
);
unicode = 00D7;
},
{
color = 7;
glyphname = divide;
lastChange = "2017-03-20 12:50:45 +0000";
layers = (
{
layerId = "6A0E5D42-0D7D-4184-8BD5-EF66FF65863B";
paths = (
{
closed = 1;
nodes = (
"128 169 OFFCURVE",
"147 150 OFFCURVE",
"171 150 CURVE",
"180 150 LINE",
"204 150 OFFCURVE",
"223 169 OFFCURVE",
"223 193 CURVE",
"223 204 LINE",
"223 228 OFFCURVE",
"204 247 OFFCURVE",
"180 247 CURVE",
"171 247 LINE",
"147 247 OFFCURVE",
"128 228 OFFCURVE",
"128 204 CURVE",
"128 193 LINE"
);
},
{
closed = 1;
nodes = (
"128 440 OFFCURVE",
"147 421 OFFCURVE",
"171 421 CURVE",
"180 421 LINE",
"204 421 OFFCURVE",
"223 440 OFFCURVE",
"223 464 CURVE",
"223 475 LINE",
"223 499 OFFCURVE",
"204 518 OFFCURVE",
"180 518 CURVE",
"171 518 LINE",
"147 518 OFFCURVE",
"128 499 OFFCURVE",
"128 475 CURVE",
"128 464 LINE"
);
},
{
closed = 1;
nodes = (
"30 295 LINE",
"320 295 LINE",
"320 376 LINE",
"30 376 LINE"
);
}
);
width = 350;
}
);
rightKerningGroup = "60";
unicode = 00F7;
},
{
color = 7;
glyphname = equal;
lastChange = "2017-03-20 12:51:08 +0000";
layers = (
{
layerId = "6A0E5D42-0D7D-4184-8BD5-EF66FF65863B";
paths = (
{
closed = 1;
nodes = (
"30 212 LINE",
"320 212 LINE",
"320 293 LINE",
"30 293 LINE"
);
},
{
closed = 1;
nodes = (
"30 340 LINE",
"320 340 LINE",
"320 421 LINE",
"30 421 LINE"
);
}
);
width = 350;
}
);
unicode = 003D;
},
{
color = 7;
glyphname = plusminus;
lastChange = "2017-03-20 12:49:19 +0000";
layers = (
{
layerId = "6A0E5D42-0D7D-4184-8BD5-EF66FF65863B";
paths = (
{
closed = 1;
nodes = (
"30 122 LINE",
"320 122 LINE",
"320 203 LINE",
"30 203 LINE"
);
},
{
closed = 1;
nodes = (
"135 339 LINE",
"135 234 LINE",
"216 234 LINE",
"216 339 LINE",
"320 339 LINE",
"320 420 LINE",
"216 420 LINE",
"216 524 LINE",
"135 524 LINE",
"135 420 LINE",
"30 420 LINE",
"30 339 LINE"
);
}
);
width = 350;
}
);
unicode = 00B1;
},
